<?xml version="1.0" encoding="UTF-8"?>
<svg version="1.1" xmlns="http://www.w3.org/2000/svg" width="512" height="512">
<path d="M0 0 C1.20261719 -0.00668677 1.20261719 -0.00668677 2.42952967 -0.01350862 C3.30461097 -0.01332426 4.17969228 -0.01313989 5.0812912 -0.01294994 C6.48254313 -0.01846498 6.48254313 -0.01846498 7.91210318 -0.02409142 C11.05016976 -0.03512624 14.18820323 -0.03897181 17.32628632 -0.04278088 C19.57338822 -0.04904578 21.82048908 -0.05569261 24.06758881 -0.0626936 C31.45524626 -0.08373681 38.84290392 -0.09409766 46.23058319 -0.10406017 C48.77486939 -0.10810792 51.31915549 -0.11222485 53.86344147 -0.11641026 C64.44927176 -0.13328067 75.0350999 -0.14791421 85.62094116 -0.155159 C88.36679841 -0.15706875 91.11265566 -0.1589891 93.85851288 -0.16094494 C94.88216038 -0.16167055 94.88216038 -0.16167055 95.92648762 -0.16241082 C106.96947226 -0.17070252 118.01234826 -0.19602491 129.05528551 -0.22852562 C140.40532095 -0.26165636 151.7552819 -0.27928094 163.10537291 -0.28280324 C169.47291155 -0.28515136 175.84027855 -0.29408086 182.2077713 -0.31926441 C188.20289185 -0.34259157 194.19772832 -0.34675949 200.19288254 -0.33650303 C202.38738323 -0.33600866 204.58189813 -0.34229976 206.77635574 -0.35605907 C228.06876916 -0.48203909 228.06876916 -0.48203909 237.94933319 4.13422108 C239.10948944 4.67562733 240.26964569 5.21703358 241.46495819 5.77484608 C249.74322293 10.64719618 256.22341268 15.42594266 260.44933319 24.19672108 C263.9577442 30.48302464 269.52476939 32.00381712 275.90636444 34.50140858 C292.34705355 40.93955941 303.61419774 54.11554306 310.69933319 69.94672108 C315.18039822 81.59466799 316.39417825 92.98768538 316.33028412 105.38383961 C316.33374968 106.8701636 316.33852023 108.35648501 316.34446585 109.84280115 C316.35688238 113.88684908 316.35084857 117.93068211 316.3415072 121.97473037 C316.33467826 126.35178603 316.3452169 130.72880648 316.35344696 135.10585499 C316.36674605 143.66489467 316.36392356 152.22385517 316.35520904 160.78289788 C316.34841735 167.7432542 316.34752218 174.70358842 316.35078049 181.66394711 C316.35124019 182.65684945 316.35169989 183.64975179 316.35217351 184.67274209 C316.35313275 186.69019465 316.35410539 188.7076472 316.35509129 190.72509975 C316.3636341 209.61727256 316.35382871 228.5094016 316.33769019 247.40156723 C316.3242901 263.58875956 316.32661472 279.77588733 316.34044647 295.9630785 C316.35652549 314.78886796 316.36280805 333.61461912 316.35360968 352.44041449 C316.3526541 354.45050275 316.35171098 356.46059101 316.35078049 358.47067928 C316.35031766 359.45951847 316.34985483 360.44835766 316.34937798 361.46716167 C316.3467949 368.4133344 316.35114439 375.35948271 316.35821915 382.30565166 C316.36666027 390.77913537 316.3642994 399.25253577 316.34837691 407.72601002 C316.3405289 412.04385533 316.33734286 416.36156209 316.34732437 420.67940617 C316.35634446 424.6414843 316.35121979 428.60329707 316.33539172 432.56535155 C316.33207453 433.98914484 316.3336678 435.41296112 316.34101908 436.83673929 C316.43002784 455.52765992 312.65592271 472.18424745 300.94933319 487.13422108 C300.41566132 487.83289295 299.88198944 488.53156483 299.33214569 489.25140858 C289.53681897 501.29637971 274.26559627 509.75496313 258.94933319 512.13422108 C250.33694974 512.84583255 241.66949321 512.69986365 233.03466964 512.6717788 C229.51874838 512.6647246 226.00291646 512.68083047 222.4870224 512.69377613 C215.62010481 512.7153107 208.75335358 512.71531781 201.88641338 512.70715059 C196.30705531 512.7008318 190.7277455 512.70200472 185.14838791 512.70842266 C184.35213562 512.70932432 183.55588334 512.71022597 182.73550219 512.71115495 C181.11769058 512.71300624 179.49987898 512.7148688 177.8820674 512.71674251 C162.74908248 512.73328102 147.6161911 512.72463207 132.48321183 512.70775693 C118.63542307 512.69302979 104.78785068 512.70773758 90.94008975 512.73652709 C76.70596736 512.76589908 62.47194493 512.77690196 48.23779356 512.76734489 C46.629236 512.76632236 45.02067842 512.76532775 43.41212082 512.76436138 C42.62074974 512.76388499 41.82937866 512.7634086 41.01402663 512.76291778 C35.43623437 512.76075257 29.85853679 512.77056214 24.28076553 512.78513241 C17.49149907 512.80262138 10.70250949 512.80258654 3.91325407 512.77978075 C0.44928572 512.76861287 -3.01419413 512.76553331 -6.47814178 512.78408146 C-10.22932123 512.79990218 -13.97914846 512.78516306 -17.73026276 512.76241016 C-19.37935086 512.78016376 -19.37935086 512.78016376 -21.06175387 512.79827601 C-28.4080288 512.70725226 -28.4080288 512.70725226 -31.75819206 509.71995926 C-33.05066681 507.13422108 -33.05066681 507.13422108 -33.05066681 505.13422108 C-37.67066681 505.13422108 -42.29066681 505.13422108 -47.05066681 505.13422108 C-47.38066681 506.78422108 -47.71066681 508.43422108 -48.05066681 510.13422108 C-51.83600148 512.65777753 -54.86100512 512.42978019 -59.24720001 512.42474842 C-60.5015963 512.43482426 -60.5015963 512.43482426 -61.78133392 512.44510365 C-64.55476543 512.46414409 -67.32795518 512.46801248 -70.10144806 512.47015858 C-72.03660429 512.47658804 -73.97175955 512.48331651 -75.90691376 512.4903307 C-79.97316485 512.5023226 -84.03933092 512.50601013 -88.10559845 512.50482655 C-93.28227425 512.50462456 -98.4583936 512.53179291 -103.63493824 512.56637096 C-107.63904498 512.58877571 -111.64302141 512.59265977 -115.64718437 512.59160709 C-117.55310907 512.59394783 -119.4590382 512.60268392 -121.36490059 512.61827183 C-142.8573747 512.77742901 -160.72476834 507.70805005 -176.61560822 492.58539295 C-189.41465122 479.64263834 -196.16132366 461.73577209 -196.18209457 443.69253254 C-196.18593572 442.43382328 -196.18977686 441.17511401 -196.19373441 439.87826204 C-196.19295431 438.49430269 -196.19207555 437.1103434 -196.1911087 435.72638416 C-196.19369462 434.24610425 -196.19670841 432.76582504 -196.2001121 431.28554678 C-196.20815892 427.22575134 -196.20997038 423.1659736 -196.21070957 419.10617113 C-196.2125642 414.7242301 -196.22011365 410.34229818 -196.22684479 405.96036243 C-196.24041272 396.38156414 -196.24645058 386.80277004 -196.25085545 377.22396374 C-196.25362079 371.23885351 -196.2578587 365.25374489 -196.26235962 359.26863575 C-196.27455086 342.6864148 -196.28485008 326.10419513 -196.28823471 309.5219698 C-196.28845428 308.46114902 -196.28867384 307.40032825 -196.28890006 306.30736139 C-196.28911834 305.24404871 -196.28933662 304.18073602 -196.28956151 303.08520174 C-196.29000497 300.93064308 -196.29045153 298.77608442 -196.29090118 296.62152576 C-196.29112261 295.55279761 -196.29134404 294.48406946 -196.29157218 293.38295561 C-196.29551793 276.07615679 -196.3129658 258.76940012 -196.33626071 241.46261758 C-196.36000307 223.67931671 -196.37243789 205.89603698 -196.37360263 188.11272001 C-196.37451783 178.13403908 -196.38023096 168.15541308 -196.39842224 158.17674732 C-196.41386227 149.67748621 -196.41892077 141.178297 -196.41068414 132.67902452 C-196.40679127 128.34704338 -196.40764015 124.01520687 -196.42174149 119.68324375 C-196.43456276 115.70794569 -196.43321158 111.73289969 -196.42115077 107.75760156 C-196.41920789 106.32888337 -196.42220605 104.9001468 -196.43099514 103.47145432 C-196.50345043 90.88421032 -195.45002383 78.00019154 -189.30066681 66.75922108 C-188.95141144 66.09350086 -188.60215607 65.42778065 -188.2423172 64.74188709 C-185.3742832 59.41683687 -182.10771566 54.63266182 -178.05066681 50.13422108 C-177.55566681 49.54769764 -177.06066681 48.9611742 -176.55066681 48.35687733 C-165.91649663 36.6327047 -150.56417103 29.9368567 -135.05066681 28.13422108 C-131.93972375 28.01796616 -128.83487594 28.04081581 -125.72229767 28.07172108 C-123.8414344 28.0811584 -121.96056986 28.09034282 -120.07970428 28.09930897 C-119.09162718 28.10560322 -118.10355007 28.11189747 -117.08553123 28.11838245 C-111.82847458 28.14550427 -106.57144576 28.13547456 -101.31433868 28.13031483 C-94.63584853 28.12410022 -87.95820693 28.12963434 -81.27991486 28.18549061 C-75.87027652 28.22975014 -70.46219235 28.23031752 -65.05246925 28.20135975 C-62.9947763 28.19828019 -60.93699435 28.21116749 -58.87950706 28.24042225 C-48.12481092 28.91235762 -48.12481092 28.91235762 -38.54264069 25.18915272 C-36.99830577 22.87458545 -36.05873687 20.7151224 -35.05066681 18.13422108 C-27.16322939 8.3270661 -12.81956561 0.03319816 0 0 Z " fill="#FEFEFE" transform="translate(196.05066680908203,-0.13422107696533203)"/>
<path d="M0 0 C1.20261719 -0.00668677 1.20261719 -0.00668677 2.42952967 -0.01350862 C3.30461097 -0.01332426 4.17969228 -0.01313989 5.0812912 -0.01294994 C6.48254313 -0.01846498 6.48254313 -0.01846498 7.91210318 -0.02409142 C11.05016976 -0.03512624 14.18820323 -0.03897181 17.32628632 -0.04278088 C19.57338822 -0.04904578 21.82048908 -0.05569261 24.06758881 -0.0626936 C31.45524626 -0.08373681 38.84290392 -0.09409766 46.23058319 -0.10406017 C48.77486939 -0.10810792 51.31915549 -0.11222485 53.86344147 -0.11641026 C64.44927176 -0.13328067 75.0350999 -0.14791421 85.62094116 -0.155159 C88.36679841 -0.15706875 91.11265566 -0.1589891 93.85851288 -0.16094494 C94.88216038 -0.16167055 94.88216038 -0.16167055 95.92648762 -0.16241082 C106.96947226 -0.17070252 118.01234826 -0.19602491 129.05528551 -0.22852562 C140.40532095 -0.26165636 151.7552819 -0.27928094 163.10537291 -0.28280324 C169.47291155 -0.28515136 175.84027855 -0.29408086 182.2077713 -0.31926441 C188.20289185 -0.34259157 194.19772832 -0.34675949 200.19288254 -0.33650303 C202.38738323 -0.33600866 204.58189813 -0.34229976 206.77635574 -0.35605907 C228.06876916 -0.48203909 228.06876916 -0.48203909 237.94933319 4.13422108 C239.10948944 4.67562733 240.26964569 5.21703358 241.46495819 5.77484608 C249.74322293 10.64719618 256.22341268 15.42594266 260.44933319 24.19672108 C263.9577442 30.48302464 269.52476939 32.00381712 275.90636444 34.50140858 C292.34705355 40.93955941 303.61419774 54.11554306 310.69933319 69.94672108 C315.18039822 81.59466799 316.39417825 92.98768538 316.33028412 105.38383961 C316.33374968 106.8701636 316.33852023 108.35648501 316.34446585 109.84280115 C316.35688238 113.88684908 316.35084857 117.93068211 316.3415072 121.97473037 C316.33467826 126.35178603 316.3452169 130.72880648 316.35344696 135.10585499 C316.36674605 143.66489467 316.36392356 152.22385517 316.35520904 160.78289788 C316.34841735 167.7432542 316.34752218 174.70358842 316.35078049 181.66394711 C316.35124019 182.65684945 316.35169989 183.64975179 316.35217351 184.67274209 C316.35313275 186.69019465 316.35410539 188.7076472 316.35509129 190.72509975 C316.3636341 209.61727256 316.35382871 228.5094016 316.33769019 247.40156723 C316.3242901 263.58875956 316.32661472 279.77588733 316.34044647 295.9630785 C316.35652549 314.78886796 316.36280805 333.61461912 316.35360968 352.44041449 C316.3526541 354.45050275 316.35171098 356.46059101 316.35078049 358.47067928 C316.35031766 359.45951847 316.34985483 360.44835766 316.34937798 361.46716167 C316.3467949 368.4133344 316.35114439 375.35948271 316.35821915 382.30565166 C316.36666027 390.77913537 316.3642994 399.25253577 316.34837691 407.72601002 C316.3405289 412.04385533 316.33734286 416.36156209 316.34732437 420.67940617 C316.35634446 424.6414843 316.35121979 428.60329707 316.33539172 432.56535155 C316.33207453 433.98914484 316.3336678 435.41296112 316.34101908 436.83673929 C316.43002784 455.52765992 312.65592271 472.18424745 300.94933319 487.13422108 C300.41566132 487.83289295 299.88198944 488.53156483 299.33214569 489.25140858 C289.53681897 501.29637971 274.26559627 509.75496313 258.94933319 512.13422108 C250.33694974 512.84583255 241.66949321 512.69986365 233.03466964 512.6717788 C229.51874838 512.6647246 226.00291646 512.68083047 222.4870224 512.69377613 C215.62010481 512.7153107 208.75335358 512.71531781 201.88641338 512.70715059 C196.30705531 512.7008318 190.7277455 512.70200472 185.14838791 512.70842266 C184.35213562 512.70932432 183.55588334 512.71022597 182.73550219 512.71115495 C181.11769058 512.71300624 179.49987898 512.7148688 177.8820674 512.71674251 C162.74908248 512.73328102 147.6161911 512.72463207 132.48321183 512.70775693 C118.63542307 512.69302979 104.78785068 512.70773758 90.94008975 512.73652709 C76.70596736 512.76589908 62.47194493 512.77690196 48.23779356 512.76734489 C46.629236 512.76632236 45.02067842 512.76532775 43.41212082 512.76436138 C42.62074974 512.76388499 41.82937866 512.7634086 41.01402663 512.76291778 C35.43623437 512.76075257 29.85853679 512.77056214 24.28076553 512.78513241 C17.49149907 512.80262138 10.70250949 512.80258654 3.91325407 512.77978075 C0.44928572 512.76861287 -3.01419413 512.76553331 -6.47814178 512.78408146 C-10.22932123 512.79990218 -13.97914846 512.78516306 -17.73026276 512.76241016 C-19.37935086 512.78016376 -19.37935086 512.78016376 -21.06175387 512.79827601 C-28.37054561 512.7077167 -28.37054561 512.7077167 -31.79334831 509.82152176 C-33.05066681 507.13422108 -33.05066681 507.13422108 -32.48816681 503.50922108 C-31.17885465 500.43518383 -30.60926386 499.10115622 -28.05066681 497.13422108 C-25.87842572 496.75981623 -25.87842572 496.75981623 -23.2981205 496.76063347 C-22.31436349 496.75364372 -21.33060648 496.74665398 -20.31703866 496.73945242 C-19.23350637 496.74702848 -18.14997408 496.75460453 -17.03360748 496.76241016 C-15.31005313 496.75667332 -15.31005313 496.75667332 -13.55167949 496.75082058 C-10.35678909 496.74312416 -7.16224114 496.74886634 -3.96737146 496.76011741 C-0.52336703 496.76895386 2.92059776 496.76047251 6.36460114 496.75391102 C12.3362999 496.74474306 18.30792187 496.74609243 24.27962112 496.75409603 C32.9278953 496.76532159 41.57605995 496.75629088 50.2243246 496.74153423 C64.27360943 496.71774284 78.32288076 496.70439447 92.37218475 496.70038319 C93.21342219 496.70013832 94.05465963 496.69989345 94.92138912 496.69964116 C104.29542982 496.6970982 113.66946948 496.6965268 123.04351044 496.69757557 C126.43659719 496.69790856 129.82968393 496.69819397 133.22277069 496.69843006 C134.4785427 496.69852424 134.4785427 496.69852424 135.75968383 496.69862033 C149.7437744 496.69922618 163.7278028 496.6842985 177.71186745 496.65759701 C186.33147448 496.64182421 194.95088031 496.63950001 203.57048936 496.65473103 C209.48650645 496.664229 215.40240281 496.65938987 221.31840579 496.6435172 C224.72664835 496.63485954 228.13456952 496.63259289 231.54279518 496.64804363 C235.24963205 496.66147264 238.95563339 496.65015359 242.66243744 496.63301563 C244.25427504 496.6477258 244.25427504 496.6477258 245.87827098 496.66273314 C258.02367006 496.54730295 272.30734113 492.78809505 281.13292694 483.94672108 C282.94933319 482.13422108 282.94933319 482.13422108 284.94933319 482.13422108 C285.20972382 481.5696117 285.47011444 481.00500233 285.73839569 480.42328358 C287.06368439 477.91806041 288.63023181 475.78035263 290.32433319 473.50922108 C296.68472254 464.52517112 299.05912927 455.89391766 299.09650421 444.93242359 C299.10201924 443.87881046 299.10201924 443.87881046 299.10764569 442.80391222 C299.11861411 440.46210331 299.12251468 438.12033886 299.12633514 435.77850819 C299.13260505 434.09430268 299.13925231 432.41009853 299.14624786 430.72589588 C299.16723084 425.20446189 299.17764598 419.6830278 299.18761444 414.16156483 C299.19166438 412.25560015 299.19578137 410.34963562 299.19996452 408.44367123 C299.21900482 399.48582379 299.23323737 390.52798452 299.24157649 381.57012075 C299.25133992 371.25455153 299.27764098 360.93919739 299.31807739 350.6237039 C299.3483123 342.6344844 299.36305241 334.64532631 299.36635751 326.65605074 C299.36869985 321.89200819 299.3775535 317.12819571 299.40281868 312.3642149 C299.42623345 307.87680207 299.43027923 303.38976864 299.4200573 298.90231037 C299.41956504 297.26455702 299.42579277 295.62678412 299.43961334 293.98908901 C299.57002036 277.60622352 296.01101558 263.16409722 284.67589569 250.78265858 C267.87089166 234.73806197 248.02710521 235.28175009 226.33935618 235.45565462 C222.33721219 235.48022288 218.33519715 235.46715006 214.33301544 235.45737171 C205.04417306 235.44063217 195.75572852 235.46849083 186.46694946 235.5007906 C174.64087588 235.53943207 162.81486925 235.55525962 150.9887467 235.535586 C146.25089524 235.52911722 141.51370579 235.54307081 136.77595699 235.57403636 C133.81321613 235.58956369 130.85063509 235.5884206 127.88786507 235.58329296 C125.89293707 235.58483341 123.89805423 235.60629045 121.90325165 235.62871265 C103.37365168 235.54948567 86.49802107 228.98756417 72.94933319 216.13422108 C66.61488022 209.63699102 61.68597132 202.52068893 56.82433319 194.88422108 C56.08654794 193.73986845 55.34776228 192.59616024 54.6080246 191.45306873 C53.1097646 189.13722134 51.61424431 186.81965056 50.12120819 184.50043201 C46.88725863 179.48242028 43.61556969 174.48982069 40.32433319 169.50922108 C39.78147675 168.67616444 39.2386203 167.8431078 38.67931366 166.98480701 C29.29316237 152.80270624 17.92704989 143.70584992 0.94933319 140.13422108 C-0.9435011 140.03770463 -2.83936569 139.99509271 -4.73464203 139.98705006 C-5.89381134 139.97989475 -7.05298065 139.97273945 -8.24727631 139.96536732 C-9.51536636 139.96267841 -10.78345642 139.95998951 -12.08997345 139.95721912 C-13.44215824 139.95095081 -14.79434131 139.94430369 -16.14652252 139.9373064 C-20.58461058 139.91630005 -25.02269884 139.90590438 -29.46082306 139.89593983 C-30.99226588 139.89189041 -32.52370853 139.88777344 -34.05515099 139.88358974 C-41.25421538 139.86454232 -48.45326957 139.85031268 -55.6523543 139.84197778 C-63.94288925 139.83221919 -72.23315622 139.80593406 -80.52359682 139.76547688 C-86.9433314 139.73523201 -93.36298955 139.72050084 -99.78279394 139.71719676 C-103.61120504 139.714855 -107.43932975 139.70601007 -111.26766396 139.68073559 C-114.87519945 139.65730384 -118.48226307 139.65328141 -122.08985519 139.66349697 C-124.02839731 139.66422152 -125.96691627 139.64523514 -127.90535736 139.62543201 C-141.62143355 139.70622027 -154.52437677 144.94806004 -164.80066681 154.19672108 C-179.8670936 170.70332101 -179.49140275 189.95201666 -179.42298126 210.99286366 C-179.42541192 213.61231092 -179.4291339 216.23175726 -179.43404388 218.85120106 C-179.4434841 225.20155809 -179.43697511 231.5518007 -179.42478094 237.90214918 C-179.41109752 245.30615026 -179.41280424 252.71012471 -179.41491427 260.11413523 C-179.41809689 273.32617616 -179.40647619 286.53816298 -179.38684845 299.75018787 C-179.36782808 312.55684524 -179.36076685 325.36343927 -179.36634064 338.17010975 C-179.37240257 352.13955934 -179.37221525 366.10898116 -179.3608548 380.07842845 C-179.35964758 381.568555 -179.3584416 383.05868155 -179.35723686 384.5488081 C-179.35663332 385.281865 -179.35602978 386.01492191 -179.35540796 386.77019266 C-179.35153508 391.92627085 -179.35191991 397.08233868 -179.35382271 402.23841763 C-179.35616993 409.17830802 -179.34759414 416.11811584 -179.33176231 423.05798817 C-179.32752121 425.60408855 -179.32666774 428.15019716 -179.32945251 430.69629955 C-179.33267735 434.17205903 -179.32358467 437.64757645 -179.31136322 441.12331104 C-179.31514254 442.13002395 -179.31892187 443.13673686 -179.32281572 444.17395622 C-179.24501908 456.68580612 -175.66821857 467.63257007 -167.53894806 477.22406483 C-166.05066681 479.13422108 -166.05066681 479.13422108 -165.05066681 482.13422108 C-163.74417825 482.85207194 -162.40472941 483.51073355 -161.05066681 484.13422108 C-159.51817968 485.24329376 -157.99824299 486.36982257 -156.48816681 487.50922108 C-151.319654 491.18460796 -146.10513013 493.33529108 -140.05066681 495.13422108 C-139.23281708 495.39882885 -139.23281708 495.39882885 -138.39844513 495.66878223 C-134.95947444 496.35054615 -131.53303411 496.29572446 -128.04090118 496.30780506 C-127.23719589 496.31449207 -126.4334906 496.32117908 -125.6054306 496.32806873 C-123.86321769 496.34209798 -122.12098663 496.35399877 -120.37874603 496.36401653 C-117.62165448 496.3804505 -114.86469793 496.40368791 -112.10767365 496.42891407 C-104.26989225 496.49963445 -96.43205696 496.55986984 -88.59412384 496.61102772 C-83.79783023 496.64280929 -79.00169427 496.6840779 -74.20552826 496.73122311 C-72.37791017 496.74724227 -70.55025581 496.75956424 -68.72258759 496.7681303 C-66.16837277 496.78027745 -63.61452929 496.80442319 -61.06043243 496.83124256 C-59.92726341 496.83212627 -59.92726341 496.83212627 -58.77120209 496.83302784 C-55.07601854 496.8844694 -52.12472893 496.95381408 -49.05066681 499.13422108 C-47.3099894 502.11823949 -47.03442758 503.85815414 -47.23816681 507.32172108 C-48.05066681 510.13422108 -48.05066681 510.13422108 -51.05066681 512.13422108 C-53.81580023 512.33920865 -56.48103124 512.42792172 -59.24720001 512.42474842 C-60.5015963 512.43482426 -60.5015963 512.43482426 -61.78133392 512.44510365 C-64.55476543 512.46414409 -67.32795518 512.46801248 -70.10144806 512.47015858 C-72.03660429 512.47658804 -73.97175955 512.48331651 -75.90691376 512.4903307 C-79.97316485 512.5023226 -84.03933092 512.50601013 -88.10559845 512.50482655 C-93.28227425 512.50462456 -98.4583936 512.53179291 -103.63493824 512.56637096 C-107.63904498 512.58877571 -111.64302141 512.59265977 -115.64718437 512.59160709 C-117.55310907 512.59394783 -119.4590382 512.60268392 -121.36490059 512.61827183 C-142.8573747 512.77742901 -160.72476834 507.70805005 -176.61560822 492.58539295 C-189.41465122 479.64263834 -196.16132366 461.73577209 -196.18209457 443.69253254 C-196.18593572 442.43382328 -196.18977686 441.17511401 -196.19373441 439.87826204 C-196.19295431 438.49430269 -196.19207555 437.1103434 -196.1911087 435.72638416 C-196.19369462 434.24610425 -196.19670841 432.76582504 -196.2001121 431.28554678 C-196.20815892 427.22575134 -196.20997038 423.1659736 -196.21070957 419.10617113 C-196.2125642 414.7242301 -196.22011365 410.34229818 -196.22684479 405.96036243 C-196.24041272 396.38156414 -196.24645058 386.80277004 -196.25085545 377.22396374 C-196.25362079 371.23885351 -196.2578587 365.25374489 -196.26235962 359.26863575 C-196.27455086 342.6864148 -196.28485008 326.10419513 -196.28823471 309.5219698 C-196.28845428 308.46114902 -196.28867384 307.40032825 -196.28890006 306.30736139 C-196.28911834 305.24404871 -196.28933662 304.18073602 -196.28956151 303.08520174 C-196.29000497 300.93064308 -196.29045153 298.77608442 -196.29090118 296.62152576 C-196.29112261 295.55279761 -196.29134404 294.48406946 -196.29157218 293.38295561 C-196.29551793 276.07615679 -196.3129658 258.76940012 -196.33626071 241.46261758 C-196.36000307 223.67931671 -196.37243789 205.89603698 -196.37360263 188.11272001 C-196.37451783 178.13403908 -196.38023096 168.15541308 -196.39842224 158.17674732 C-196.41386227 149.67748621 -196.41892077 141.178297 -196.41068414 132.67902452 C-196.40679127 128.34704338 -196.40764015 124.01520687 -196.42174149 119.68324375 C-196.43456276 115.70794569 -196.43321158 111.73289969 -196.42115077 107.75760156 C-196.41920789 106.32888337 -196.42220605 104.9001468 -196.43099514 103.47145432 C-196.50345043 90.88421032 -195.45002383 78.00019154 -189.30066681 66.75922108 C-188.95141144 66.09350086 -188.60215607 65.42778065 -188.2423172 64.74188709 C-185.3742832 59.41683687 -182.10771566 54.63266182 -178.05066681 50.13422108 C-177.55566681 49.54769764 -177.06066681 48.9611742 -176.55066681 48.35687733 C-165.91649663 36.6327047 -150.56417103 29.9368567 -135.05066681 28.13422108 C-131.93972375 28.01796616 -128.83487594 28.04081581 -125.72229767 28.07172108 C-123.8414344 28.0811584 -121.96056986 28.09034282 -120.07970428 28.09930897 C-119.09162718 28.10560322 -118.10355007 28.11189747 -117.08553123 28.11838245 C-111.82847458 28.14550427 -106.57144576 28.13547456 -101.31433868 28.13031483 C-94.63584853 28.12410022 -87.95820693 28.12963434 -81.27991486 28.18549061 C-75.87027652 28.22975014 -70.46219235 28.23031752 -65.05246925 28.20135975 C-62.9947763 28.19828019 -60.93699435 28.21116749 -58.87950706 28.24042225 C-48.12481092 28.91235762 -48.12481092 28.91235762 -38.54264069 25.18915272 C-36.99830577 22.87458545 -36.05873687 20.7151224 -35.05066681 18.13422108 C-27.16322939 8.3270661 -12.81956561 0.03319816 0 0 Z " fill="#020202" transform="translate(196.05066680908203,-0.13422107696533203)"/>
<path d="M0 0 C1.35865749 -0.00807831 1.35865749 -0.00807831 2.7447626 -0.01631981 C5.75687816 -0.03054048 8.76855059 -0.0235102 11.78068542 -0.01637268 C13.9497106 -0.02207938 16.11873278 -0.0290448 18.28775024 -0.03717041 C24.16391213 -0.05508529 30.03992454 -0.05393632 35.91610551 -0.04822803 C40.82893083 -0.04513326 45.74172757 -0.05123197 50.65454882 -0.05726677 C62.24935301 -0.07130541 73.84408351 -0.06975665 85.43888855 -0.05836487 C97.38304121 -0.04688884 109.32696919 -0.06095233 121.27109224 -0.08776134 C131.54145599 -0.10994672 141.81174937 -0.11654918 152.08213538 -0.11068493 C158.20924903 -0.10732042 164.33621874 -0.10969673 170.46331215 -0.12693596 C176.22789233 -0.14244774 181.99214086 -0.13840236 187.75670815 -0.11963081 C189.86573729 -0.11595644 191.97479123 -0.1190196 194.08379745 -0.1295166 C208.61987213 -0.19631121 222.02031318 0.37013122 233.57048035 10.38768005 C241.34170441 18.69857246 245.62204014 27.05486089 245.78141785 38.41893005 C245.80947421 39.80045257 245.83813858 41.18196284 245.86735535 42.5634613 C245.90865648 44.72931225 245.94556832 46.8949315 245.97184753 49.0610199 C245.99948399 51.15996117 246.04533281 53.25788304 246.09391785 55.35643005 C246.11373718 56.60875427 246.13355652 57.86107849 246.15397644 59.15135193 C246.59463394 62.57535888 247.07082121 64.03761023 249.57048035 66.38768005 C254.1362024 66.99340495 254.1362024 66.99340495 258.25724792 65.27513123 C260.20527003 62.47532478 260.00832697 60.13430475 260.0821991 56.7509613 C260.11764832 55.45223083 260.15309753 54.15350037 260.18962097 52.81541443 C260.21272085 51.44367488 260.23550325 50.07192995 260.25798035 48.70018005 C260.29115577 47.31668399 260.32564566 45.93321877 260.36149597 44.54978943 C260.44411276 41.16250123 260.51322092 37.77547648 260.57048035 34.38768005 C269.43330772 36.41485923 277.22540548 43.43696925 282.2306366 50.8447113 C283.74527271 53.32692822 285.17581895 55.83647017 286.57048035 58.38768005 C287.43673035 59.90361755 287.43673035 59.90361755 288.32048035 61.45018005 C292.08641469 70.30012576 291.84624632 79.30146661 291.79753113 88.72972107 C291.79696614 90.26797478 291.79728527 91.80622903 291.79841614 93.34448242 C291.79898725 97.49675753 291.78727226 101.64891582 291.77326822 105.80116391 C291.7607204 110.14932737 291.75958718 114.49749384 291.75721741 118.84567261 C291.75101451 127.06898616 291.73461987 135.2922462 291.71451843 143.51553625 C291.6921223 152.88194375 291.68115667 162.24835387 291.67112756 171.6147815 C291.65025253 190.87244463 291.6150998 210.13005803 291.57048035 229.38768005 C291.09571259 228.97920837 290.62094482 228.57073669 290.13179016 228.14988708 C289.50585968 227.61218689 288.8799292 227.07448669 288.23503113 226.52049255 C287.61588837 225.98827087 286.99674561 225.45604919 286.35884094 224.90769958 C280.24215535 219.70881431 274.04440023 215.42948872 266.70329285 212.13768005 C264.97296814 211.35650818 264.97296814 211.35650818 263.20768738 210.55955505 C262.33740906 210.1728363 261.46713074 209.78611755 260.57048035 209.38768005 C260.56809199 208.75653636 260.56570364 208.12539267 260.56324291 207.47512341 C260.50414006 192.12712618 260.42862054 176.7793112 260.33476543 161.4314909 C260.28977506 154.00943101 260.25036799 146.58741945 260.2240448 139.16526794 C260.20109083 132.69708715 260.16772225 126.2290589 260.12177879 119.76099902 C260.09781113 116.33529912 260.07910572 112.90975061 260.07286644 109.48396873 C260.06571108 105.66223416 260.03530703 101.84087961 260.00285339 98.01927185 C260.00500603 96.31023933 260.00500603 96.31023933 260.00720215 94.56668091 C259.98839493 93.0080835 259.98839493 93.0080835 259.96920776 91.41799927 C259.9645988 90.51372035 259.95998983 89.60944143 259.9552412 88.67776012 C259.48954514 85.90595718 258.84248603 85.00942031 256.57048035 83.38768005 C251.96145188 82.80029945 251.96145188 82.80029945 247.87665081 84.60621357 C246.16119405 86.94589955 246.186974 88.37718548 246.17175293 91.2661438 C246.15921478 92.27155212 246.14667664 93.27696045 246.13375854 94.31283569 C246.13519363 95.41478775 246.13662872 96.51673981 246.1381073 97.65208435 C246.12791565 98.81319733 246.117724 99.9743103 246.10722351 101.17060852 C246.076971 105.01775358 246.06780862 108.86465017 246.0587616 112.7118988 C246.04192399 115.37563879 246.02392142 118.03934525 246.00436401 120.70306396 C245.96066857 127.00343812 245.93214042 133.30378633 245.90904063 139.60426599 C245.8793535 147.48072243 245.82945795 155.35703392 245.77946472 163.23338318 C245.69036632 177.28477166 245.63187802 191.33608259 245.57048035 205.38768005 C226.10048035 205.38768005 206.63048035 205.38768005 186.57048035 205.38768005 C186.5446991 198.18697693 186.51891785 190.9862738 186.49235535 183.56736755 C186.46716401 178.98269744 186.44081337 174.3980918 186.4103241 169.8134613 C186.36212865 162.54995043 186.31803153 155.28658895 186.29948425 148.02293396 C186.28424685 142.16127504 186.24967612 136.30000922 186.20217133 130.43852615 C186.18743033 128.21168069 186.17944356 125.98477907 186.1785965 123.75788498 C186.16377915 104.32122097 184.30271341 87.50358942 170.38298035 72.57518005 C159.27085163 62.14454475 146.10901931 57.30336713 131.05342102 57.22946167 C130.3173386 57.22452369 129.58125618 57.21958572 128.82286823 57.2144981 C126.36781011 57.19919666 123.91277799 57.19078254 121.45768738 57.18235779 C119.69327569 57.17277348 117.92886627 57.16276307 116.16445923 57.15235901 C111.38192375 57.12536383 106.59937846 57.10432514 101.81680918 57.08435702 C96.81597011 57.06246419 91.81516111 57.03509165 86.81434631 57.00830078 C77.34787454 56.95841845 67.88138603 56.91346309 58.41488159 56.87027842 C47.63620941 56.82086791 36.8575674 56.76596393 26.07892442 56.71059883 C3.90947118 56.59684725 -18.26001087 56.48999337 -40.42951965 56.38768005 C-40.57702475 52.30473896 -40.6643193 48.22249863 -40.74201965 44.13768005 C-40.78391418 42.9981488 -40.82580872 41.85861755 -40.86897278 40.68455505 C-41.04267292 28.456065 -37.24417896 19.26976254 -28.7537384 10.51268005 C-20.43632579 2.90818853 -11.15263333 -0.08081587 0 0 Z " fill="#FEFEFE" transform="translate(204.4295196533203,14.612319946289063)"/>
<path d="M0 0 C0.89604456 -0.00523668 1.79208912 -0.01047336 2.71528655 -0.01586872 C5.70043979 -0.03080095 8.68542059 -0.03157238 11.67060852 -0.03224182 C13.81815884 -0.03986789 15.96570644 -0.04829616 18.11325073 -0.0574646 C23.93578354 -0.07937301 29.75826383 -0.08820367 35.5808332 -0.09329104 C39.22264522 -0.09693912 42.86444358 -0.10318156 46.50625038 -0.11029243 C59.22315192 -0.13477481 71.94001275 -0.14783609 84.65693665 -0.15138245 C96.49144556 -0.15501612 108.32569488 -0.18490282 120.16012448 -0.22678703 C130.33620992 -0.26153329 140.5122095 -0.27693164 150.68835384 -0.27762848 C156.75911794 -0.27841984 162.8296175 -0.28709418 168.90032005 -0.31562614 C174.61403699 -0.34188066 180.3272714 -0.34397051 186.04102135 -0.3279705 C188.13029028 -0.32616187 190.21958744 -0.33279337 192.30879593 -0.34878922 C208.48613114 -0.46503352 221.17492486 1.25608003 233.41401672 12.82493591 C239.57077765 19.33928649 243.90488101 28.55676655 243.89364624 37.58952332 C243.89570824 38.87251564 243.89570824 38.87251564 243.89781189 40.181427 C243.89421661 41.11147049 243.89062134 42.04151398 243.88691711 42.9997406 C243.88706314 43.98543533 243.88720917 44.97113007 243.88735962 45.98669434 C243.88666308 49.24399518 243.87888275 52.50123881 243.87104797 55.75852966 C243.86918288 58.01725737 243.86775941 60.27598549 243.86676025 62.53471375 C243.86294232 68.47934588 243.85311817 74.42395357 243.84205627 80.36857605 C243.83182663 86.43475514 243.8272593 92.50093818 243.82221985 98.56712341 C243.81149528 110.4694779 243.7944275 122.37181425 243.77339172 134.27415466 C235.16644024 134.3908948 226.55982901 134.47929237 217.95227718 134.53321552 C213.95380279 134.55911867 209.95587679 134.5941544 205.9577179 134.65135193 C202.08673414 134.70637258 198.21627196 134.73571942 194.34492683 134.74854088 C192.88075632 134.75765715 191.41660871 134.77545199 189.95266533 134.80280495 C175.07204425 135.06934259 162.4369684 131.93548401 150.77339172 122.27415466 C150.26542053 121.90322693 149.75744934 121.53229919 149.23408508 121.15013123 C143.71461999 116.88419694 140.21810044 111.47057804 136.46647644 105.65229797 C135.31244342 103.8627945 134.14536918 102.08242507 132.97480774 100.30369568 C130.95779817 97.23476721 128.95144623 94.15905444 126.94880676 91.08073425 C123.71766986 86.11456844 120.46918225 81.16005353 117.21089172 76.21165466 C116.59351135 75.25662048 115.97613098 74.3015863 115.34004211 73.31761169 C104.0335419 56.13876666 89.58003199 44.13995123 69.21452332 39.71862793 C64.49889613 39.10953462 59.83684292 39.09623767 55.08638 39.0688324 C54.02236465 39.0589328 52.9583493 39.0490332 51.86209106 39.03883362 C48.35598451 39.00732419 44.84986443 38.98250295 41.34370422 38.95774841 C38.90846918 38.93716977 36.47323763 38.91617306 34.03800964 38.89477539 C27.63641702 38.83964875 21.23479265 38.79019801 14.83314514 38.7419281 C8.29757369 38.69164434 1.76204818 38.63599418 -4.77348328 38.58079529 C-17.59115208 38.4733288 -30.40886014 38.37167604 -43.22660828 38.27415466 C-43.07875265 36.8273178 -42.9272575 35.38085254 -42.7742157 33.93455505 C-42.69024033 33.12901688 -42.60626495 32.3234787 -42.51974487 31.49353027 C-41.26551567 21.99759653 -34.31481672 13.44274963 -27.07426453 7.58665466 C-18.78427333 1.69778142 -9.99345947 -0.02929585 0 0 Z " fill="#FCFCFC" transform="translate(132.2266082763672,85.72584533691406)"/>
<path d="M0 0 C0.8494368 -0.00014603 1.6988736 -0.00029205 2.5740509 -0.0004425 C5.36596277 0.00025102 8.1578069 0.00801713 10.94970703 0.01586914 C12.89169274 0.01773531 14.83367893 0.01915827 16.77566528 0.02015686 C21.87525747 0.02396637 26.97482097 0.03378326 32.07440186 0.04486084 C37.28283297 0.05510866 42.49126873 0.0596617 47.69970703 0.06469727 C57.91065914 0.07540696 68.12158245 0.09299105 78.33251953 0.11352539 C78.00251953 9.35352539 77.67251953 18.59352539 77.33251953 28.11352539 C64.64501953 28.42602539 64.64501953 28.42602539 60.73217773 28.50146484 C42.8256346 29.05879837 28.79179601 33.93135574 16.33251953 47.11352539 C8.56844447 56.57320305 5.11270541 65.14853488 3.72705078 77.26977539 C3.33251953 80.11352539 3.33251953 80.11352539 2.33251953 81.11352539 C0.66172716 81.20918144 -1.00972874 81.29814925 -2.68237305 81.35253906 C-22.62729068 82.04713818 -37.34085925 89.39281222 -52.30908203 102.23266602 C-52.93832581 102.77234009 -53.56756958 103.31201416 -54.21588135 103.86804199 C-54.93442291 104.48455627 -54.93442291 104.48455627 -55.66748047 105.11352539 C-55.73753659 97.77584876 -55.79057001 90.43824632 -55.82291698 83.10030079 C-55.83845578 79.69158275 -55.8594728 76.28309645 -55.89379883 72.87451172 C-55.93316631 68.93988999 -55.94728695 65.00535626 -55.96044922 61.07055664 C-55.97593307 59.86897415 -55.99141693 58.66739166 -56.00737 57.42939758 C-56.01061251 40.82678241 -51.59647263 27.51676548 -40.07373047 15.39868164 C-28.77390173 4.66751311 -15.40944148 -0.06995607 0 0 Z " fill="#FCFCFC" transform="translate(71.66748046875,42.886474609375)"/>
<path d="M0 0 C1.12721466 -0.0112793 2.25442932 -0.02255859 3.415802 -0.03417969 C4.64813568 -0.02608276 5.88046936 -0.01798584 7.15014648 -0.00964355 C9.10185257 -0.02015747 9.10185257 -0.02015747 11.09298706 -0.03088379 C14.65917239 -0.0491153 18.22489471 -0.04205071 21.7910881 -0.02936745 C25.52349849 -0.01923872 29.2558693 -0.02863276 32.98828125 -0.03491211 C39.2561759 -0.04218892 45.52388202 -0.03260007 51.79174805 -0.0135498 C59.03778855 0.00821918 66.28337886 0.00116782 73.52940845 -0.02085543 C79.75119537 -0.0390086 85.97284677 -0.04156821 92.1946516 -0.03110075 C95.91045193 -0.02486529 99.62604067 -0.0240314 103.34182739 -0.0372467 C107.48393405 -0.05094926 111.62526489 -0.03195704 115.76733398 -0.00964355 C117.6158345 -0.02178894 117.6158345 -0.02178894 119.50167847 -0.03417969 C120.62889313 -0.02290039 121.75610779 -0.01162109 122.91748047 0 C123.8967601 0.0015081 124.87603973 0.0030162 125.88499451 0.00457001 C129.21794229 0.65641676 130.4045468 1.84778758 132.45874023 4.50793457 C133.02124023 8.00793457 133.02124023 8.00793457 132.45874023 11.50793457 C130.25468757 14.27651115 128.39710229 15.37416364 124.88635063 15.87464905 C121.50000855 16.03138269 118.13556806 16.04802257 114.74560547 16.0255127 C113.45407562 16.03252197 112.16254578 16.03953125 110.83187866 16.04675293 C107.29674166 16.06496073 103.76207251 16.05793015 100.22692752 16.04523659 C96.52521949 16.03509771 92.82355106 16.04450452 89.12184143 16.05078125 C82.90700092 16.05805419 76.69235068 16.04847841 70.47753906 16.02941895 C63.29339249 16.00764112 56.10969984 16.01470928 48.92556423 16.03672457 C42.75471183 16.05487735 36.58399605 16.05743784 30.41312557 16.04696989 C26.72863864 16.04073544 23.04436509 16.03989796 19.35989189 16.05311584 C15.25381457 16.06681799 11.14851989 16.04782691 7.04248047 16.0255127 C5.82106857 16.03360962 4.59965668 16.04170654 3.3412323 16.05004883 C2.22387695 16.03876953 1.10652161 16.02749023 -0.04469299 16.01586914 C-1.01529946 16.01436104 -1.98590593 16.01285294 -2.98592472 16.01129913 C-6.30535767 15.35741818 -7.49571561 14.1586277 -9.54125977 11.50793457 C-10.04125977 8.00793457 -10.04125977 8.00793457 -9.54125977 4.50793457 C-6.63867078 0.74041492 -4.68961234 0.00722206 0 0 Z " fill="#010101" transform="translate(68.541259765625,293.4920654296875)"/>
<path d="M0 0 C1.67603302 -0.01691895 1.67603302 -0.01691895 3.38592529 -0.03417969 C4.60733719 -0.02608276 5.82874908 -0.01798584 7.08717346 -0.00964355 C8.37695099 -0.01665283 9.66672852 -0.02366211 10.99559021 -0.03088379 C14.53085326 -0.04911572 18.06564925 -0.04205008 21.60092044 -0.02936745 C25.3021665 -0.01923677 29.00337272 -0.0286335 32.70462036 -0.03491211 C38.92124099 -0.04218926 45.13767154 -0.03260012 51.35426331 -0.0135498 C58.53780122 0.00820969 65.72088486 0.00117487 72.90441173 -0.02085543 C79.07441035 -0.03901905 85.24427234 -0.04156281 91.41428906 -0.03110075 C95.09826383 -0.02486981 98.78202525 -0.02401879 102.46598625 -0.0372467 C106.57436301 -0.05096797 110.68195939 -0.03193997 114.79029846 -0.00964355 C116.00968613 -0.01774048 117.22907379 -0.0258374 118.4854126 -0.03417969 C126.67738698 0.04830715 126.67738698 0.04830715 130.7628479 2.3215332 C132.50343323 4.50793457 132.50343323 4.50793457 133.06593323 8.00793457 C132.41174857 12.07841689 131.68861439 13.00932382 128.50343323 15.50793457 C125.9296875 16.01129913 125.9296875 16.01129913 122.96217346 16.01586914 C121.8349588 16.02714844 120.70774414 16.03842773 119.54637146 16.05004883 C118.31403778 16.0419519 117.0817041 16.03385498 115.81202698 16.0255127 C114.51088959 16.03252197 113.2097522 16.03953125 111.8691864 16.04675293 C108.30300108 16.06498444 104.73727875 16.05791985 101.17108536 16.04523659 C97.43867497 16.03510786 93.70630416 16.0445019 89.97389221 16.05078125 C83.70599756 16.05805806 77.43829144 16.04846921 71.17042542 16.02941895 C63.92438491 16.00764996 56.6787946 16.01470132 49.43276501 16.03672457 C43.2109781 16.05487775 36.9893267 16.05743735 30.76752186 16.04696989 C27.05172153 16.04073443 23.33613279 16.03990054 19.62034607 16.05311584 C15.47823941 16.0668184 11.33690857 16.04782618 7.19483948 16.0255127 C5.9625058 16.03360962 4.73017212 16.04170654 3.460495 16.05004883 C1.769673 16.03312988 1.769673 16.03312988 0.04469299 16.01586914 C-0.93458664 16.01436104 -1.91386627 16.01285294 -2.92282104 16.01129913 C-6.25576795 15.35945255 -7.44520669 14.17057108 -9.49656677 11.50793457 C-9.99656677 8.00793457 -9.99656677 8.00793457 -9.49656677 4.50793457 C-6.60402419 0.759669 -4.67103645 0.00725773 0 0 Z " fill="#020202" transform="translate(68.49656677246094,265.4920654296875)"/>
<path d="M0 0 C2.64102559 2.37015117 3.8848657 3.82835322 4.23535156 7.39501953 C3.97123705 10.31836173 3.24306416 11.95124517 1.796875 14.4921875 C1.07733643 15.77947754 1.07733643 15.77947754 0.34326172 17.09277344 C-0.18251465 18.0109082 -0.70829102 18.92904297 -1.25 19.875 C-2.35877904 21.85564796 -3.46548694 23.83745653 -4.5703125 25.8203125 C-5.14040039 26.8402832 -5.71048828 27.86025391 -6.29785156 28.91113281 C-8.9977204 33.81055056 -11.5599412 38.77907272 -14.125 43.75 C-17.86444093 50.95736725 -21.64791048 58.13600034 -25.5625 65.25 C-25.96807129 65.99475586 -26.37364258 66.73951172 -26.79150391 67.50683594 C-30.2271227 73.69532634 -30.2271227 73.69532634 -33 76 C-36.390625 76.4765625 -36.390625 76.4765625 -40 76 C-42.484375 74.0859375 -42.484375 74.0859375 -44.75 71.375 C-45.59820312 70.37339844 -46.44640625 69.37179688 -47.3203125 68.33984375 C-48.21702232 67.22936413 -49.11015849 66.11599085 -50 65 C-50.45987305 64.42781738 -50.91974609 63.85563477 -51.39355469 63.26611328 C-54.2016535 59.75939058 -56.96145484 56.21738409 -59.70703125 52.66162109 C-62.27062189 49.36709733 -64.9092209 46.1323073 -67.5390625 42.890625 C-70.14272705 39.52117675 -70.42469159 37.24691589 -70 33 C-68.375 30.625 -68.375 30.625 -66 29 C-62.37700337 28.38331972 -60.70483306 28.51916547 -57.65234375 30.6015625 C-54.51453433 33.43899252 -52.04838591 36.5128438 -49.5 39.875 C-48.57379377 41.08140307 -47.64671656 42.28713796 -46.71875 43.4921875 C-46.27144531 44.07709961 -45.82414062 44.66201172 -45.36328125 45.26464844 C-44.00572206 46.99271627 -42.59104242 48.65615538 -41.15625 50.3203125 C-39 53 -39 53 -39 55 C-38.34 55 -37.68 55 -37 55 C-36.72397949 54.11892578 -36.44795898 53.23785156 -36.16357422 52.33007812 C-35.09871132 49.28250574 -33.87552586 46.57492381 -32.3828125 43.71875 C-31.86380371 42.72174072 -31.34479492 41.72473145 -30.81005859 40.69750977 C-30.25398926 39.64233154 -29.69791992 38.58715332 -29.125 37.5 C-28.55217285 36.4080835 -27.9793457 35.31616699 -27.38916016 34.19116211 C-25.59977831 30.79035477 -23.80118098 27.39457099 -22 24 C-21.42701172 22.91605957 -20.85402344 21.83211914 -20.26367188 20.71533203 C-18.64380909 17.65908455 -17.01207879 14.60955428 -15.375 11.5625 C-14.87887207 10.62792969 -14.38274414 9.69335938 -13.87158203 8.73046875 C-13.40606934 7.87195313 -12.94055664 7.0134375 -12.4609375 6.12890625 C-11.85451416 5.00077515 -11.85451416 5.00077515 -11.23583984 3.84985352 C-8.30046271 -0.54393403 -4.88700268 -0.60015822 0 0 Z " fill="#040404" transform="translate(352,124)"/>
</svg>
