<?xml version="1.0" encoding="UTF-8"?>
<svg version="1.1" xmlns="http://www.w3.org/2000/svg" width="512" height="512">
<path d="M0 0 C1.09732549 -0.00445668 1.09732549 -0.00445668 2.21681917 -0.0090034 C4.66314299 -0.01766071 7.1094177 -0.01919614 9.55575562 -0.02069092 C11.31202295 -0.02532127 13.06828928 -0.03034623 14.82455444 -0.03573608 C19.59343952 -0.048843 24.36231053 -0.05530196 29.1312108 -0.05974674 C32.11350092 -0.06268083 35.09578722 -0.06678632 38.07807541 -0.07125092 C47.41715496 -0.08492268 56.75622576 -0.09459034 66.09531462 -0.09845281 C76.8602663 -0.1029299 87.62509078 -0.12046295 98.3900038 -0.1494534 C106.72057116 -0.17110573 115.05110283 -0.18115902 123.38169801 -0.18249393 C128.35244222 -0.1835396 133.32306681 -0.18939664 138.29378128 -0.20731354 C142.9740089 -0.2238552 147.65402776 -0.22592026 152.33427429 -0.21717453 C154.04542477 -0.21640735 155.75658675 -0.22070443 157.46770859 -0.23063278 C171.5636921 -0.30757821 183.5706257 0.80532734 194.38925171 10.64044189 C195.13175171 11.46544189 195.87425171 12.29044189 196.63925171 13.14044189 C197.31987671 13.88294189 198.00050171 14.62544189 198.70175171 15.39044189 C203.83842429 22.68120297 205.79576091 29.83048567 205.75950623 38.64477539 C205.76078786 39.78308772 205.76078786 39.78308772 205.76209539 40.94439626 C205.76374321 43.48860992 205.75824022 46.03275773 205.7527771 48.57696533 C205.75249505 50.40019224 205.75265331 52.22341927 205.7532196 54.04664612 C205.75350689 58.99874058 205.74762122 63.9508109 205.74064565 68.90289974 C205.73440071 74.07723303 205.7338074 79.25156685 205.73262024 84.42590332 C205.7295103 94.22537361 205.72130142 104.02483276 205.71127075 113.82429814 C205.70009918 124.98016263 205.69459653 136.13602765 205.68957531 147.29189634 C205.67911855 170.2414177 205.6615256 193.19092918 205.63925171 216.14044189 C206.32595947 216.33991928 207.01266724 216.53939667 207.72018433 216.74491882 C208.62095703 217.0100679 209.52172974 217.27521698 210.44979858 217.54840088 C211.34275635 217.80975327 212.23571411 218.07110565 213.1557312 218.34037781 C226.36130868 222.59454372 236.63360349 234.28845712 242.82174683 246.26312256 C250.32503061 261.83532266 249.23554494 278.84630793 249.17655373 295.70784187 C249.16629439 299.56669308 249.17585472 303.42550974 249.18209839 307.28436279 C249.18933773 313.75973443 249.17988557 320.23492247 249.16073608 326.71026611 C249.13897443 334.15399121 249.14602846 341.59727777 249.16804171 349.04099226 C249.18630255 355.47806739 249.18870231 361.91501195 249.17828703 368.35210466 C249.17211028 372.17653603 249.171053 376.00076256 249.18443298 379.82518005 C249.25501413 403.23650873 248.95965737 425.12589095 231.79550171 443.14825439 C217.27511569 456.56382844 200.06087193 460.61936695 180.74440002 460.52812195 C179.28439992 460.53230457 177.82440306 460.53778713 176.36441213 460.54444176 C172.38845038 460.55879363 168.41269772 460.55468409 164.43672502 460.54727495 C160.1346111 460.54251991 155.83254091 460.5550737 151.53044128 460.56529236 C143.11598295 460.58244052 134.70159943 460.58332861 126.28712817 460.57807945 C119.44355559 460.57402885 112.60000502 460.57549187 105.75643349 460.58082771 C104.78033654 460.58157614 103.8042396 460.58232456 102.79856396 460.58309566 C100.8152576 460.58462723 98.83195124 460.58616557 96.84864489 460.58771063 C78.27215197 460.60142143 59.69570122 460.59600812 41.11920927 460.58452541 C24.14970434 460.57459597 7.1803085 460.58753126 -9.7891796 460.61145961 C-27.24159127 460.63588222 -44.6939522 460.64545062 -62.1463806 460.63880688 C-71.93330571 460.6353215 -81.72014697 460.63750154 -91.5070591 460.65505791 C-99.83892255 460.66981955 -108.17064314 460.67036381 -116.50250391 460.652987 C-120.74759947 460.64450687 -124.99244022 460.64225368 -129.23752213 460.65763855 C-133.13438028 460.67158572 -137.03076777 460.66659569 -140.92759939 460.64739931 C-142.32654279 460.64366941 -143.72552482 460.64647287 -145.1244335 460.65701097 C-163.42707056 460.78492544 -180.8144428 456.20537569 -194.36856079 443.29669189 C-209.75512961 426.64299388 -211.81927836 407.63143771 -211.74893188 386.04278564 C-211.75300374 383.93390634 -211.75834905 381.82502918 -211.76486206 379.71615601 C-211.77846835 374.02196586 -211.77326472 368.32793989 -211.7637248 362.6337471 C-211.75609343 356.65542429 -211.76318344 350.6771149 -211.7678833 344.6987915 C-211.77333075 334.66206354 -211.76617579 324.62540195 -211.75186157 314.58868408 C-211.73553706 303.00917841 -211.74082628 291.42983124 -211.75734079 279.8503294 C-211.77098448 269.88220463 -211.77286123 259.91412738 -211.76502478 249.94599628 C-211.76036411 244.00393898 -211.75967907 238.061956 -211.76963425 232.11990356 C-211.77834365 226.53177398 -211.77220969 220.94384741 -211.75495148 215.35573959 C-211.7510078 213.31324474 -211.75208404 211.2707326 -211.75873947 209.22824478 C-211.81844759 189.03187427 -209.09602295 171.44744527 -194.69522095 156.20465088 C-188.63138536 150.14390803 -177.50029029 141.14044189 -168.36074829 141.14044189 C-168.36963074 140.58857712 -168.37851318 140.03671234 -168.38766479 139.46812439 C-168.47679819 133.67597917 -168.53675335 127.88403168 -168.58047485 122.09136963 C-168.6004752 119.93536452 -168.62768453 117.77941286 -168.6625061 115.62359619 C-168.71153682 112.50798277 -168.73383343 109.39309218 -168.75137329 106.27716064 C-168.77201843 105.32774094 -168.79266357 104.37832123 -168.81393433 103.40013123 C-168.81745777 92.66942646 -165.24990591 83.40568856 -157.92324829 75.51544189 C-156.65481079 74.33981689 -156.65481079 74.33981689 -155.36074829 73.14044189 C-154.63887329 72.45981689 -153.91699829 71.77919189 -153.17324829 71.07794189 C-144.77778258 65.29439885 -136.00607668 63.98588187 -126.07241821 64.0269165 C-125.14509888 64.02677048 -124.21777954 64.02662445 -123.26235962 64.026474 C-120.20528808 64.0271692 -117.1482779 64.03494325 -114.09121704 64.04278564 C-111.96844008 64.04465122 -109.84566268 64.04607446 -107.72288513 64.04707336 C-102.14158943 64.05088757 -96.56031983 64.06070851 -90.97903442 64.07177734 C-85.28140618 64.08201503 -79.58377371 64.08657604 -73.88613892 64.09161377 C-62.71099725 64.10233175 -51.53587494 64.11939502 -40.36074829 64.14044189 C-40.38169556 63.19837891 -40.40264282 62.25631592 -40.42422485 61.28570557 C-40.49302318 57.73889076 -40.54284643 54.19280054 -40.58047485 50.64556885 C-40.6004014 49.1200633 -40.62755314 47.59463221 -40.6625061 46.06939697 C-40.96122067 32.68434873 -39.4554761 21.780918 -29.92324829 11.51544189 C-29.07762329 10.73169189 -28.23199829 9.94794189 -27.36074829 9.14044189 C-26.63887329 8.45981689 -25.91699829 7.77919189 -25.17324829 7.07794189 C-17.46902963 1.77059126 -9.2195841 0.02095946 0 0 Z M-6.27360535 34.48232079 C-7.9969768 37.11082387 -7.6958253 39.45643556 -7.65371704 42.55841064 C-7.64404907 43.81202393 -7.6343811 45.06563721 -7.62442017 46.35723877 C-7.59928345 47.6675708 -7.57414673 48.97790283 -7.54824829 50.32794189 C-7.53319796 51.66321353 -7.51951016 52.99850126 -7.50723267 54.33380127 C-7.47182523 57.60308766 -7.42243719 60.87156282 -7.36074829 64.14044189 C-6.58559875 64.14630814 -5.81044922 64.15217438 -5.0118103 64.15821838 C2.34273246 64.2164548 9.69694832 64.28870429 17.05119705 64.37615681 C20.83085186 64.42062249 24.61040476 64.45992866 28.39022827 64.48687744 C32.04739307 64.51315101 35.70416054 64.55371647 39.36107635 64.60362816 C40.74665074 64.62013624 42.13229359 64.63174934 43.51795197 64.6380558 C59.21995289 64.71665279 74.1283723 67.62956249 85.63925171 79.14044189 C92.33636412 87.38644594 97.71160079 96.99138275 97.79747009 107.83544922 C97.80725891 108.77491898 97.81704773 109.71438873 97.82713318 110.68232727 C97.83288864 111.70587814 97.8386441 112.72942902 97.84457397 113.78399658 C97.85447357 114.86722702 97.86437317 115.95045746 97.87457275 117.06651306 C97.90617046 120.64842541 97.93093848 124.23035102 97.95565796 127.81231689 C97.97622897 130.29525091 97.99722548 132.77818144 98.01863098 135.2611084 C98.06819326 141.12937732 98.11346255 146.99766709 98.15665334 152.86598611 C98.21959295 161.37613031 98.29121375 169.88620221 98.36177826 178.39628601 C98.45976855 190.31096945 98.5486379 202.22568978 98.63925171 214.14044189 C123.05925171 214.14044189 147.47925171 214.14044189 172.63925171 214.14044189 C172.70691717 190.98393396 172.76220343 167.8275058 172.79468822 144.67092419 C172.81017096 133.91943516 172.83128731 123.16801181 172.86557007 112.41656494 C172.89542941 103.04790066 172.91481647 93.67928394 172.92151719 84.3105734 C172.92543534 79.3478245 172.93467262 74.3852117 172.95644188 69.42250633 C172.97675234 64.75469398 172.98309657 60.08707422 172.97857475 55.41922188 C172.9794024 53.70309784 172.98540038 51.98696758 172.99686813 50.27088165 C173.01172743 47.93327319 173.00822979 45.59639817 173.00001526 43.2587738 C173.00278064 41.94890597 173.00554602 40.63903814 173.0083952 39.28947735 C172.85689273 36.23471715 172.85689273 36.23471715 171.55084705 34.21935558 C168.60294824 32.55554719 166.06037922 32.76247482 162.69296265 32.75949097 C161.62648561 32.75247101 161.62648561 32.75247101 160.53846359 32.74530923 C158.14999631 32.73331878 155.76209851 32.74283192 153.37362671 32.7522583 C151.66378443 32.74819439 149.95394477 32.74285352 148.24411011 32.73632812 C143.59540901 32.72262725 138.94690719 32.72796457 134.29820251 32.73746538 C129.43889824 32.74504765 124.57961132 32.73802036 119.7203064 32.73330688 C111.55914234 32.72784515 103.39805967 32.73505191 95.23690796 32.74932861 C85.79435581 32.76565593 76.35199797 32.76036771 66.90945053 32.7438494 C58.8100302 32.73024643 50.71066845 32.72830904 42.61124039 32.7361654 C37.77040674 32.74084848 32.92966449 32.7414494 28.08883667 32.73155594 C23.5383136 32.72290583 18.98804165 32.72887224 14.43754578 32.74623871 C12.76497312 32.75021404 11.09237942 32.74905169 9.41981506 32.74245071 C7.14143587 32.73428616 4.86386788 32.74449415 2.58554077 32.75949097 C1.30906677 32.76062204 0.03259277 32.76175312 -1.28256226 32.76291847 C-4.32414289 32.89101284 -4.32414289 32.89101284 -6.27360535 34.48232079 Z M-134.30207825 98.41836929 C-136.24935463 101.58588247 -135.72039542 105.35771836 -135.65371704 108.96466064 C-135.6494722 109.82606155 -135.64522736 110.68746246 -135.64085388 111.57496643 C-135.62406077 114.3262762 -135.58640785 117.07685352 -135.54824829 119.82794189 C-135.53320225 121.69316569 -135.5195137 123.55840097 -135.50723267 125.42364502 C-135.47415522 129.99619287 -135.42236889 134.5681932 -135.36074829 139.14044189 C-134.70182461 139.14283025 -134.04290092 139.1452186 -133.36400986 139.14767933 C-117.28683035 139.20696878 -101.20982182 139.2826072 -85.13280869 139.37615681 C-77.35789094 139.42100882 -69.58301792 139.46044752 -61.80801392 139.48687744 C-55.02662199 139.50994376 -48.24537287 139.54343706 -41.4640944 139.58914346 C-37.87770148 139.61296008 -34.29144897 139.63176415 -30.70497894 139.6380558 C-26.68866568 139.64529779 -22.67283726 139.67583204 -18.65664673 139.70806885 C-16.89796768 139.70591621 -16.89796768 139.70591621 -15.10375977 139.70372009 C1.52600098 139.89150684 16.62289166 145.41526989 28.63925171 157.14044189 C35.36060073 164.84084176 40.93646953 173.4333875 46.65951538 181.88165283 C50.41509275 187.40870801 54.27126084 192.8447682 58.26425171 198.20294189 C58.76102417 198.87559082 59.25779663 199.54823975 59.7696228 200.24127197 C61.91074878 203.08633487 63.65061014 205.14801418 66.63925171 207.14044189 C66.70888586 195.03983762 66.76213112 182.93928133 66.79468822 170.83851719 C66.81031717 165.21911585 66.83150489 159.59985201 66.86557007 153.98052979 C66.89826222 148.55348809 66.91612556 143.12657832 66.92388344 137.69944572 C66.92940926 135.63308576 66.94019975 133.56673268 66.95644188 131.50042915 C66.97834707 128.59715522 66.98121316 125.69442047 66.97982788 122.79107666 C66.99061371 121.94446472 67.00139954 121.09785278 67.01251221 120.22558594 C66.97926459 113.74936518 66.06006574 107.17746313 61.92050171 101.98419189 C61.33268921 101.54075439 60.74487671 101.09731689 60.13925171 100.64044189 C59.55143921 100.17637939 58.96362671 99.71231689 58.35800171 99.23419189 C54.49039884 96.77299007 50.64490056 96.99464321 46.23739624 97 C45.47740892 96.99702888 44.71742161 96.99405776 43.93440437 96.9909966 C41.38027991 96.98230437 38.8262023 96.98080093 36.27206421 96.97930908 C34.44399922 96.9746814 32.6159352 96.96965681 30.78787231 96.96426392 C25.81693305 96.95113598 20.8460073 96.94469458 15.87505341 96.94025326 C12.7718945 96.93732411 9.66873931 96.93321968 6.56558228 96.92874908 C-3.13656408 96.91507519 -12.83870199 96.90540712 -22.54085732 96.90154719 C-33.75417084 96.89706187 -44.96736274 96.87949155 -56.18063927 96.8505466 C-64.84055013 96.82896545 -73.50042667 96.81884488 -82.16036415 96.81750607 C-87.33656104 96.81645579 -92.51264359 96.8105003 -97.68881226 96.79268646 C-102.55448158 96.77626661 -107.41994984 96.77402048 -112.2856369 96.78282547 C-114.07432339 96.78359903 -115.86302043 96.77921138 -117.65167999 96.76936722 C-120.08766047 96.75674332 -122.52291842 96.76247166 -124.95889282 96.77294922 C-125.67182432 96.76489281 -126.38475582 96.75683641 -127.11929131 96.74853587 C-129.94303606 96.77707429 -131.90872436 96.84288621 -134.30207825 98.41836929 Z M-173.36074829 182.14044189 C-177.64931135 188.76485054 -178.50964432 194.73457682 -178.50119019 202.53330994 C-178.50416131 203.38792354 -178.50713243 204.24253714 -178.51019359 205.12304813 C-178.51887721 207.99173028 -178.52038856 210.86037068 -178.5218811 213.72906494 C-178.52650955 215.7839924 -178.53153425 217.838919 -178.53692627 219.8938446 C-178.5500506 225.48081039 -178.55649542 231.06776416 -178.56093693 236.65474296 C-178.5638679 240.14573882 -178.56797278 243.63673139 -178.5724411 247.1277256 C-178.58611678 258.05152645 -178.59578281 268.9753198 -178.59964299 279.89912862 C-178.60412256 292.50638879 -178.62166554 305.11354049 -178.65064359 317.72076768 C-178.67226729 327.46698277 -178.68234766 337.21316737 -178.68368411 346.9594062 C-178.68473174 352.77964275 -178.69063056 358.59977734 -178.70850372 364.41998863 C-178.72499598 369.89716097 -178.72713421 375.37415482 -178.71836472 380.85134315 C-178.71759494 382.85843001 -178.72192924 384.8655265 -178.73182297 386.87258911 C-178.74456637 389.61948916 -178.73865264 392.36575934 -178.72824097 395.11265564 C-178.73629737 395.90081073 -178.74435378 396.68896582 -178.75265431 397.5010044 C-178.67977239 405.76224631 -176.36566868 414.19230562 -170.36074829 420.14044189 C-163.45289295 425.18192446 -157.88193286 427.26172772 -149.33580399 427.27186966 C-148.11917737 427.2757108 -146.90255076 427.27955195 -145.64905667 427.28350949 C-144.30224174 427.28272931 -142.95542687 427.28185053 -141.60861206 427.28088379 C-140.17527968 427.28346831 -138.74194802 427.28648171 -137.30861735 427.28988719 C-133.36953831 427.29795017 -129.4304775 427.29974637 -125.49139118 427.30048466 C-121.24313685 427.30233642 -116.99489194 427.30988434 -112.74664307 427.31661987 C-103.45737621 427.33019843 -94.16811367 427.33622708 -84.87883854 427.34063053 C-79.07838156 427.34339359 -73.27792625 427.34763104 -67.4774704 427.3521347 C-51.41688263 427.36432642 -35.35629619 427.37462614 -19.29570389 427.3780098 C-18.26791484 427.37822936 -17.24012578 427.37844893 -16.18119161 427.37867515 C-14.63582821 427.37900256 -14.63582821 427.37900256 -13.05924535 427.3793366 C-10.97159529 427.37978006 -8.88394523 427.38022662 -6.79629517 427.38067627 C-5.76074953 427.3808977 -4.72520389 427.38111913 -3.65827808 427.38134727 C13.1224467 427.38529556 29.90312807 427.40275096 46.68383607 427.42603579 C63.91333863 427.44975037 81.14281939 427.46221168 98.37233853 427.46337771 C108.04569186 427.46429438 117.71898861 427.47004463 127.39232635 427.48819733 C135.62903592 427.50359969 143.86567141 427.50871794 152.10239264 427.50045922 C156.30400105 427.4965533 160.50546029 427.49747953 164.70705032 427.51151657 C168.55628861 427.52425874 172.40526569 427.5230553 176.25450364 427.51092586 C177.64414422 427.50896941 179.03380333 427.51204491 180.4234179 427.52077022 C190.18228466 427.57814733 199.02281012 426.91243323 207.00253296 420.79278564 C213.3175488 414.41748326 215.75300024 407.26187638 215.7796936 398.47460938 C215.78540375 397.3448317 215.79111389 396.21505402 215.79699707 395.05104065 C215.79811493 393.82080673 215.79923279 392.59057281 215.80038452 391.32305908 C215.80534943 390.02005356 215.81031433 388.71704803 215.81542969 387.3745575 C215.82851664 383.80618175 215.83499145 380.2378248 215.83944035 376.66942883 C215.84237722 374.43692716 215.84648319 372.20443056 215.85094452 369.97193146 C215.86461005 362.97790291 215.87428117 355.98388601 215.87814641 348.98984504 C215.88262419 340.93309909 215.90016296 332.87652305 215.92914701 324.81982875 C215.95080741 318.58099421 215.96085302 312.34220733 215.96218753 306.10333562 C215.96323249 302.38236907 215.96907412 298.66156244 215.98700714 294.94063568 C216.0066444 290.78545424 216.00218155 286.63062567 215.99569702 282.47540283 C216.0049118 281.25326584 216.01412659 280.03112885 216.02362061 278.7719574 C215.97213827 268.22380489 214.24731773 260.83997651 206.88925171 253.08966064 C198.66612101 245.96580263 188.76880643 245.99339736 178.42416382 245.99859619 C177.30300171 245.99512177 176.1818396 245.99164734 175.02670288 245.98806763 C172.59590587 245.98072684 170.16510223 245.97537254 167.7342968 245.97177696 C163.8782247 245.96458912 160.0222782 245.94890388 156.16624451 245.93043518 C145.20357093 245.87808295 134.24096436 245.82959514 123.27816772 245.81451416 C116.56672704 245.80518712 109.8556485 245.77497273 103.14431953 245.73319435 C100.59566209 245.72093392 98.0469598 245.71575396 95.49827385 245.71799278 C70.08371282 245.7348207 70.08371282 245.7348207 59.63925171 241.14044189 C58.74757797 240.78378952 57.85590424 240.42713715 56.93721008 240.05967712 C43.33260525 234.40140329 35.10446037 222.18163045 27.19979858 210.43145752 C22.98489593 204.2436217 18.51794166 198.22926659 14.10848999 192.17950439 C12.7594182 190.30721334 11.44230776 188.4172498 10.13534546 186.51544189 C4.91881055 179.11249844 0.23273771 175.00493723 -8.36074829 172.14044189 C-10.34675059 172.04282155 -12.33590243 172.00544831 -14.32429504 172 C-15.57056671 171.99428986 -16.81683838 171.98857971 -18.10087585 171.98269653 C-19.48461904 171.98145117 -20.86836234 171.98032608 -22.25210571 171.97930908 C-23.70753098 171.97468034 -25.16295504 171.9696556 -26.61837769 171.96426392 C-30.57522211 171.95114085 -34.53204956 171.94469481 -38.48891234 171.94025326 C-40.96227417 171.93732157 -43.43563137 171.93321651 -45.90899086 171.92874908 C-53.65106853 171.91507261 -61.39313561 171.90540745 -69.13522452 171.90154719 C-78.06531118 171.89706997 -86.99524452 171.87953834 -95.92528456 171.8505466 C-102.83157322 171.8289055 -109.73781883 171.81884157 -116.64414102 171.81750607 C-120.76695768 171.81645952 -124.88963023 171.81058394 -129.01241112 171.79268646 C-132.89400106 171.77616436 -136.77533925 171.77407022 -140.6569519 171.78282547 C-142.0774891 171.78359371 -143.49804005 171.77928125 -144.91854286 171.76936722 C-156.72198816 171.69185542 -165.19457228 173.0146044 -173.36074829 182.14044189 Z " fill="#FFFFFF" transform="translate(237.36074829101563,25.85955810546875)"/>
<path d="M0 0 C0.6930574 -0.0049649 1.38611481 -0.00992981 2.10017395 -0.01504517 C4.39255773 -0.02964735 6.68487228 -0.03646588 8.97729492 -0.04199219 C10.57289125 -0.0477457 12.16848756 -0.05350341 13.76408386 -0.05926514 C17.11062949 -0.06976991 20.45715114 -0.07561585 23.80371094 -0.07910156 C28.08428318 -0.08458206 32.36453666 -0.10860259 36.64500904 -0.13707352 C39.9419191 -0.15573209 43.2387529 -0.16090723 46.53571129 -0.16243744 C48.11331612 -0.16545776 49.69091981 -0.17346532 51.26847267 -0.18662262 C53.48000691 -0.20374934 55.69076942 -0.20178707 57.90234375 -0.1953125 C59.15904373 -0.19895813 60.41574371 -0.20260376 61.71052551 -0.20635986 C66.13339111 0.26685546 69.52043803 1.64437158 72.78979492 4.69628906 C77.52986793 10.89484608 78.01997092 15.38816616 77.14526367 23.16113281 C74.93675322 28.62529228 71.48051806 30.87288239 66.14526367 33.16113281 C62.66824341 33.55554199 62.66824341 33.55554199 58.7980957 33.58105469 C58.08830566 33.58952423 57.37851563 33.59799377 56.6472168 33.60671997 C54.31565109 33.62999689 51.98474898 33.63111435 49.65307617 33.62988281 C48.0217157 33.63699048 46.39035771 33.64469036 44.75900269 33.6529541 C41.34455411 33.66637784 37.93033667 33.66797742 34.51586914 33.66210938 C30.15568498 33.65621778 25.79661605 33.6867912 21.43664742 33.72722626 C18.06841126 33.75316782 14.70044126 33.75597483 11.33211899 33.75233459 C9.72545445 33.75402009 8.11877687 33.76360739 6.51221085 33.78147888 C-9.88592713 33.94381836 -9.88592713 33.94381836 -15.85473633 28.16113281 C-19.48567743 23.66739383 -19.35707726 19.62569473 -19.20629883 14.04003906 C-18.56901348 8.82138013 -16.06442266 6.25280097 -12.29223633 2.84863281 C-8.17218282 -0.00371192 -4.90105188 0.02667946 0 0 Z " fill="#FFFFFF" transform="translate(130.854736328125,313.8388671875)"/>
<path d="M0 0 C0.73250977 -0.00700928 1.46501953 -0.01401855 2.21972656 -0.02124023 C4.62604382 -0.03875584 7.03117209 -0.02722142 9.4375 -0.01367188 C11.11849186 -0.01636866 12.79948221 -0.02025264 14.48046875 -0.02526855 C17.99754743 -0.03115485 21.5142188 -0.02262896 25.03125 -0.00390625 C29.53052189 0.01888312 34.02883927 0.00575532 38.52807617 -0.01819611 C41.99746847 -0.03267779 45.46663594 -0.02803731 48.93603516 -0.01768494 C50.59456496 -0.01502418 52.25311544 -0.01826444 53.91162109 -0.02760315 C56.23329421 -0.03780834 58.55344011 -0.02221466 60.875 0 C62.19371094 0.00318237 63.51242188 0.00636475 64.87109375 0.00964355 C70.16529367 0.76365389 73.1949097 3.20958834 76.8125 7.01757812 C79.21053575 12.18257821 79.19131535 16.91780692 78.4375 22.51757812 C76.12838725 27.49105174 73.16511365 29.84944159 68.4375 32.51757812 C64.87109375 33.0255127 64.87109375 33.0255127 60.875 33.03515625 C60.14249023 33.04216553 59.40998047 33.0491748 58.65527344 33.05639648 C56.24895618 33.07391209 53.84382791 33.06237767 51.4375 33.04882812 C49.75650814 33.05152491 48.07551779 33.05540889 46.39453125 33.0604248 C42.87745257 33.0663111 39.3607812 33.05778521 35.84375 33.0390625 C31.34447811 33.01627313 26.84616073 33.02940093 22.34692383 33.05335236 C18.87753153 33.06783404 15.40836406 33.06319356 11.93896484 33.05284119 C10.28043504 33.05018043 8.62188456 33.05342069 6.96337891 33.0627594 C4.64170579 33.07296459 2.32155989 33.05737091 0 33.03515625 C-1.31871094 33.03197388 -2.63742188 33.0287915 -3.99609375 33.0255127 C-9.29029367 32.27150236 -12.3199097 29.82556791 -15.9375 26.01757812 C-18.33553575 20.85257804 -18.31631535 16.11734933 -17.5625 10.51757812 C-13.97822937 2.79761062 -8.2761305 0.01997233 0 0 Z " fill="#FFFFFF" transform="translate(129.5625,367.482421875)"/>
</svg>
