<?xml version="1.0" encoding="UTF-8"?>
<svg version="1.1" xmlns="http://www.w3.org/2000/svg" width="500" height="500">
<path d="M0 0 C2.46226002 1.29889366 4.94367318 2.5558065 7.42871094 3.81054688 C25.12846076 12.80695601 40.23048566 23.65060202 54.89746094 37.07617188 C56.29285744 38.33531754 57.70920181 39.57253789 59.16308594 40.76367188 C77.83377649 56.07520053 91.97397408 78.11353963 102.41308594 99.53710938 C103.75770663 102.28347971 105.20627951 104.92159867 106.78027344 107.54492188 C122.32753184 135.18449237 126.44295988 169.79320906 126.46777344 200.91992188 C126.46844818 201.68726654 126.46912292 202.45461121 126.46981812 203.24520874 C126.42464791 235.79688574 120.56709955 268.26445086 105.24121094 297.20214844 C104.21646909 299.17242976 103.24164817 301.16022235 102.28027344 303.16210938 C95.30145006 317.66202361 87.20428942 330.62640782 76.51855469 342.67480469 C74.48841582 345.00824508 72.58053961 347.43728094 70.65527344 349.85742188 C63.88012679 358.14885357 56.34322821 365.30681669 47.97167969 371.96679688 C46.20276105 373.38193178 44.45779886 374.82784615 42.74511719 376.31054688 C29.94893954 387.30695301 15.41884099 395.50311641 0.05615234 402.32470703 C-2.53389664 403.51551043 -5.02334922 404.88039604 -7.53222656 406.23242188 C-23.14809211 414.05097769 -40.66923058 418.1680624 -57.78222656 421.16992188 C-58.83804932 421.35756104 -59.89387207 421.5452002 -60.98168945 421.73852539 C-71.75132283 423.41915364 -82.44329713 423.50846111 -93.32299805 423.4855957 C-96.4471358 423.48244466 -99.57031501 423.50594732 -102.69433594 423.53125 C-119.57616688 423.58533199 -135.89090688 421.91809972 -152.21972656 417.48242188 C-153.16726807 417.22895996 -154.11480957 416.97549805 -155.09106445 416.71435547 C-171.06441454 412.29374045 -186.21113396 406.03083577 -200.78222656 398.16992188 C-201.4615625 397.80753418 -202.14089844 397.44514648 -202.84082031 397.07177734 C-215.53332255 390.2675798 -226.68892463 382.27637199 -237.59082031 372.88476562 C-240.44367261 370.43493124 -243.38551453 368.11545505 -246.34472656 365.79492188 C-273.13581858 343.95647714 -294.8523498 309.74690864 -305.78222656 277.16992188 C-306.18570313 276.079375 -306.58917969 274.98882812 -307.00488281 273.86523438 C-309.71115449 266.30091537 -311.72034291 258.69190118 -313.46972656 250.85742188 C-313.67210937 249.97006348 -313.87449219 249.08270508 -314.08300781 248.16845703 C-317.40248446 232.66373486 -318.19231446 217.04443888 -318.15722656 201.23242188 C-318.15701508 200.3435025 -318.15680359 199.45458313 -318.15658569 198.53872681 C-318.12017897 183.10969613 -316.94543844 168.31019237 -313.78222656 153.16992188 C-313.60030762 152.27128418 -313.41838867 151.37264648 -313.23095703 150.44677734 C-310.05485513 135.19070255 -305.01553357 120.00044105 -297.78222656 106.16992188 C-297.43337402 105.48961914 -297.08452148 104.80931641 -296.72509766 104.10839844 C-291.81263722 94.53613003 -286.88937464 85.04790565 -280.78222656 76.16992188 C-279.91597656 74.89375 -279.91597656 74.89375 -279.03222656 73.59179688 C-273.61637778 65.87421236 -267.44859097 58.8536986 -261.21240234 51.79980469 C-259.49663639 49.84445243 -257.83046404 47.84917926 -256.15722656 45.85742188 C-248.98326671 37.69150708 -240.37823971 30.77623758 -231.78222656 24.16992188 C-231.18917725 23.71182129 -230.59612793 23.2537207 -229.98510742 22.78173828 C-167.09677293 -25.20411089 -71.03367217 -37.86212835 0 0 Z " fill="#FDFDFD" transform="translate(345.7822265625,48.830078125)"/>
<path d="M0 0 C1.33793833 -0.00271435 2.67587517 -0.00627777 4.0138092 -0.01062012 C7.62743141 -0.01969363 11.24093869 -0.01622079 14.85456276 -0.00986195 C18.64779582 -0.00477575 22.44101946 -0.00950065 26.23425293 -0.01263428 C32.60263829 -0.01626631 38.97097717 -0.01149488 45.33935547 -0.00195312 C52.68753075 0.00892997 60.03559501 0.00540385 67.3837676 -0.00560594 C73.70842735 -0.01470058 80.03305381 -0.01595346 86.35771799 -0.0107286 C90.12830326 -0.00762085 93.89883647 -0.00716653 97.66941833 -0.01380157 C101.21535338 -0.01960618 104.76114618 -0.01552157 108.30706596 -0.00401306 C110.21867048 -0.00013488 112.13028712 -0.0060255 114.04188538 -0.01226807 C126.00429777 0.04628536 135.7562088 2.29032827 144.58007812 10.82128906 C146.33741908 12.62017472 147.50036472 13.864788 148.35742188 16.23925781 C150.42504969 19.48838724 153.86213869 20.49551635 157.26757812 22.00878906 C169.64973934 27.92335349 175.42977077 35.61206512 180.64257812 48.25878906 C181.89851877 52.92749089 181.793688 57.55438295 181.79647827 62.35241699 C181.80086053 63.27039959 181.80524278 64.1883822 181.80975783 65.13418245 C181.82311674 68.21152739 181.8293182 71.28884371 181.83544922 74.36621094 C181.84335257 76.57242969 181.85162166 78.77864716 181.86022949 80.98486328 C181.88642582 88.23240936 181.90175621 95.47996114 181.91601562 102.72753906 C181.92137656 105.22506209 181.92675407 107.72258508 181.93214798 110.22010803 C181.95377447 120.61210341 181.97266053 131.00409817 181.98377037 141.39611053 C181.98669975 144.09057113 181.98966146 146.78503169 181.99267578 149.47949219 C181.99342183 150.14913358 181.99416788 150.81877498 181.99493654 151.50870854 C182.00757632 162.34405366 182.04078356 173.17923419 182.08247761 184.01450247 C182.12499434 195.15551106 182.14806966 206.29645137 182.15369093 217.43754244 C182.15733831 223.68609596 182.16929468 229.93437037 182.20179367 236.18284607 C182.23195605 242.06640264 182.23815674 247.9495124 182.22640991 253.83312988 C182.22618985 255.98529225 182.2344383 258.13747584 182.25206375 260.28956604 C182.3809803 276.94536043 180.63276956 290.51411279 168.64257812 303.25878906 C165.17103431 306.04953611 161.63178536 308.2842822 157.64257812 310.25878906 C157.02187156 310.59119126 156.40116499 310.92359346 155.76164913 311.26606846 C147.511672 315.17862073 139.21612107 314.81594498 130.30688477 314.76049805 C128.56645268 314.76428646 126.82602362 314.76979079 125.08560181 314.77687073 C120.38559954 314.79076728 115.68596568 314.77969981 110.98598409 314.76315951 C106.06132707 314.74926369 101.13669044 314.75577366 96.21202087 314.7592926 C87.95142707 314.76198937 79.69097904 314.748559 71.43041992 314.7253418 C61.87581199 314.69867374 52.32144674 314.69700647 42.76681429 314.70873016 C33.56919117 314.71949725 24.37165596 314.71333328 15.17403984 314.69917488 C11.26060347 314.69341199 7.34723135 314.69349998 3.43379402 314.69824028 C-1.16690231 314.70300233 -5.76733163 314.69294071 -10.36797714 314.67128563 C-12.05828895 314.66570929 -13.74862637 314.6652602 -15.43894005 314.67023849 C-17.74104066 314.67616996 -20.04231874 314.66372891 -22.34434509 314.64646912 C-23.63385039 314.64403922 -24.92335569 314.64160933 -26.25193691 314.6391058 C-29.35742187 314.25878906 -29.35742187 314.25878906 -31.30745792 312.89862156 C-32.35742188 311.25878906 -32.35742188 311.25878906 -32.16992188 308.63378906 C-31.35742188 306.25878906 -31.35742188 306.25878906 -29.35742188 305.25878906 C-27.11219575 305.15860991 -24.86391041 305.12531399 -22.61645508 305.12075806 C-21.91534733 305.11793678 -21.21423958 305.1151155 -20.49188614 305.11220872 C-18.13064742 305.10384228 -15.76945547 305.1025227 -13.40820312 305.10107422 C-11.71972013 305.09640728 -10.03123839 305.09126392 -8.34275818 305.0856781 C-4.69941322 305.07438325 -1.05607652 305.06595557 2.58728027 305.05955887 C8.35346529 305.04888638 14.11959147 305.02864146 19.88574219 305.00643921 C36.28529145 304.94449644 52.68483808 304.89056321 69.08447266 304.85742188 C78.13648255 304.83904854 87.18839464 304.8100746 96.2403326 304.76941717 C101.02941771 304.74838495 105.81837972 304.73289534 110.60751343 304.73060989 C115.11866636 304.72845477 119.62956345 304.7124975 124.14063835 304.68622017 C125.79090906 304.67905736 127.44121088 304.67691147 129.09149361 304.68032265 C141.28497736 304.70148902 150.74178031 303.89065404 160.64257812 296.25878906 C161.30257813 296.25878906 161.96257812 296.25878906 162.64257812 296.25878906 C163.01382813 295.45441406 163.01382813 295.45441406 163.39257812 294.63378906 C164.64257812 292.25878906 164.64257812 292.25878906 166.64257812 289.44628906 C170.87882401 282.69477218 170.94022744 276.28619882 170.93310547 268.52514648 C170.93982269 267.46729446 170.94653992 266.40944244 170.95346069 265.3195343 C170.97240493 261.8343939 170.97636311 258.34944645 170.97851562 254.86425781 C170.98494597 252.43199078 170.9916745 249.99972453 170.99868774 247.56745911 C171.01065154 242.4726075 171.01436948 237.37782365 171.01318359 232.28295898 C171.01298045 225.76981762 171.04028272 219.25711279 171.07472801 212.74407482 C171.09701712 207.72103396 171.10102051 202.69809783 171.09996414 197.67501259 C171.10231705 195.27455453 171.11112297 192.87409344 171.12662888 190.47368431 C171.14632896 187.10902109 171.14043428 183.74529509 171.12841797 180.38061523 C171.13965698 179.39898407 171.150896 178.41735291 171.16247559 177.40597534 C171.09159188 169.55469019 169.06037086 163.19889575 164.95507812 156.50878906 C153.59588638 145.4566025 141.30224828 144.82720088 126.25386238 144.87866402 C123.31358895 144.88785678 120.37394211 144.87745785 117.43370056 144.86204529 C109.08089036 144.82217022 100.7281338 144.82073959 92.37524414 144.82299805 C87.24775929 144.82304938 82.12061461 144.80377182 76.99322319 144.77366447 C74.11333844 144.76292139 71.23412565 144.77491897 68.35426331 144.78749084 C53.87872729 144.7577832 42.59934873 142.48191855 31.64257812 132.25878906 C26.26878679 125.80525603 21.90302174 118.67774003 17.38427734 111.61499023 C9.61228369 99.4817053 3.13765508 90.3531628 -11.35742188 86.25878906 C-14.17717645 86.07004167 -16.8966509 85.97495394 -19.71435547 85.98413086 C-20.53143478 85.97901993 -21.3485141 85.973909 -22.19035339 85.96864319 C-24.87893087 85.95479617 -27.56725057 85.95570038 -30.25585938 85.95800781 C-32.13384088 85.95411798 -34.01182152 85.94978271 -35.88980103 85.94502258 C-39.82207086 85.93757072 -43.7542509 85.937844 -47.68652344 85.94311523 C-52.71228308 85.9489061 -57.73767374 85.93198307 -62.76337242 85.90877056 C-66.64112478 85.89399953 -70.51878898 85.89316615 -74.39656448 85.89628029 C-76.2488236 85.89576869 -78.10108786 85.89056146 -79.95331955 85.88046837 C-82.54968609 85.86805682 -85.14534304 85.87492378 -87.74169922 85.88647461 C-88.87663567 85.875009 -88.87663567 85.875009 -90.03450012 85.86331177 C-98.80093125 85.94900928 -106.81806257 89.42132879 -113.35742188 95.25878906 C-118.53834899 102.02788823 -121.47265883 107.42166626 -121.51132202 115.99266052 C-121.51570428 116.68096091 -121.52008653 117.36926129 -121.52460158 118.07841927 C-121.53798154 120.39041705 -121.54416676 122.70237672 -121.55029297 125.0144043 C-121.55819491 126.67023388 -121.56646392 128.32606176 -121.57507324 129.98188782 C-121.60129462 135.42703609 -121.61660644 140.87219203 -121.63085938 146.31738281 C-121.63622004 148.19395515 -121.64159755 150.07052744 -121.64699173 151.94709969 C-121.66862548 159.75778633 -121.68735894 167.56847092 -121.69861412 175.37917995 C-121.7148301 186.55814239 -121.74794494 197.73675595 -121.80501497 208.91558689 C-121.84380016 216.78243647 -121.86325726 224.64919311 -121.86853468 232.51613575 C-121.87217796 237.21038826 -121.88408889 241.90426869 -121.91663742 246.59841728 C-121.94686735 251.02182633 -121.95297715 255.44464113 -121.94125366 259.86813164 C-121.94103413 261.4837364 -121.9492384 263.09936993 -121.9669075 264.71487808 C-122.08841731 276.47358501 -120.81921991 286.71369972 -112.54492188 295.75878906 C-103.51884507 303.9349528 -94.42562638 304.39123625 -82.68554688 304.50488281 C-80.3899697 304.53779042 -78.09439688 304.57100254 -75.79882812 304.60449219 C-72.18866675 304.65209166 -68.57852676 304.69660116 -64.96826172 304.7355957 C-61.47801491 304.77513384 -57.98810837 304.82668546 -54.49804688 304.87988281 C-52.8684201 304.89250404 -52.8684201 304.89250404 -51.20587158 304.90538025 C-50.20433044 304.92202225 -49.20278931 304.93866425 -48.17089844 304.95581055 C-47.28742737 304.96611801 -46.4039563 304.97642548 -45.49371338 304.98704529 C-43.35742188 305.25878906 -43.35742188 305.25878906 -41.35742188 307.25878906 C-41.04492188 309.75878906 -41.04492188 309.75878906 -41.35742188 312.25878906 C-44.64614133 314.4512687 -45.65848109 314.51762698 -49.48046875 314.54931641 C-50.52585815 314.56207611 -51.57124756 314.57483582 -52.64831543 314.58798218 C-54.34510437 314.59132065 -54.34510437 314.59132065 -56.07617188 314.59472656 C-57.24442505 314.60138336 -58.41267822 314.60804016 -59.61633301 314.61489868 C-62.0944664 314.62503601 -64.57262715 314.62971537 -67.05078125 314.62939453 C-70.81492265 314.63374 -74.57786518 314.66997333 -78.34179688 314.70800781 C-80.75325122 314.71388149 -83.16471111 314.71784719 -85.57617188 314.71972656 C-86.69117065 314.7340976 -87.80616943 314.74846863 -88.95495605 314.76327515 C-100.5873017 314.69641881 -110.651493 311.08547678 -119.35742188 303.25878906 C-128.11772294 293.14272711 -131.50738033 284.19675307 -131.5045929 270.99984741 C-131.50826958 270.06411947 -131.51194627 269.12839153 -131.51573437 268.16430819 C-131.52675244 265.02701369 -131.53061188 261.88975234 -131.53442383 258.75244141 C-131.54068989 256.50356949 -131.54733682 254.25469861 -131.55433655 252.00582886 C-131.57536225 244.61880207 -131.58573752 237.23177512 -131.59570312 229.84472656 C-131.59975123 227.30010594 -131.60386817 224.75548542 -131.60805321 222.21086502 C-131.62491956 211.62499213 -131.63955416 201.03912138 -131.64680195 190.45323753 C-131.64871167 187.7085711 -131.65063203 184.96390468 -131.65258789 182.21923828 C-131.65307163 181.53710981 -131.65355537 180.85498133 -131.65405377 180.1521823 C-131.6623495 169.10858574 -131.68768054 158.06509766 -131.72016857 147.02154844 C-131.75328803 135.67035616 -131.77092267 124.31923832 -131.77444619 112.96799052 C-131.77679507 106.59993976 -131.78573488 100.23206055 -131.81090736 93.86405563 C-131.8342169 87.87056645 -131.83840951 81.87736144 -131.82814598 75.88383865 C-131.82765122 73.68891707 -131.83395395 71.49398136 -131.84770203 69.29910278 C-131.9456257 52.73345344 -130.76024163 40.80282357 -118.63085938 28.50878906 C-108.11934647 18.9092339 -96.49775219 17.97436483 -82.78320312 18.12597656 C-80.82349946 18.12537646 -78.86379446 18.12472875 -76.90409374 18.12127876 C-72.11010556 18.11387715 -67.31687891 18.12277449 -62.52319336 18.1796875 C-59.81872968 18.21075487 -57.11578677 18.22065341 -54.41117859 18.20706177 C-51.87468263 18.19490561 -49.33780731 18.213417 -46.80183411 18.2663269 C-40.56892038 18.34925719 -40.56892038 18.34925719 -35.29718018 15.49441528 C-33.7942965 13.48095517 -32.58999463 11.4429915 -31.35742188 9.25878906 C-28.86523438 7.01660156 -28.86523438 7.01660156 -26.48242188 5.38378906 C-25.70125 4.82949219 -24.92007813 4.27519531 -24.11523438 3.70410156 C-16.42372149 -0.32686128 -8.47801567 -0.02768602 0 0 Z " fill="#090909" transform="translate(225.357421875,92.7412109375)"/>
<path d="M0 0 C1.33454966 -0.00570955 2.66909443 -0.01267607 4.00363159 -0.02079773 C7.61334844 -0.03868331 11.22282157 -0.0375691 14.83256936 -0.03185534 C17.85415479 -0.02875571 20.87569394 -0.03486478 23.89727277 -0.04089409 C31.03132679 -0.05492363 38.16526103 -0.05339216 45.29931641 -0.04199219 C52.6390106 -0.03052216 59.97833891 -0.04457122 67.31798488 -0.07138866 C73.6367274 -0.09360457 79.95535557 -0.10016954 86.27413434 -0.09431225 C90.04039757 -0.09095432 93.80642654 -0.09327915 97.57265663 -0.11056328 C101.11789756 -0.12612397 104.66260052 -0.12197727 108.20782089 -0.10325813 C110.11428943 -0.09786341 112.02078265 -0.11201822 113.92720032 -0.12695312 C124.10339743 -0.04041149 131.9738226 1.94492802 139.31518555 9.23217773 C143.72924623 15.74203911 144.28113965 22.2691342 144.4753418 29.90405273 C144.50950195 30.82186523 144.54366211 31.73967773 144.57885742 32.68530273 C144.66050443 34.92476363 144.72991718 37.16387423 144.7878418 39.40405273 C147.0978418 40.06405273 149.4078418 40.72405273 151.7878418 41.40405273 C152.1178418 34.80405273 152.4478418 28.20405273 152.7878418 21.40405273 C161.40592681 24.85128674 166.54347934 30.11376279 170.55499268 38.48181152 C173.58629394 46.7613009 172.50529346 56.34927581 172.3737793 65.01342773 C172.36257057 67.19344915 172.35403832 69.37348582 172.34805298 71.55352783 C172.32528684 77.25515428 172.26646954 82.9558446 172.1998291 88.65710449 C172.13814192 94.4892918 172.11098173 100.32163231 172.08081055 106.15405273 C172.01671395 117.57112776 171.91448379 128.98751201 171.7878418 140.40405273 C171.33795898 140.04053711 170.88807617 139.67702148 170.42456055 139.30249023 C164.69303058 134.82293776 159.39013494 132.00530354 152.7878418 128.40405273 C152.4578418 103.32405273 152.1278418 78.24405273 151.7878418 52.40405273 C149.8078418 52.40405273 147.8278418 52.40405273 145.7878418 52.40405273 C143.88444065 54.30745388 144.61285174 57.69251059 144.58251953 60.21875 C144.57261993 60.93090668 144.56272034 61.64306335 144.55252075 62.37680054 C144.52081968 64.74131902 144.49611455 67.10585762 144.47143555 69.47045898 C144.45087343 71.10571325 144.42987717 72.74096212 144.40846252 74.37620544 C144.35316508 78.6883406 144.30378979 83.00052431 144.25561523 87.31274414 C144.19664318 92.48231084 144.13037317 97.65178843 144.06531525 102.82128143 C143.96720924 110.68215096 143.87841936 118.5430766 143.7878418 126.40405273 C131.9078418 126.40405273 120.0278418 126.40405273 107.7878418 126.40405273 C107.77366211 122.00706055 107.75948242 117.61006836 107.74487305 113.07983398 C107.71956811 109.53877819 107.68933109 105.99783959 107.65579987 102.45685577 C107.62192147 98.73824623 107.59641231 95.02004121 107.59228516 91.30126953 C107.58795666 87.70875792 107.55912609 84.11715098 107.51441002 80.52492332 C107.49540113 78.51078832 107.50074783 76.49646967 107.50679016 74.48225403 C107.33846776 63.68247969 105.14485798 52.79671016 97.38549805 44.75952148 C94.67618133 42.46090803 91.99178537 40.97791975 88.7878418 39.40405273 C87.2934684 38.62078865 87.2934684 38.62078865 85.76890564 37.82170105 C80.82410392 35.73626919 75.81917412 35.96438461 70.52832031 35.97167969 C69.41539108 35.96148804 68.30246185 35.95129639 67.1558075 35.9407959 C63.49273621 35.91070398 59.82992662 35.90140546 56.16674805 35.89233398 C53.62083571 35.87548454 51.07493168 35.85733395 48.52903748 35.8379364 C42.52272938 35.79530681 36.51649592 35.76575922 30.51009268 35.74261302 C23.66838448 35.71551312 16.82681593 35.67160473 9.98520768 35.6263243 C-4.080505 35.53360643 -18.14626184 35.46186704 -32.2121582 35.40405273 C-32.26814571 32.85426491 -32.30889916 30.3057242 -32.34106445 27.75561523 C-32.35834595 27.03962158 -32.37562744 26.32362793 -32.39343262 25.5859375 C-32.46211633 18.31378877 -30.46246434 13.0249401 -25.56762695 7.57202148 C-17.78368678 0.35035238 -10.23295093 -0.0371441 0 0 Z " fill="#FBFBFB" transform="translate(225.212158203125,101.595947265625)"/>
<path d="M0 0 C1.73046822 -0.01073296 1.73046822 -0.01073296 3.49589539 -0.02168274 C4.75777679 -0.02437164 6.0196582 -0.02706055 7.31977844 -0.02983093 C8.66535618 -0.03609917 10.0109322 -0.04274629 11.35650635 -0.04974365 C15.77174178 -0.07074594 20.18697739 -0.08114334 24.60224915 -0.09111023 C26.12506948 -0.0951594 27.64788964 -0.09927637 29.17070961 -0.10346031 C36.32705498 -0.1225046 43.48339008 -0.13673649 50.6397559 -0.14507228 C58.88673092 -0.15483828 67.13343707 -0.18114415 75.38031739 -0.22157317 C81.763503 -0.25178634 88.14661177 -0.26654612 94.52986747 -0.26985329 C98.33809434 -0.2721981 102.14603374 -0.28108359 105.95418358 -0.30631447 C109.54037364 -0.32969135 113.12608892 -0.33379034 116.71233559 -0.32355309 C118.64410612 -0.3228261 120.57585306 -0.34185004 122.50752258 -0.36161804 C132.57530114 -0.30175152 140.14748191 1.95412253 147.3405304 9.14717102 C152.61183644 15.8431706 151.85273556 23.14395676 151.7311554 31.26826477 C151.72368532 32.73798855 151.71799601 34.20772237 151.71400452 35.67745972 C151.69880816 39.5262299 151.65957971 43.37438625 151.6151886 47.22291565 C151.57410522 51.15786945 151.55596577 55.09292346 151.5358429 59.0280304 C151.49307824 66.73468898 151.42490153 74.44084365 151.3405304 82.14717102 C145.66632404 82.22177626 139.99240832 82.2759871 134.31782532 82.31196594 C132.39069133 82.32697754 130.46359108 82.34739318 128.53657532 82.37348938 C125.753694 82.41021045 122.97126751 82.42697394 120.18818665 82.44013977 C118.91262657 82.46336555 118.91262657 82.46336555 117.61129761 82.48706055 C108.14402309 82.48967612 99.40323059 79.58075674 92.3405304 73.14717102 C86.46638277 66.27914778 81.78066808 58.36202245 76.97724915 50.73701477 C69.20910771 38.44518238 60.9012942 28.1962239 46.09927368 24.6031189 C42.90804862 24.07569313 39.85747408 23.9844942 36.62251282 23.94184875 C35.96829346 23.93194916 35.3140741 23.92204956 34.64002991 23.91184998 C32.49205562 23.88043188 30.34405927 23.8555561 28.19599915 23.83076477 C26.70098315 23.8101782 25.20597274 23.78918129 23.71096802 23.76779175 C19.78687591 23.71274687 15.86273281 23.66326049 11.93855286 23.61494446 C7.92992139 23.56460058 3.92136345 23.50898195 -0.08720398 23.45381165 C-7.94456358 23.34644533 -15.80198492 23.24495309 -23.6594696 23.14717102 C-23.86626214 15.31082216 -20.97312137 10.83154268 -15.6594696 5.14717102 C-10.27276502 1.07965939 -6.64174657 0.02831873 0 0 Z " fill="#FCFCFC" transform="translate(171.6594696044922,145.8528289794922)"/>
<path d="M0 0 C1.84324356 0.00848969 1.84324356 0.00848969 3.72372437 0.01715088 C7.61570602 0.03938883 11.50673809 0.08956421 15.3984375 0.140625 C18.05076788 0.16070614 20.7031128 0.17895407 23.35546875 0.1953125 C29.82848613 0.23921277 36.30080129 0.30815487 42.7734375 0.390625 C42.7734375 6.000625 42.7734375 11.610625 42.7734375 17.390625 C40.78183594 17.42929688 40.78183594 17.42929688 38.75 17.46875 C21.68569195 17.93502437 21.68569195 17.93502437 7.37109375 26.57421875 C1.32622998 33.44674113 -1.23155307 40.36691877 -2.2265625 49.390625 C-3.24234375 49.46539062 -4.258125 49.54015625 -5.3046875 49.6171875 C-18.57616821 50.80190992 -27.68898069 55.2791991 -38.2265625 63.390625 C-38.37640384 58.05627344 -38.48447078 52.72318236 -38.55615234 47.38720703 C-38.58607417 45.57741929 -38.626828 43.76777337 -38.67919922 41.95849609 C-39.02661212 29.63555604 -38.71220595 19.61415603 -30.02490234 9.93847656 C-21.39075338 1.3063858 -11.80690733 -0.20774855 0 0 Z " fill="#FCFCFC" transform="translate(141.2265625,119.609375)"/>
<path d="M0 0 C0.79687225 -0.00335861 1.59374451 -0.00671722 2.4147644 -0.01017761 C5.05647324 -0.01969923 7.69811881 -0.02163121 10.33984375 -0.02270508 C12.17065457 -0.02591638 14.00146512 -0.02928036 15.83227539 -0.03279114 C19.67236934 -0.03878513 23.51244077 -0.04063072 27.35253906 -0.04003906 C32.28251469 -0.03993733 37.21234667 -0.05360023 42.14228821 -0.07081127 C45.92371286 -0.08190716 49.70510248 -0.08395903 53.48654175 -0.08342934 C55.30468237 -0.08461269 57.12282381 -0.08905423 58.94094849 -0.0967617 C61.47896519 -0.10651482 64.01666616 -0.10370244 66.5546875 -0.09765625 C67.31111542 -0.10327576 68.06754333 -0.10889526 68.84689331 -0.11468506 C74.0490269 -0.08305318 74.0490269 -0.08305318 76.27734375 2.14526367 C76.46484375 5.20776367 76.46484375 5.20776367 76.27734375 8.14526367 C74.51660059 9.90600683 72.19070638 9.27771181 69.84439087 9.29190063 C68.67630386 9.29122086 68.67630386 9.29122086 67.48461914 9.29052734 C66.66838577 9.29388596 65.8521524 9.29724457 65.01118469 9.30070496 C62.29910787 9.310244 59.58709258 9.31215954 56.875 9.31323242 C54.99791945 9.31644294 53.12083916 9.31980685 51.24375916 9.32331848 C47.3035321 9.32931714 43.363327 9.33115763 39.4230957 9.33056641 C34.36417742 9.33046474 29.30539935 9.34411849 24.24651432 9.36133862 C20.36815235 9.37243528 16.48982452 9.37448634 12.61144829 9.37395668 C10.74585931 9.37514027 8.88026956 9.3795831 7.01469612 9.38728905 C4.40951735 9.39704211 1.80464619 9.39422959 -0.80053711 9.38818359 C-1.57723755 9.3938031 -2.35393799 9.39942261 -3.1541748 9.4052124 C-8.49434074 9.37357918 -8.49434074 9.37357918 -10.72265625 7.14526367 C-10.47265625 4.08276367 -10.47265625 4.08276367 -9.72265625 1.14526367 C-6.63673816 -0.39769537 -3.38659039 -0.00202895 0 0 Z " fill="#0B0B0B" transform="translate(139.72265625,272.854736328125)"/>
<path d="M0 0 C0.79687225 -0.00335861 1.59374451 -0.00671722 2.4147644 -0.01017761 C5.05647324 -0.01969923 7.69811881 -0.02163121 10.33984375 -0.02270508 C12.17065457 -0.02591638 14.00146512 -0.02928036 15.83227539 -0.03279114 C19.67236934 -0.03878513 23.51244077 -0.04063072 27.35253906 -0.04003906 C32.28251469 -0.03993733 37.21234667 -0.05360023 42.14228821 -0.07081127 C45.92371286 -0.08190716 49.70510248 -0.08395903 53.48654175 -0.08342934 C55.30468237 -0.08461269 57.12282381 -0.08905423 58.94094849 -0.0967617 C61.47896519 -0.10651482 64.01666616 -0.10370244 66.5546875 -0.09765625 C67.31111542 -0.10327576 68.06754333 -0.10889526 68.84689331 -0.11468506 C74.0490269 -0.08305318 74.0490269 -0.08305318 76.27734375 2.14526367 C76.46484375 5.20776367 76.46484375 5.20776367 76.27734375 8.14526367 C74.51660059 9.90600683 72.19070638 9.27771181 69.84439087 9.29190063 C68.67630386 9.29122086 68.67630386 9.29122086 67.48461914 9.29052734 C66.66838577 9.29388596 65.8521524 9.29724457 65.01118469 9.30070496 C62.29910787 9.310244 59.58709258 9.31215954 56.875 9.31323242 C54.99791945 9.31644294 53.12083916 9.31980685 51.24375916 9.32331848 C47.3035321 9.32931714 43.363327 9.33115763 39.4230957 9.33056641 C34.36417742 9.33046474 29.30539935 9.34411849 24.24651432 9.36133862 C20.36815235 9.37243528 16.48982452 9.37448634 12.61144829 9.37395668 C10.74585931 9.37514027 8.88026956 9.3795831 7.01469612 9.38728905 C4.40951735 9.39704211 1.80464619 9.39422959 -0.80053711 9.38818359 C-1.57723755 9.3938031 -2.35393799 9.39942261 -3.1541748 9.4052124 C-8.49434074 9.37357918 -8.49434074 9.37357918 -10.72265625 7.14526367 C-10.47265625 4.08276367 -10.47265625 4.08276367 -9.72265625 1.14526367 C-6.63673816 -0.39769537 -3.38659039 -0.00202895 0 0 Z " fill="#070707" transform="translate(139.72265625,255.854736328125)"/>
<path d="M0 0 C2.5 0.25 2.5 0.25 4.5 2.25 C4.21706 7.46067996 2.78535846 11.20121374 0.296875 15.7421875 C-0.02279236 16.33242706 -0.34245972 16.92266663 -0.67181396 17.53079224 C-1.68788552 19.40118793 -2.71858413 21.26303058 -3.75 23.125 C-4.42676149 24.36535108 -5.10255073 25.60623316 -5.77734375 26.84765625 C-7.67037772 30.32322595 -9.58390574 33.78709132 -11.5 37.25 C-12.01626953 38.19133789 -12.53253906 39.13267578 -13.06445312 40.10253906 C-13.51240234 40.9169043 -13.96035156 41.73126953 -14.421875 42.5703125 C-14.8044043 43.26656738 -15.18693359 43.96282227 -15.58105469 44.68017578 C-16.5 46.25 -16.5 46.25 -17.5 47.25 C-19.86523438 47.51806641 -19.86523438 47.51806641 -22.5 47.25 C-24.18164062 45.87646484 -24.18164062 45.87646484 -25.65625 43.9609375 C-26.20410156 43.26613281 -26.75195312 42.57132813 -27.31640625 41.85546875 C-27.87199219 41.11941406 -28.42757813 40.38335937 -29 39.625 C-30.11439292 38.19516407 -31.22897352 36.7654744 -32.34375 35.3359375 C-32.87411865 34.64242187 -33.4044873 33.94890625 -33.95092773 33.234375 C-35.3780258 31.40625 -36.86019092 29.65044865 -38.37890625 27.8984375 C-40.5 25.25 -40.5 25.25 -40.9375 22.5 C-40.5 20.25 -40.5 20.25 -38.5 18.25 C-36.26953125 17.6875 -36.26953125 17.6875 -33.5 18.25 C-31.08757125 20.33209618 -29.16524247 22.76039952 -27.1875 25.25 C-26.63771484 25.91773438 -26.08792969 26.58546875 -25.52148438 27.2734375 C-24.16772886 28.92148769 -22.83207403 30.58437633 -21.5 32.25 C-18.5815575 28.79744536 -16.37741562 25.39248051 -14.3359375 21.36328125 C-13.77132813 20.26048828 -13.20671875 19.15769531 -12.625 18.02148438 C-12.0475 16.88001953 -11.47 15.73855469 -10.875 14.5625 C-9.71957877 12.28601478 -8.56088524 10.01118653 -7.3984375 7.73828125 C-6.88974121 6.73321533 -6.38104492 5.72814941 -5.85693359 4.69262695 C-3.4412437 0.34412437 -3.4412437 0.34412437 0 0 Z " fill="#0B0B0B" transform="translate(306.5,168.75)"/>
<path d="M0 0 C39.38053665 -0.66573079 78.36611615 1.95270241 113.78222656 20.83007812 C116.24448658 22.12897179 118.72589974 23.38588462 121.2109375 24.640625 C138.91068732 33.63703413 154.01271222 44.48068015 168.6796875 57.90625 C170.075084 59.16539567 171.49142838 60.40261602 172.9453125 61.59375 C187.98996091 73.93162066 200.27079551 91.33981354 210 108 C210.81210937 109.34191406 210.81210937 109.34191406 211.640625 110.7109375 C212.10984375 111.50757813 212.5790625 112.30421875 213.0625 113.125 C213.46597656 113.80820313 213.86945313 114.49140625 214.28515625 115.1953125 C215 117 215 117 214 120 C213.41734375 118.97003906 212.8346875 117.94007813 212.234375 116.87890625 C196.24331749 88.95249422 176.05841115 64.13108197 150 45 C149.19949219 44.39285156 148.39898437 43.78570312 147.57421875 43.16015625 C130.49545366 30.62392971 110.276783 20.05361763 90.07275391 13.65966797 C88.56075704 13.17846473 87.0531576 12.68338012 85.54833984 12.18017578 C57.56777547 2.88037986 29.22344831 1.31289644 0 1 C0 0.67 0 0.34 0 0 Z " fill="#151515" transform="translate(232,28)"/>
<path d="M0 0 C0 0.33 0 0.66 0 1 C-1.94326172 1.34611328 -1.94326172 1.34611328 -3.92578125 1.69921875 C-61.29965832 12.13083276 -114.18578447 40.08457116 -149 88 C-149.76570313 89.04414062 -150.53140625 90.08828125 -151.3203125 91.1640625 C-155.65568971 97.2517176 -159.61517302 103.51856239 -163.4375 109.9375 C-163.86297119 110.64753174 -164.28844238 111.35756348 -164.72680664 112.08911133 C-166.99712304 115.97064964 -168.75292272 119.64545146 -170 124 C-170.66 124 -171.32 124 -172 124 C-170.15871576 117.73854083 -167.76584354 112.31753576 -164.375 106.75 C-163.93551025 106.01837646 -163.49602051 105.28675293 -163.04321289 104.53295898 C-157.18065101 94.87431197 -150.98841574 85.75544544 -143.2578125 77.47265625 C-140.8486893 74.83429122 -138.6113077 72.09840875 -136.375 69.3125 C-130.49613018 62.08554451 -124.19575515 56.19410412 -116.921875 50.375 C-115.02369972 48.83209817 -113.15639505 47.25012894 -111.328125 45.625 C-102.3534477 37.71511492 -92.4042371 31.8355395 -82 26 C-80.59935303 25.21326904 -80.59935303 25.21326904 -79.17041016 24.41064453 C-55.67606128 11.35822849 -27.34515585 -0.4714682 0 0 Z " fill="#161616" transform="translate(222,30)"/>
<path d="M0 0 C5.01263347 0.69732199 9.3750241 2.74136897 14 4.6875 C36.83477033 14.00901087 61.73138256 20.1343196 86.49609375 20.16796875 C87.36968033 20.17129715 88.24326691 20.17462555 89.14332581 20.17805481 C90.97778808 20.18308253 92.81225936 20.18546443 94.64672852 20.18530273 C97.42675034 20.18749154 100.20637611 20.20569814 102.98632812 20.22460938 C104.78124866 20.22754387 106.57617106 20.22952829 108.37109375 20.23046875 C109.59656166 20.24124702 109.59656166 20.24124702 110.8467865 20.25224304 C115.97557714 20.23229555 120.71141207 19.61011519 125.7191925 18.49882507 C127.94653922 18.01169216 130.16816093 17.63109579 132.421875 17.2890625 C145.52743054 15.2893535 157.78582373 11.8284449 170.3125 7.5 C171.5487915 7.07315918 171.5487915 7.07315918 172.81005859 6.63769531 C177.71793612 4.90666431 182.40844561 2.95494036 187.07885742 0.65429688 C189 0 189 0 192 1 C173.9358461 10.98841451 154.25681811 16.44667004 134 20 C132.94417725 20.18763916 131.88835449 20.37527832 130.80053711 20.56860352 C120.03090373 22.24923177 109.33892944 22.33853924 98.45922852 22.31567383 C95.33509076 22.31252279 92.21191155 22.33602545 89.08789062 22.36132812 C72.20508379 22.41541324 55.89256457 20.7461001 39.5625 16.3125 C38.62148437 16.06193848 37.68046875 15.81137695 36.7109375 15.55322266 C24.04997529 12.06047057 11.27786965 7.82129213 0 1 C0 0.67 0 0.34 0 0 Z " fill="#0B0B0B" transform="translate(154,450)"/>
<path d="M0 0 C1 2 1 2 0.45849609 3.80908203 C0.14992676 4.53466309 -0.15864258 5.26024414 -0.4765625 6.0078125 C-0.81518311 6.8210498 -1.15380371 7.63428711 -1.50268555 8.47216797 C-1.87304932 9.34760254 -2.24341309 10.22303711 -2.625 11.125 C-25.96572905 68.06522805 -23.71245344 128.18890273 -1 185 C-0.37544922 186.15242188 -0.37544922 186.15242188 0.26171875 187.328125 C1 189 1 189 0 192 C-8.11646782 177.0648752 -13.02797433 161.99725417 -16.75 145.4375 C-16.94875732 144.56536865 -17.14751465 143.6932373 -17.35229492 142.79467773 C-20.64004636 127.36211621 -21.40991613 111.79711436 -21.375 96.0625 C-21.37478851 95.17358063 -21.37457703 94.28466125 -21.37435913 93.36880493 C-21.33795241 77.93977425 -20.16321188 63.1402705 -17 48 C-16.81808105 47.1013623 -16.63616211 46.20272461 -16.44873047 45.27685547 C-8.86915531 8.86915531 -8.86915531 8.86915531 0 0 Z " fill="#131313" transform="translate(49,154)"/>
<path d="M0 0 C0.495 0.99 0.495 0.99 1 2 C-0.01786832 4.47895257 -1.09609726 6.80679423 -2.3125 9.1875 C-2.67714355 9.90365479 -3.04178711 10.61980957 -3.41748047 11.35766602 C-18.26034269 39.84982134 -41.58757421 63.77589151 -67 83 C-67.84175781 83.63808594 -68.68351562 84.27617187 -69.55078125 84.93359375 C-74.59788892 88.60653093 -79.89995694 91.77810107 -85.3125 94.875 C-85.99489746 95.26896973 -86.67729492 95.66293945 -87.38037109 96.06884766 C-90.90502007 98.04338014 -93.92193354 99.51094754 -98 100 C-95.24195401 96.72098977 -91.58898535 95.04059121 -87.875 93.0625 C-61.71155331 78.68786783 -38.62634242 58.04673022 -21 34 C-20.36964844 33.15308594 -19.73929687 32.30617188 -19.08984375 31.43359375 C-11.92105291 21.5213932 -5.80146425 10.75748898 0 0 Z " fill="#151515" transform="translate(448,348)"/>
<path d="M0 0 C0.33 0 0.66 0 1 0 C7.53285199 43.68844765 3.31577049 92.77393715 -18 132 C-19.32849903 128.01450291 -18.28034075 126.94347397 -16.5 123.1875 C-1.11531119 89.01297792 4.0331079 50.47269895 0.22045898 13.3293457 C-0.04893645 10.48294273 -0.09961562 7.67040256 -0.0625 4.8125 C-0.05347656 3.89082031 -0.04445313 2.96914062 -0.03515625 2.01953125 C-0.02355469 1.35308594 -0.01195312 0.68664062 0 0 Z " fill="#1D1D1D" transform="translate(469,214)"/>
<path d="M0 0 C3.15464298 2.66413446 4.68963672 6.06584434 6.5 9.6875 C13.12510102 22.48923367 21.57612709 34.11321541 31 45 C32.04027344 46.2065625 32.04027344 46.2065625 33.1015625 47.4375 C41.4057695 56.8590003 50.24947222 66.0635239 60 74 C56.61287448 74 56.25612166 73.68654677 53.8125 71.578125 C53.20164551 71.05331543 52.59079102 70.52850586 51.96142578 69.98779297 C51.31415527 69.41432129 50.66688477 68.84084961 50 68.25 C49.33081543 67.66234863 48.66163086 67.07469727 47.97216797 66.46923828 C28.25343824 48.8906719 10.59044305 26.26976531 0 2 C0 1.34 0 0.68 0 0 Z " fill="#181818" transform="translate(51,348)"/>
<path d="M0 0 C67.71069182 -1.14465409 67.71069182 -1.14465409 96 13 C95.67 13.66 95.34 14.32 95 15 C94.34104736 14.80365967 93.68209473 14.60731934 93.00317383 14.4050293 C61.75830571 5.12132318 32.47555737 1.52370598 0 1 C0 0.67 0 0.34 0 0 Z " fill="#1E1E1E" transform="translate(232,28)"/>
<path d="M0 0 C-18.94606699 10.47606057 -45.03028316 20.56846236 -67 20 C-69.25488281 19.01513672 -69.25488281 19.01513672 -71 18 C-70.31599121 17.89977539 -69.63198242 17.79955078 -68.92724609 17.69628906 C-50.21091923 14.96238761 -50.21091923 14.96238761 -32 10 C-31.21753906 9.73783691 -30.43507813 9.47567383 -29.62890625 9.20556641 C-17.05542307 4.97960826 -17.05542307 4.97960826 -4.92114258 -0.34570312 C-3 -1 -3 -1 0 0 Z " fill="#161616" transform="translate(346,451)"/>
<path d="M0 0 C3.19636487 2.13090991 3.55981042 2.71934986 4.8671875 6.12109375 C5.19315918 6.96502686 5.51913086 7.80895996 5.85498047 8.6784668 C6.19158691 9.58894775 6.52819336 10.49942871 6.875 11.4375 C7.22578613 12.37311768 7.57657227 13.30873535 7.93798828 14.27270508 C11.26726351 23.36124378 13.82011105 32.57635174 16 42 C16.24621094 43.05445313 16.49242187 44.10890625 16.74609375 45.1953125 C17.68469424 49.53229407 18.23494112 53.5361188 18 58 C16.35850702 55.00954875 15.48716843 52.24420147 14.7734375 48.9140625 C14.55010742 47.91076904 14.32677734 46.90747559 14.09667969 45.8737793 C13.85852539 44.80168213 13.62037109 43.72958496 13.375 42.625 C10.45580981 29.93653769 7.05123774 16.49165401 0.89160156 4.91723633 C0 3 0 3 0 0 Z " fill="#111111" transform="translate(451,156)"/>
<path d="M0 0 C4.03219304 1.78871722 7.48293704 4.39859985 11.0625 6.9375 C20.03398885 13.21944293 29.45247053 18.64906646 39 24 C36 25 36 25 34.18164062 24.32250977 C33.17907227 23.76261353 33.17907227 23.76261353 32.15625 23.19140625 C31.40964111 22.77793945 30.66303223 22.36447266 29.89379883 21.93847656 C29.10384521 21.4844043 28.3138916 21.03033203 27.5 20.5625 C26.69135498 20.10456055 25.88270996 19.64662109 25.04956055 19.17480469 C16.01453547 13.97995858 7.71333381 8.02770414 0 1 C0 0.67 0 0.34 0 0 Z " fill="#141414" transform="translate(111,423)"/>
<path d="M0 0 C0.66 0 1.32 0 2 0 C0.87510915 3.37467255 0.51655212 3.57939839 -2.421875 5.2265625 C-3.46601563 5.814375 -3.46601563 5.814375 -4.53125 6.4140625 C-5.62953125 7.01347656 -5.62953125 7.01347656 -6.75 7.625 C-7.46671875 8.03234375 -8.1834375 8.4396875 -8.921875 8.859375 C-12.5846931 10.8927777 -15.76994952 12.51704148 -20 13 C-17.91913427 10.76172413 -15.91870249 9.23910057 -13.2421875 7.7734375 C-12.18064453 7.185625 -12.18064453 7.185625 -11.09765625 6.5859375 C-10.36417969 6.18632812 -9.63070313 5.78671875 -8.875 5.375 C-7.4132991 4.57170003 -5.95232197 3.76708121 -4.4921875 2.9609375 C-3.52321533 2.43185791 -3.52321533 2.43185791 -2.53466797 1.89208984 C-1.00542373 1.0907462 -1.00542373 1.0907462 0 0 Z " fill="#191919" transform="translate(370,435)"/>
<path d="M0 0 C4.56736441 0.70062483 8.5699505 2.31270207 12.8125 4.0625 C13.50537109 4.34416016 14.19824219 4.62582031 14.91210938 4.91601562 C16.60967624 5.60674973 18.30506312 6.30283728 20 7 C19.67 7.66 19.34 8.32 19 9 C12.04634211 7.21440518 6.12685097 4.7441867 0 1 C0 0.67 0 0.34 0 0 Z " fill="#151515" transform="translate(154,450)"/>
<path d="M0 0 C3.6448477 2.42989847 4.6288214 5.04588437 6.25 8.9375 C6.67152344 9.88786133 6.67152344 9.88786133 7.1015625 10.85742188 C9.12583796 15.62248613 9.12583796 15.62248613 8 19 C6.65929682 16.39939496 5.32726646 13.79495084 4 11.1875 C3.6184375 10.44951172 3.236875 9.71152344 2.84375 8.95117188 C2.4828125 8.23896484 2.121875 7.52675781 1.75 6.79296875 C1.41484375 6.1383667 1.0796875 5.48376465 0.734375 4.80932617 C0 3 0 3 0 0 Z " fill="#101010" transform="translate(41,327)"/>
<path d="M0 0 C0.66 0 1.32 0 2 0 C0.59601721 4.10110762 -1.37087038 6.98089159 -4.125 10.3125 C-4.84945313 11.19550781 -5.57390625 12.07851563 -6.3203125 12.98828125 C-6.87460937 13.65214844 -7.42890625 14.31601562 -8 15 C-8.66 14.67 -9.32 14.34 -10 14 C-8.38287572 11.66083869 -6.75694638 9.32878299 -5.125 7 C-4.66480469 6.33226562 -4.20460938 5.66453125 -3.73046875 4.9765625 C-2.53694054 3.28140649 -1.27309661 1.6362422 0 0 Z " fill="#0F0F0F" transform="translate(434,372)"/>
<path d="M0 0 C5.26630019 3.40554079 10.2703193 6.87668862 15 11 C14.67 11.66 14.34 12.32 14 13 C11.84741212 11.40427074 9.70312666 9.7991341 7.5625 8.1875 C6.95083984 7.73568359 6.33917969 7.28386719 5.70898438 6.81835938 C1.11328125 3.33984375 1.11328125 3.33984375 0 0 Z " fill="#101010" transform="translate(373,64)"/>
<path d="M0 0 C3.28788824 3.11016455 5.83735988 6.01618925 8 10 C3.79236776 8.4972742 2.1972242 5.76667005 0 2 C0 1.34 0 0.68 0 0 Z " fill="#101010" transform="translate(65,373)"/>
<path d="M0 0 C2.45823172 3.68734758 3.01242616 6.69699971 4 11 C0.12085101 8.41390067 -0.04532091 6.45516908 -1 2 C-0.67 1.34 -0.34 0.68 0 0 Z " fill="#2C2C2C" transform="translate(39,317)"/>
<path d="M0 0 C2.97 0.99 5.94 1.98 9 3 C8.67 3.66 8.34 4.32 8 5 C4.7 4.01 1.4 3.02 -2 2 C-1.34 1.34 -0.68 0.68 0 0 Z " fill="#262626" transform="translate(319,38)"/>
</svg>
