<?xml version="1.0" encoding="UTF-8"?>
<svg version="1.1" xmlns="http://www.w3.org/2000/svg" width="500" height="500">
<path d="M0 0 C2.19771023 1.18067624 4.41972051 2.30331856 6.64990234 3.42138672 C20.0647379 10.20117454 32.83980579 17.80483313 43.86865234 28.11669922 C46.37168398 30.41000507 48.99064902 32.51956665 51.63818359 34.64404297 C59.32060029 40.90734658 65.49210696 47.71095732 71.6796875 55.44482422 C73.11150267 57.20221874 74.58021244 58.92357137 76.05615234 60.64404297 C114.29748197 105.66816773 128.00218293 165.00094668 123.54833984 222.96826172 C121.03147175 249.85289808 114.36970342 276.76959882 100.97314453 300.33447266 C99.40436406 303.18955735 98.03918766 306.14140767 96.63818359 309.08154297 C90.63538513 321.15535351 82.78049162 331.86922697 74.01318359 342.08154297 C73.01382563 343.27760637 72.01517031 344.47425708 71.01708984 345.67138672 C60.42289647 358.26831801 48.73429444 368.92567777 35.62841797 378.85595703 C34.16007213 379.97008885 32.70314436 381.09922881 31.24755859 382.22998047 C9.24765542 398.89457778 -17.75964541 410.26835671 -44.42431641 416.83154297 C-45.17261719 417.01821533 -45.92091797 417.2048877 -46.69189453 417.3972168 C-63.93405973 421.38044313 -81.15098818 422.631392 -98.79931641 422.51904297 C-100.30578232 422.5149794 -100.30578232 422.5149794 -101.84268188 422.51083374 C-116.92338321 422.44924316 -131.28796288 421.70818705 -145.98681641 418.08154297 C-146.80424316 417.89430664 -147.62166992 417.70707031 -148.46386719 417.51416016 C-166.84854206 413.2959209 -184.40539328 407.07598646 -200.98681641 398.08154297 C-201.98406738 397.55173828 -201.98406738 397.55173828 -203.00146484 397.01123047 C-217.17264006 389.46774227 -229.70813117 380.40876346 -241.98681641 370.08154297 C-243.04703046 369.21835396 -244.10826875 368.35642179 -245.17041016 367.49560547 C-256.96515319 357.85535255 -266.54728164 346.80987205 -275.74951172 334.70849609 C-276.85973388 333.24864596 -277.98116138 331.79733359 -279.10400391 330.34716797 C-307.33893626 292.92737811 -320.47620321 246.61974736 -320.36181641 200.14404297 C-320.36127258 199.30147949 -320.36072876 198.45891602 -320.36016846 197.59082031 C-320.25465684 161.75401216 -312.05618324 126.68563356 -294.98681641 95.08154297 C-294.67131836 94.49066895 -294.35582031 93.89979492 -294.03076172 93.29101562 C-287.12953066 80.45758648 -279.19103388 68.07360579 -269.17431641 57.44873047 C-266.77670879 54.85417651 -264.57211674 52.14945116 -262.36181641 49.39404297 C-256.63183187 42.34784436 -250.57669948 36.60838751 -243.42431641 31.01513672 C-241.21610214 29.26342828 -239.09654109 27.44952837 -236.98681641 25.58154297 C-233.98681641 23.08154297 -233.98681641 23.08154297 -231.98681641 23.08154297 C-231.98681641 22.42154297 -231.98681641 21.76154297 -231.98681641 21.08154297 C-230.49658203 19.87988281 -230.49658203 19.87988281 -228.39306641 18.54248047 C-227.61769531 18.04828613 -226.84232422 17.5540918 -226.04345703 17.04492188 C-225.19976562 16.52075684 -224.35607422 15.9965918 -223.48681641 15.45654297 C-222.62765625 14.91819824 -221.76849609 14.37985352 -220.88330078 13.82519531 C-214.28322141 9.74946364 -207.54341526 6.16599136 -200.55322266 2.81591797 C-197.43330558 1.29867462 -194.43484334 -0.32315592 -191.42431641 -2.04345703 C-136.43230732 -32.28496427 -54.31173089 -29.64103437 0 0 Z " fill="#FCFCFC" transform="translate(347.98681640625,49.91845703125)"/>
<path d="M0 0 C0.84268936 -0.0065712 1.68537872 -0.0131424 2.55360413 -0.01991272 C5.34620251 -0.03964234 8.138747 -0.05131035 10.93139648 -0.0612793 C11.88702925 -0.06535482 12.84266201 -0.06943035 13.82725334 -0.07362938 C18.88971617 -0.09449315 23.95215191 -0.10879102 29.01464844 -0.11816406 C34.22755518 -0.12920213 39.44003196 -0.16357108 44.65278721 -0.20333576 C48.67387142 -0.22957088 52.69485451 -0.23786223 56.71601677 -0.24144554 C58.63642198 -0.2462972 60.55682311 -0.25787037 62.47714424 -0.27648354 C76.27473869 -0.40185884 86.3603283 0.5046187 97.30249023 9.7199707 C101.39253032 13.84278354 104.45725051 18.62988345 107.60913086 23.47485352 C109.49850837 26.3187093 111.51462357 29.06344704 113.55249023 31.80200195 C114.6140332 33.24446289 114.6140332 33.24446289 115.69702148 34.71606445 C118.50566306 38.09932295 120.25869323 39.9897967 124.73526001 40.55554199 C125.90422821 40.55759644 127.07319641 40.55965088 128.27758789 40.56176758 C128.92535187 40.56714035 129.57311584 40.57251312 130.24050903 40.57804871 C131.64383594 40.5878119 133.04722311 40.59077524 134.4505806 40.58769226 C136.68026491 40.58319913 138.90916164 40.59725915 141.13876343 40.61608887 C145.88082612 40.6528442 150.62280616 40.66655767 155.36499023 40.67700195 C160.84304344 40.68912586 166.32071328 40.71097294 171.79859543 40.75700378 C173.97987209 40.77044881 176.16064853 40.76642448 178.34194946 40.76159668 C190.59959949 40.81021277 199.72782946 42.52739937 208.73999023 51.17700195 C215.09074195 58.23493345 218.2017383 64.98096337 218.14404297 74.52392578 C218.15090622 75.32818497 218.15776947 76.13244415 218.1648407 76.96107483 C218.18304176 79.602244 218.17927993 82.24281516 218.17358398 84.8840332 C218.17814989 86.73337495 218.18345667 88.582715 218.18946838 90.43205261 C218.19838704 94.3029165 218.19599161 98.17357394 218.18603516 102.04443359 C218.17456318 106.98377715 218.1947361 111.92240389 218.22395229 116.86165333 C218.24237905 120.68031784 218.2420087 124.49881275 218.23631477 128.3175106 C218.23616226 130.13741751 218.24214795 131.95733643 218.25460625 133.7772007 C218.33636693 147.68094822 217.2329565 157.46793482 207.25561523 167.97387695 C200.31753921 174.05008018 192.85957302 176.32634786 183.80905151 176.32417297 C182.99204431 176.32784966 182.1750371 176.33152635 181.3332721 176.33531445 C178.58586324 176.34635868 175.8384922 176.35019641 173.09106445 176.35400391 C171.124953 176.36026807 169.15884273 176.36691483 167.19273376 176.37391663 C161.84330829 176.39133223 156.49389175 176.40188024 151.14444494 176.41012216 C147.80203566 176.41527187 144.45962915 176.42134766 141.11722183 176.42763329 C130.65901189 176.44668822 120.20080903 176.46091788 109.74258506 176.46924525 C97.67183413 176.47901524 85.60126669 176.50532737 73.5305804 176.54574615 C64.20051858 176.57591518 54.87050932 176.59071494 45.54039967 176.59402627 C39.9682655 176.59637612 34.39632729 176.60532812 28.82424545 176.63048744 C23.57932463 176.65378637 18.33472854 176.65799394 13.08976936 176.64772606 C11.16814277 176.64723101 9.2465001 176.65354224 7.32492256 176.6672821 C-5.68784491 176.75509609 -14.65261024 176.12512254 -24.54125977 166.90356445 C-33.65993332 157.74344238 -34.4066691 148.89215006 -34.43701172 136.56298828 C-34.44358292 135.3995993 -34.45015411 134.23621033 -34.45692444 133.03756714 C-34.47660432 129.19472178 -34.48830798 125.3519154 -34.49829102 121.5090332 C-34.50236654 120.19332525 -34.50644207 118.8776173 -34.5106411 117.52203941 C-34.52966878 111.27552418 -34.54390461 105.02902057 -34.55225307 98.78248197 C-34.56201535 91.59901855 -34.58831832 84.41586409 -34.62875396 77.23250943 C-34.65902281 71.66198412 -34.67373209 66.09154685 -34.67703408 60.52094096 C-34.67937236 57.20225131 -34.69018209 53.8839659 -34.71349525 50.56534767 C-34.73793493 46.85597999 -34.73691227 43.14741243 -34.72998047 39.43798828 C-34.74279053 38.35552322 -34.75560059 37.27305817 -34.76879883 36.15779114 C-34.69302226 24.9769279 -31.53566385 16.42619304 -23.77563477 8.3449707 C-16.67191679 2.22297773 -9.19980048 0.03106272 0 0 Z " fill="#010101" transform="translate(158.260009765625,199.822998046875)"/>
<path d="M0 0 C0.86611908 -0.01142029 1.73223816 -0.02284058 2.62460327 -0.03460693 C3.56698853 -0.03684265 4.50937378 -0.03907837 5.48031616 -0.04138184 C6.47920868 -0.05131165 7.4781012 -0.06124146 8.50726318 -0.07147217 C11.81390133 -0.10069406 15.1203474 -0.11431763 18.42709351 -0.12536621 C20.72912602 -0.13687347 23.03115849 -0.14838888 25.33319092 -0.15991211 C30.16349174 -0.18092777 34.99372605 -0.19261506 39.82406616 -0.19958496 C45.99783777 -0.21053604 52.17072307 -0.25855171 58.3442173 -0.31552887 C63.10219846 -0.35288138 67.85996859 -0.36319819 72.61808395 -0.36625671 C74.89297694 -0.37229139 77.16786702 -0.38828641 79.44261551 -0.41462708 C82.6355431 -0.44895175 85.82633864 -0.4449407 89.01937866 -0.43200684 C89.94961853 -0.4504364 90.8798584 -0.46886597 91.83828735 -0.487854 C100.1662964 -0.38280767 106.40953095 2.97363983 112.20053101 8.90588379 C115.11151371 13.71533347 114.77513112 18.6032168 114.7515564 24.08850098 C114.75170242 24.97666 114.75184845 25.86481903 114.7519989 26.77989197 C114.75130281 29.71253917 114.74352458 32.64512269 114.73568726 35.57775879 C114.733822 37.61228399 114.7323986 39.64680964 114.73139954 41.68133545 C114.72758284 47.03413128 114.71775977 52.38689995 114.70669556 57.73968506 C114.69466394 64.16325825 114.69007516 70.58684052 114.68424225 77.01042175 C114.67454759 86.76726132 114.65538507 96.52404129 114.63803101 106.28088379 C99.45803101 105.95088379 84.27803101 105.62088379 68.63803101 105.28088379 C68.60064819 101.85971191 68.56326538 98.43854004 68.52474976 94.91369629 C68.47844445 91.57411566 68.4272435 88.23464313 68.37557983 84.8951416 C68.34247172 82.58694105 68.31439657 80.27866229 68.29159546 77.97033691 C68.25778918 74.6386199 68.20546033 71.30761061 68.14974976 67.97619629 C68.14335983 66.95599396 68.13696991 65.93579163 68.13038635 64.88467407 C67.89562872 53.25882641 64.80422014 43.86335574 56.78646851 35.30432129 C49.32659829 28.31998065 41.08840964 25.23608165 30.92977905 25.07556152 C29.8089946 25.0556163 28.68821014 25.03567108 27.53346252 25.01512146 C26.33433731 24.99840897 25.1352121 24.98169647 23.89974976 24.96447754 C22.66384598 24.94369644 21.4279422 24.92291534 20.15458679 24.90150452 C16.88150975 24.84728448 13.6084036 24.79700801 10.3352356 24.74865723 C6.99014841 24.69826809 3.64515376 24.64259563 0.30014038 24.58752441 C-6.2538267 24.48052436 -12.80785913 24.37872487 -19.36196899 24.28088379 C-19.39270794 22.66820989 -19.41472979 21.05536807 -19.43301392 19.44250488 C-19.44620163 18.5443808 -19.45938934 17.64625671 -19.47297668 16.72091675 C-19.33601627 13.71042332 -18.64318561 12.17709843 -16.67446899 9.90588379 C-16.12661743 9.26650879 -15.57876587 8.62713379 -15.01431274 7.96838379 C-10.60947157 3.46982259 -6.4496954 0.0511443 0 0 Z " fill="#020202" transform="translate(237.36196899414063,123.7191162109375)"/>
<path d="M0 0 C0.8928067 -0.00571014 1.7856134 -0.01142029 2.70547485 -0.01730347 C3.67748337 -0.01842133 4.64949188 -0.01953918 5.6509552 -0.02069092 C6.68071472 -0.02565582 7.71047424 -0.03062073 8.7714386 -0.03573608 C12.18025887 -0.05034765 15.58903258 -0.05715869 18.99787903 -0.06268311 C21.36956788 -0.06843616 23.74125672 -0.07419387 26.11294556 -0.07995605 C31.08867103 -0.09046372 36.06438035 -0.09630767 41.04011536 -0.09979248 C47.40426206 -0.10527129 53.76819418 -0.12928743 60.13227367 -0.15776443 C65.03345352 -0.17642471 69.93458208 -0.18159827 74.83579445 -0.18312836 C77.1812539 -0.18614863 79.52671258 -0.19415598 81.87213707 -0.20731354 C85.16055294 -0.22444165 88.44844985 -0.22247686 91.7368927 -0.21600342 C92.69878006 -0.2252182 93.66066742 -0.23443298 94.65170288 -0.243927 C104.32235514 -0.18454119 112.49543038 2.28674474 119.51741028 9.14044189 C123.4092655 14.23944823 125.64696392 18.67121538 125.63093567 25.16265869 C125.63086014 26.18349045 125.63078461 27.2043222 125.63070679 28.25608826 C125.6255455 29.35616714 125.62038422 30.45624603 125.61506653 31.58966064 C125.61294411 33.28129082 125.61294411 33.28129082 125.61077881 35.00709534 C125.60517498 38.61407101 125.59262181 42.22098494 125.57991028 45.82794189 C125.57489577 48.27130037 125.57033278 50.71465982 125.5662384 53.15802002 C125.55520431 59.15218176 125.53846243 65.14630742 125.51741028 71.14044189 C116.34900269 71.70652533 116.34900269 71.70652533 113.29988098 69.63092041 C112.85217346 68.93410156 112.40446594 68.23728271 111.94319153 67.51934814 C111.42458557 66.75275879 110.90597961 65.98616943 110.37165833 65.1963501 C109.86288147 64.37352539 109.35410461 63.55070068 108.82991028 62.70294189 C107.71858237 61.04104787 106.60661051 59.37958427 105.49397278 57.71856689 C104.97738098 56.92128174 104.46078918 56.12399658 103.92854309 55.30255127 C96.67599216 44.19033828 87.7510161 34.69500753 74.51741028 31.14044189 C67.23247201 30.05754679 59.81180371 30.30027856 52.46662903 30.33575439 C50.35527032 30.32448591 48.24392414 30.31059732 46.13259888 30.29421997 C40.61703689 30.2583828 35.10203149 30.25778297 29.58638 30.26489258 C23.94154585 30.26580958 18.29691576 30.23288895 12.6521759 30.20294189 C1.60719565 30.14926843 -9.43749334 30.13287502 -20.48258972 30.14044189 C-20.55378588 27.58265394 -20.60567699 25.02687108 -20.64665222 22.46856689 C-20.66864685 21.74943115 -20.69064148 21.03029541 -20.71330261 20.28936768 C-20.77947223 14.77523264 -19.7411924 11.21829049 -16.20133972 6.84356689 C-11.36317092 2.04938144 -6.81619858 0.02620714 0 0 Z " fill="#050505" transform="translate(168.4825897216797,158.85955810546875)"/>
<path d="M0 0 C0.88873306 -0.00241196 1.77746613 -0.00482391 2.69313049 -0.00730896 C4.56833365 -0.00633169 6.44356608 0.00703343 8.31860352 0.03198242 C11.17890171 0.06625641 14.03610231 0.05264477 16.89648438 0.03320312 C18.72266933 0.04010316 20.54884633 0.04977696 22.375 0.0625 C23.22517197 0.05754013 24.07534393 0.05258026 24.95127869 0.04747009 C30.30964065 0.15297938 33.57293391 0.95496786 37.75390625 4.62890625 C38.97970576 8.5947282 39.1974993 10.63082189 37.50390625 14.44140625 C35.59076027 16.83283872 33.99987256 18.45201266 30.87026978 18.89633179 C30.16365204 18.90395538 29.4570343 18.91157898 28.72900391 18.91943359 C27.92451813 18.9321933 27.12003235 18.944953 26.29116821 18.95809937 C24.99268448 18.96143784 24.99268448 18.96143784 23.66796875 18.96484375 C22.77403412 18.97150055 21.88009949 18.97815735 20.95907593 18.98501587 C19.0677903 18.99514094 17.17646895 18.99983293 15.28515625 18.99951172 C12.39653359 19.0038796 9.50944549 19.0401852 6.62109375 19.078125 C4.7825573 19.08399431 2.9440136 19.08796294 1.10546875 19.08984375 C0.24386139 19.10421478 -0.61774597 19.11858582 -1.50546265 19.13339233 C-5.61486538 19.1022052 -7.71328391 18.96457042 -11.26806641 16.72509766 C-13.8235732 14.01692914 -14.1963968 13.06789597 -14.62109375 9.31640625 C-14.24609375 5.62890625 -14.24609375 5.62890625 -12.30053711 2.93774414 C-8.13284958 -0.21258924 -5.09161197 -0.07921375 0 0 Z " fill="#F5F5F5" transform="translate(185.24609375,281.37109375)"/>
<path d="M0 0 C0.93549683 -0.0071553 1.87099365 -0.01431061 2.83483887 -0.02168274 C4.80833993 -0.02945057 6.78192709 -0.02446704 8.75537109 -0.00756836 C11.77215825 0.0116608 14.78433983 -0.02773978 17.80078125 -0.07226562 C19.7213569 -0.07255599 21.64193678 -0.06941586 23.5625 -0.0625 C24.46158081 -0.07778244 25.36066162 -0.09306488 26.2869873 -0.10881042 C32.33767229 0.0035881 32.33767229 0.0035881 34.98950195 1.95858765 C37.5397196 4.8209821 38.2733094 6.46894122 38.40625 10.32421875 C37.02452164 14.46940384 36.004576 15.44970929 32.28125 17.69921875 C29.11378377 18.29828714 25.99831751 18.30746624 22.78125 18.30078125 C21.41129883 18.31363663 21.41129883 18.31363663 20.01367188 18.32675171 C18.08727325 18.33821151 16.1607881 18.33925844 14.234375 18.33056641 C11.29016544 18.32423791 8.34996381 18.37120613 5.40625 18.421875 C3.53125506 18.42642071 1.65624933 18.4278281 -0.21875 18.42578125 C-1.53456055 18.45341049 -1.53456055 18.45341049 -2.87695312 18.4815979 C-8.80883088 18.39195593 -8.80883088 18.39195593 -11.39599609 16.42230225 C-13.58503289 13.91598703 -14.67799262 11.89892992 -15.34375 8.63671875 C-13.56142294 0.25978157 -7.20200765 -0.05594552 0 0 Z " fill="#FAFAFA" transform="translate(185.71875,311.30078125)"/>
<path d="M0 0 C5.01263347 0.69732199 9.3750241 2.74136897 14 4.6875 C31.46627039 11.81750512 49.35916947 16.21248004 68 19 C68.6916626 19.1045752 69.3833252 19.20915039 70.09594727 19.31689453 C77.50602224 20.28936358 84.97634469 20.24372753 92.4375 20.25 C93.52389267 20.25101212 93.52389267 20.25101212 94.63223267 20.25204468 C125.44841796 20.2068082 159.76033772 16.04202528 187.15771484 0.79956055 C189 0 189 0 192 1 C178.69842217 8.38075355 164.30132063 13.14469001 149.5625 16.75 C148.81492432 16.9363501 148.06734863 17.1227002 147.29711914 17.31469727 C130.05545263 21.30124074 112.83578783 22.54984877 95.1875 22.4375 C93.68103409 22.43343643 93.68103409 22.43343643 92.14413452 22.42929077 C77.06343319 22.36770019 62.69885352 21.62664408 48 18 C47.18257324 17.81276367 46.36514648 17.62552734 45.52294922 17.43261719 C36.30372433 15.31732842 27.32315815 12.55670546 18.375 9.5 C17.5696582 9.22760498 16.76431641 8.95520996 15.93457031 8.67456055 C10.27198628 6.67146559 5.16456394 4.05843107 0 1 C0 0.67 0 0.34 0 0 Z " fill="#161616" transform="translate(154,450)"/>
<path d="M0 0 C33.40476861 2.92375741 71.72961185 22.15763343 95.92578125 45.0703125 C98.39444183 47.36695718 100.99439617 49.45375685 103.625 51.5625 C112.40747809 58.72265922 122.34071725 67.4734723 127 78 C123.66150434 75.39434485 120.73464047 72.79814331 118 69.5625 C108.42835573 58.41311217 97.80935187 48.71261113 86 40 C85.17371094 39.37867188 84.34742188 38.75734375 83.49609375 38.1171875 C58.2174352 19.7249317 29.77682679 9.46624839 0 1 C0 0.67 0 0.34 0 0 Z " fill="#191919" transform="translate(296,33)"/>
<path d="M0 0 C0.495 0.99 0.495 0.99 1 2 C-0.01782265 4.47884135 -1.09657862 6.80668077 -2.3125 9.1875 C-2.67351807 9.8993042 -3.03453613 10.6111084 -3.40649414 11.34448242 C-9.57687197 23.22209894 -17.29266822 33.85754539 -26 44 C-26.99935796 45.1960634 -27.99801329 46.39271411 -28.99609375 47.58984375 C-39.59028712 60.18677505 -51.27888915 70.8441348 -64.38476562 80.77441406 C-65.85311147 81.88854588 -67.31003923 83.01768585 -68.765625 84.1484375 C-74.07386588 88.1693505 -79.59858224 91.64136681 -85.375 94.9375 C-86.39279541 95.52265381 -86.39279541 95.52265381 -87.43115234 96.11962891 C-90.93814512 98.07202027 -93.95113143 99.50757004 -98 100 C-95.24195401 96.72098977 -91.58898535 95.04059121 -87.875 93.0625 C-61.71155331 78.68786783 -38.62634242 58.04673022 -21 34 C-20.36964844 33.15308594 -19.73929687 32.30617188 -19.08984375 31.43359375 C-11.92105291 21.5213932 -5.80146425 10.75748898 0 0 Z " fill="#151515" transform="translate(448,348)"/>
<path d="M0 0 C3.15464298 2.66413446 4.68963672 6.06584434 6.5 9.6875 C13.12510102 22.48923367 21.57612709 34.11321541 31 45 C32.04027344 46.2065625 32.04027344 46.2065625 33.1015625 47.4375 C39.41777471 54.60352986 46.20181001 61.29637525 53 68 C48.95607219 68 47.36036044 66.00536702 44.5625 63.375 C44.0360791 62.88499512 43.5096582 62.39499023 42.96728516 61.89013672 C36.80284196 56.02979384 31.35407796 49.59646069 26 43 C25.55914062 42.46117187 25.11828125 41.92234375 24.6640625 41.3671875 C0 11.02291667 0 11.02291667 0 0 Z " fill="#171717" transform="translate(51,348)"/>
<path d="M0 0 C0.33 0 0.66 0 1 0 C1.2823187 6.77564881 0.24065193 12.88725243 -1.1875 19.5 C-1.52696655 21.09122681 -1.52696655 21.09122681 -1.87329102 22.71459961 C-9.38486308 57.02013397 -9.38486308 57.02013397 -19 68 C-18.33531876 63.82423784 -16.95493732 60.26339492 -15.3125 56.375 C-7.86318926 38.07188119 -3.7323075 19.33959335 0 0 Z " fill="#1E1E1E" transform="translate(469,278)"/>
<path d="M0 0 C5.01194282 0.69722592 9.37617921 2.73980082 14 4.6875 C25.70193272 9.50703204 37.72844123 12.95805075 50 16 C50 16.66 50 17.32 50 18 C39.72623647 16.0504219 29.82832502 13.47683622 19.9375 10.0625 C18.98738037 9.73894531 18.03726074 9.41539062 17.05834961 9.08203125 C11.00384062 6.93895512 5.50603755 4.30498016 0 1 C0 0.67 0 0.34 0 0 Z " fill="#070707" transform="translate(154,450)"/>
<path d="M0 0 C0 4.08709574 -1.58135894 5.18430207 -4.1875 8.3125 C-9.03757931 14.34920586 -13.06507611 20.77505227 -17 27.4375 C-17.56356201 28.38471924 -18.12712402 29.33193848 -18.70776367 30.30786133 C-21.31349169 34.77442722 -23.65479547 38.96389053 -25 44 C-25.66 44 -26.32 44 -27 44 C-23.77779885 32.31952082 -17.0626929 22.36270742 -10.3125 12.4375 C-9.86132812 11.77097412 -9.41015625 11.10444824 -8.9453125 10.41772461 C-6.25767443 6.54045201 -3.44073949 3.22995545 0 0 Z " fill="#1B1B1B" transform="translate(77,110)"/>
<path d="M0 0 C7.84489627 7.35459025 13.63499141 15.71472494 19.0625 24.9375 C19.56410645 25.77877441 20.06571289 26.62004883 20.58251953 27.48681641 C21.04126465 28.28394043 21.50000977 29.08106445 21.97265625 29.90234375 C22.38781494 30.61898193 22.80297363 31.33562012 23.23071289 32.07397461 C24 34 24 34 23 37 C22.12601562 35.45505859 22.12601562 35.45505859 21.234375 33.87890625 C16.18700661 25.07285928 10.833526 16.64960908 4.84863281 8.44750977 C4.36104492 7.77647217 3.87345703 7.10543457 3.37109375 6.4140625 C2.7203186 5.53161865 2.7203186 5.53161865 2.05639648 4.63134766 C1 3 1 3 0 0 Z " fill="#141414" transform="translate(423,111)"/>
<path d="M0 0 C0.66 0.33 1.32 0.66 2 1 C1.42032471 1.57443848 0.84064941 2.14887695 0.2434082 2.74072266 C-2.40290094 5.3661364 -5.04522577 7.99552572 -7.6875 10.625 C-8.59951172 11.52863281 -9.51152344 12.43226562 -10.45117188 13.36328125 C-14.85875243 17.75483424 -19.14414522 22.11321141 -23 27 C-23 23.58389411 -22.64566922 23.21092858 -20.5078125 20.7421875 C-19.9718042 20.12029541 -19.4357959 19.49840332 -18.88354492 18.85766602 C-18.3032251 18.20338623 -17.72290527 17.54910645 -17.125 16.875 C-16.54016846 16.20718506 -15.95533691 15.53937012 -15.3527832 14.85131836 C-10.5757142 9.47492188 -5.53068354 4.60682218 0 0 Z " fill="#161616" transform="translate(102,83)"/>
<path d="M0 0 C0.66 0 1.32 0 2 0 C0.87510915 3.37467255 0.51655212 3.57939839 -2.421875 5.2265625 C-3.46601563 5.814375 -3.46601563 5.814375 -4.53125 6.4140625 C-5.62953125 7.01347656 -5.62953125 7.01347656 -6.75 7.625 C-7.46671875 8.03234375 -8.1834375 8.4396875 -8.921875 8.859375 C-12.5846931 10.8927777 -15.76994952 12.51704148 -20 13 C-17.91913427 10.76172413 -15.91870249 9.23910057 -13.2421875 7.7734375 C-12.18064453 7.185625 -12.18064453 7.185625 -11.09765625 6.5859375 C-10.36417969 6.18632812 -9.63070313 5.78671875 -8.875 5.375 C-7.4132991 4.57170003 -5.95232197 3.76708121 -4.4921875 2.9609375 C-3.52321533 2.43185791 -3.52321533 2.43185791 -2.53466797 1.89208984 C-1.00542373 1.0907462 -1.00542373 1.0907462 0 0 Z " fill="#1B1B1B" transform="translate(370,435)"/>
<path d="M0 0 C4.56736441 0.70062483 8.5699505 2.31270207 12.8125 4.0625 C13.50537109 4.34416016 14.19824219 4.62582031 14.91210938 4.91601562 C16.60967624 5.60674973 18.30506312 6.30283728 20 7 C19.67 7.66 19.34 8.32 19 9 C12.04634211 7.21440518 6.12685097 4.7441867 0 1 C0 0.67 0 0.34 0 0 Z " fill="#151515" transform="translate(154,450)"/>
<path d="M0 0 C0.66 0.33 1.32 0.66 2 1 C-0.64 3.64 -3.28 6.28 -6 9 C-6 6 -6 6 -3.5625 3.375 C-2.716875 2.59125 -1.87125 1.8075 -1 1 C-0.67 0.67 -0.34 0.34 0 0 Z " fill="#282828" transform="translate(157,162)"/>
</svg>
