<?xml version="1.0" encoding="UTF-8"?>
<svg version="1.1" xmlns="http://www.w3.org/2000/svg" width="512" height="512">
<path d="M0 0 C1.95320915 -0.00856522 1.95320915 -0.00856522 3.94587708 -0.01730347 C5.38212576 -0.0185487 6.81837455 -0.01967382 8.25462341 -0.02069092 C9.77281819 -0.02532226 11.29101182 -0.03034735 12.8092041 -0.03573608 C16.92941663 -0.04883514 21.04961287 -0.05530064 25.16984296 -0.05974674 C27.74810773 -0.06268264 30.32636811 -0.0667885 32.90463066 -0.07125092 C40.98308941 -0.08492179 49.06153804 -0.09458939 57.14000756 -0.09845281 C66.44301485 -0.10292702 75.74587474 -0.12044701 85.04883724 -0.1494534 C92.2533153 -0.17113105 99.45775208 -0.18116039 106.66226238 -0.18249393 C110.95843775 -0.18353798 115.25447449 -0.18935965 119.55061531 -0.20731354 C123.59803767 -0.22389886 127.64521877 -0.22589951 131.69266319 -0.21717453 C133.16957372 -0.21640961 134.64649779 -0.22067406 136.12337494 -0.23063278 C154.43988946 -0.34679299 170.02799031 4.32702303 183.55711365 17.14044189 C189.87929196 23.97489157 194.99328033 31.92026585 200.32273865 39.53497314 C203.67844083 44.32456893 207.07748985 49.08201814 210.49461365 53.82794189 C211.0259491 54.56979736 211.55728455 55.31165283 212.10472107 56.07598877 C218.05883699 64.81630221 218.05883699 64.81630221 226.43211365 70.95294189 C227.23391052 71.35126221 228.0357074 71.74958252 228.86180115 72.15997314 C235.63018423 74.6220951 242.74781049 74.28069305 249.85398865 74.26641846 C251.53113197 74.26922066 251.53113197 74.26922066 253.24215698 74.27207947 C255.66365835 74.27607338 258.08516346 74.27815738 260.50666809 74.27854156 C266.3408294 74.28241826 272.17488251 74.30852377 278.00899315 74.33175802 C286.94676044 74.36671082 295.88440885 74.39342909 304.82225037 74.39093018 C311.51545022 74.38915954 318.20812509 74.41366047 324.90122986 74.45281219 C327.43986454 74.4632185 329.97855225 74.46483623 332.51719666 74.45716095 C353.94079642 74.39886743 370.39756041 76.54837886 386.74461365 91.70294189 C404.40059469 110.31330029 404.17887665 132.56625172 404.09441566 156.70784187 C404.08415633 160.56669308 404.09371666 164.42550974 404.09996033 168.28436279 C404.10719966 174.75973443 404.09774751 181.23492247 404.07859802 187.71026611 C404.05683637 195.15399121 404.0638904 202.59727777 404.08590364 210.04099226 C404.10416449 216.47806739 404.10656425 222.91501195 404.09614897 229.35210466 C404.08997222 233.17653603 404.08891494 237.00076256 404.10229492 240.82518005 C404.17287607 264.23650873 403.87751931 286.12589095 386.71336365 304.14825439 C372.19297763 317.56382844 354.97873387 321.61936695 335.66226196 321.52812195 C334.20226185 321.53230457 332.742265 321.53778713 331.28227407 321.54444176 C327.30631232 321.55879363 323.33055966 321.55468409 319.35458696 321.54727495 C315.05247304 321.54251991 310.75040285 321.5550737 306.44830322 321.56529236 C298.03384489 321.58244052 289.61946137 321.58332861 281.20499011 321.57807945 C274.36141753 321.57402885 267.51786696 321.57549187 260.67429543 321.58082771 C259.69819848 321.58157614 258.72210154 321.58232456 257.7164259 321.58309566 C255.73311954 321.58462723 253.74981318 321.58616557 251.76650683 321.58771063 C233.1900139 321.60142143 214.61356316 321.59600812 196.03707121 321.58452541 C179.06756628 321.57459597 162.09817044 321.58753126 145.12868234 321.61145961 C127.67627067 321.63588222 110.22390974 321.64545062 92.77148134 321.63880688 C82.98455623 321.6353215 73.19771496 321.63750154 63.41080284 321.65505791 C55.07893938 321.66981955 46.7472188 321.67036381 38.41535803 321.652987 C34.17026247 321.64450687 29.92542171 321.64225368 25.68033981 321.65763855 C21.78348166 321.67158572 17.88709417 321.66659569 13.99026255 321.64739931 C12.59131915 321.64366941 11.19233712 321.64647287 9.79342844 321.65701097 C-8.50920863 321.78492544 -25.89658086 317.20537569 -39.45069885 304.29669189 C-54.83726767 287.64299388 -56.90141642 268.63143771 -56.83106995 247.04278564 C-56.8351418 244.93390634 -56.84048711 242.82502918 -56.84700012 240.71615601 C-56.86060641 235.02196586 -56.85540278 229.32793989 -56.84586287 223.6337471 C-56.83823149 217.65542429 -56.8453215 211.6771149 -56.85002136 205.6987915 C-56.85546881 195.66206354 -56.84831385 185.62540195 -56.83399963 175.58868408 C-56.81767512 164.00917841 -56.82296434 152.42983124 -56.83947885 140.8503294 C-56.85312254 130.88220463 -56.8549993 120.91412738 -56.84716284 110.94599628 C-56.84250217 105.00393898 -56.84181713 99.061956 -56.85177231 93.11990356 C-56.86048171 87.53177398 -56.85434775 81.94384741 -56.83708954 76.35573959 C-56.83314586 74.31324474 -56.8342221 72.2707326 -56.84087753 70.22824478 C-56.90051604 50.05542103 -54.19926301 32.4048944 -39.76856995 17.20245361 C-29.26766507 6.744192 -14.88696289 0.03918208 0 0 Z M31.55711365 158.14044189 C29.70104407 163.70865062 29.64558449 169.17153892 32.11961365 174.51544189 C35.92020142 178.60838257 39.60826715 180.85986788 45.08518982 181.64837646 C46.32760437 181.65155884 47.57001892 181.65474121 48.8500824 181.65802002 C49.54211761 181.6650293 50.23415283 181.67203857 50.94715881 181.67926025 C53.21339672 181.6967308 55.47836514 181.68525806 57.74461365 181.67169189 C59.33209978 181.67438999 60.91958431 181.67827505 62.50706482 181.68328857 C65.82566646 181.68916876 69.1438359 181.68066898 72.46238708 181.66192627 C76.70260017 181.63913708 80.94180034 181.6522682 85.18197632 181.67621613 C88.45754032 181.69071453 91.7328667 181.68604974 95.00843811 181.67570496 C96.57124453 181.67304881 98.13407297 181.67626808 99.69685364 181.68562317 C101.88652666 181.69585639 104.07459082 181.68019691 106.2641449 181.65802002 C108.12776672 181.65324646 108.12776672 181.65324646 110.02903748 181.64837646 C115.50596015 180.85986788 119.19402588 178.60838257 122.99461365 174.51544189 C125.11219672 169.94146246 125.23119826 166.10037312 124.55711365 161.14044189 C122.71692354 156.53996663 119.44138882 154.05364827 115.55711365 151.14044189 C112.13896952 150.00106052 109.49137957 149.9995077 105.88597107 149.97930908 C104.87564568 149.97186172 104.87564568 149.97186172 103.84490967 149.96426392 C101.61745682 149.949664 99.39007522 149.94284355 97.1625824 149.93731689 C95.61182656 149.93156316 94.06107075 149.92580545 92.51031494 149.92004395 C89.25792612 149.90953979 86.00556197 149.90369346 82.75315857 149.90020752 C78.59365056 149.89472741 74.43447065 149.87070748 70.27506542 149.84223557 C67.07080139 149.823574 63.86661579 149.8184017 60.66230202 149.81687164 C59.12935405 149.81385195 57.59640725 149.80584652 56.0635128 149.79268646 C53.91423769 149.77555352 51.76575627 149.77752346 49.61643982 149.78399658 C47.78468452 149.77852814 47.78468452 149.77852814 45.91592407 149.77294922 C39.60712705 150.46320452 35.66260712 153.44844936 31.55711365 158.14044189 Z M33.55711365 209.20294189 C30.12995545 214.2365805 29.89942705 218.11936741 30.55711365 224.14044189 C32.90504023 229.01690479 35.84472219 231.54381803 40.55711365 234.14044189 C44.35200059 235.1238161 47.94617861 235.27727104 51.85691833 235.30157471 C53.10881958 235.31118225 54.36072083 235.32078979 55.65055847 235.33068848 C57.01003333 235.3355378 58.36951032 235.3398163 59.72898865 235.34356689 C60.76438656 235.34780796 60.76438656 235.34780796 61.8207016 235.3521347 C65.4750303 235.36709174 69.12931989 235.37634265 72.78367615 235.38067627 C76.53704393 235.38614972 80.29004691 235.41016356 84.04330063 235.43864822 C86.94829821 235.45737815 89.8532098 235.46248571 92.75826263 235.46401215 C94.14080546 235.4670169 95.52334756 235.4749708 96.90583038 235.48819733 C109.32644212 235.90508226 109.32644212 235.90508226 120.16764832 230.68835449 C124.2471011 225.9602033 124.91304752 222.73967571 124.8344574 216.67950439 C124.42334921 212.91583787 123.07425005 210.92254002 120.55711365 208.14044189 C114.87586004 203.66796565 110.33106217 203.0232696 103.25730896 202.97930908 C101.37945709 202.96489777 101.37945709 202.96489777 99.46366882 202.95019531 C98.10419397 202.94534599 96.74471698 202.94106749 95.38523865 202.93731689 C94.34984074 202.93307583 94.34984074 202.93307583 93.2935257 202.92874908 C89.639197 202.91379204 85.98490741 202.90454114 82.33055115 202.90020752 C78.57718337 202.89473407 74.82418039 202.87072023 71.07092667 202.84223557 C68.16592909 202.82350564 65.26101749 202.81839808 62.35596466 202.81687164 C60.97342184 202.81386689 59.59087973 202.80591299 58.20839691 202.79268646 C44.61373582 202.39199562 44.61373582 202.39199562 33.55711365 209.20294189 Z " fill="#FFFFFF" transform="translate(82.44288635253906,164.85955810546875)"/>
<path d="M0 0 C1.09732549 -0.00445668 1.09732549 -0.00445668 2.21681917 -0.0090034 C4.66314299 -0.01766071 7.1094177 -0.01919614 9.55575562 -0.02069092 C11.31202295 -0.02532127 13.06828928 -0.03034623 14.82455444 -0.03573608 C19.59343952 -0.048843 24.36231053 -0.05530196 29.1312108 -0.05974674 C32.11350092 -0.06268083 35.09578722 -0.06678632 38.07807541 -0.07125092 C47.41715496 -0.08492268 56.75622576 -0.09459034 66.09531462 -0.09845281 C76.8602663 -0.1029299 87.62509078 -0.12046295 98.3900038 -0.1494534 C106.72057116 -0.17110573 115.05110283 -0.18115902 123.38169801 -0.18249393 C128.35244222 -0.1835396 133.32306681 -0.18939664 138.29378128 -0.20731354 C142.9740089 -0.2238552 147.65402776 -0.22592026 152.33427429 -0.21717453 C154.04542477 -0.21640735 155.75658675 -0.22070443 157.46770859 -0.23063278 C171.5636921 -0.30757821 183.5706257 0.80532734 194.38925171 10.64044189 C195.13175171 11.46544189 195.87425171 12.29044189 196.63925171 13.14044189 C197.31987671 13.88294189 198.00050171 14.62544189 198.70175171 15.39044189 C203.63322491 22.38995225 205.7659993 29.35459703 205.75950623 37.84753418 C205.76078786 38.85721461 205.76078786 38.85721461 205.76209539 39.88729262 C205.76374164 42.1412992 205.75824282 44.39523124 205.7527771 46.64923096 C205.75249502 48.26556395 205.75265337 49.88189707 205.7532196 51.49822998 C205.75350676 55.88629413 205.74762323 60.274331 205.74064565 64.6623888 C205.73439851 69.24815038 205.73380723 73.83391256 205.73262024 78.41967773 C205.72951095 87.10354574 205.72130295 95.78740118 205.71127075 104.47126365 C205.70009716 114.35750275 205.69459602 124.24374244 205.68957531 134.12998629 C205.67912002 154.46681184 205.66152833 174.80362608 205.63925171 195.14044189 C204.80550695 195.03573373 204.80550695 195.03573373 203.95491886 194.92891026 C198.80207142 194.31406771 193.7360129 193.97853233 188.54916382 193.93511963 C187.79682465 193.92522003 187.04448547 193.91532043 186.26934814 193.90512085 C183.81846099 193.87389926 181.36755455 193.84890666 178.91659546 193.82403564 C177.20309487 193.80343199 175.48959897 193.78243471 173.77610779 193.76106262 C169.29310943 193.70619386 164.81006792 193.65663123 160.32699585 193.60821533 C155.74158952 193.55774126 151.15624489 193.50219121 146.57089233 193.44708252 C137.59373167 193.33993227 128.61651713 193.2383938 119.63925171 193.14044189 C119.63338547 192.08158783 119.62751923 191.02273376 119.62147522 189.93179321 C119.56398983 179.89959897 119.49109597 169.86761613 119.4035368 159.83563805 C119.35901732 154.67944306 119.31972173 149.52332376 119.29281616 144.36700439 C119.26659797 139.38069624 119.22606801 134.39468223 119.17606544 129.40855789 C119.1595209 127.51664545 119.14793006 125.62468229 119.1416378 123.73270798 C119.057268 100.67288111 114.42837193 80.63409992 98.26425171 63.26544189 C80.49110884 46.72085729 59.48625344 44.69473622 36.49472046 44.62872314 C34.27126592 44.61185096 32.04782077 44.59369736 29.8243866 44.57432556 C24.01309139 44.52709525 18.20183427 44.49711206 12.39041138 44.47088623 C6.4439848 44.44094379 0.49768913 44.39446088 -5.44863892 44.34942627 C-17.08593984 44.2637004 -28.72326794 44.19621937 -40.36074829 44.14044189 C-40.40844307 42.09770458 -40.44214145 40.05463807 -40.47012329 38.01153564 C-40.49042603 36.87385742 -40.51072876 35.7361792 -40.53164673 34.56402588 C-40.02209697 24.35628838 -34.70100998 15.94361127 -27.36074829 9.14044189 C-26.63887329 8.45981689 -25.91699829 7.77919189 -25.17324829 7.07794189 C-17.46902963 1.77059126 -9.2195841 0.02095946 0 0 Z " fill="#FFFFFF" transform="translate(237.36074829101563,25.85955810546875)"/>
<path d="M0 0 C0.77984739 -0.00297112 1.55969478 -0.00594224 2.3631739 -0.0090034 C4.97299743 -0.01766597 7.58277494 -0.0191966 10.19261169 -0.02069092 C12.06548154 -0.02532093 13.93835045 -0.03034584 15.81121826 -0.03573608 C20.89834218 -0.04884699 25.9854529 -0.05530283 31.07259107 -0.05974674 C34.2538904 -0.0626804 37.43518616 -0.06678583 40.61648369 -0.07125092 C50.5786686 -0.08492421 60.5408453 -0.09459092 70.50303894 -0.09845281 C81.98621362 -0.10292918 93.469269 -0.1204583 104.95240742 -0.1494534 C113.83839966 -0.17110817 122.72435844 -0.18115916 131.61037678 -0.18249393 C136.91258549 -0.1835395 142.21468204 -0.18939426 147.51686287 -0.20731354 C152.50980523 -0.22385922 157.50255191 -0.2259183 162.49551201 -0.21717453 C164.32073365 -0.21640755 166.1459661 -0.22070182 167.97116089 -0.23063278 C184.5666888 -0.31558043 199.79131722 1.62364734 212.56932068 13.39044189 C221.78238116 23.33610718 226.36234744 34.41809184 226.30393982 47.85626221 C226.30408585 48.73466766 226.30423187 49.61307312 226.30438232 50.51809692 C226.30368628 53.4182788 226.29590829 56.31839625 226.28807068 59.21856689 C226.2862054 61.23067184 226.28478202 63.24277725 226.28378296 65.25488281 C226.27996641 70.54849503 226.27014345 75.84207978 226.25907898 81.13568115 C226.24884635 86.53830595 226.24428137 91.9409352 226.23924255 97.34356689 C226.22852043 107.94253729 226.21145432 118.54148731 226.19041443 129.14044189 C223.29300821 129.27583471 220.40195822 129.37471018 217.50291443 129.45294189 C216.27798279 129.51578369 216.27798279 129.51578369 215.02830505 129.57989502 C210.5740482 129.67006216 208.8008536 129.62957427 205.20654297 126.74952698 C201.73692305 122.25946923 201.73692305 122.25946923 200.28025818 120.05841064 C199.77123962 119.2989917 199.26222107 118.53957275 198.73777771 117.75714111 C198.20652283 116.95550537 197.67526794 116.15386963 197.12791443 115.32794189 C191.484097 106.94390471 185.59074364 98.8062418 179.44187927 90.78692627 C178.36647621 89.37207683 177.31683422 87.93771232 176.27244568 86.49981689 C164.43053436 70.41056921 147.37298663 60.21439565 127.8374176 56.50352478 C113.51086522 54.60979751 99.11300055 54.86400196 84.69061804 54.90472245 C80.85934482 54.91363153 77.02807408 54.91174305 73.1967926 54.91136169 C66.77032913 54.91229269 60.34391343 54.92090009 53.91746521 54.93463135 C46.52780042 54.95036412 39.13818772 54.9556286 31.74850738 54.95489579 C23.81900706 54.95421614 15.88952633 54.96117804 7.96003199 54.9703424 C5.70141555 54.97245554 3.44280236 54.97318106 1.18418503 54.97358131 C-2.38648068 54.97459891 -5.95710408 54.98080852 -9.52775574 54.99074745 C-11.43434718 54.99497729 -13.34094733 54.99450828 -15.24754333 54.99380493 C-23.80826487 55.02490399 -32.27726385 55.48450969 -40.80958557 56.14044189 C-40.92230029 52.20303707 -40.99738635 48.26648553 -41.05958557 44.32794189 C-41.0931012 43.22772705 -41.12661682 42.12751221 -41.16114807 40.99395752 C-41.29689271 29.48959905 -38.29350471 20.04620097 -30.37208557 11.51544189 C-29.52646057 10.73169189 -28.68083557 9.94794189 -27.80958557 9.14044189 C-27.08771057 8.45981689 -26.36583557 7.77919189 -25.62208557 7.07794189 C-17.77755291 1.67393051 -9.37101489 -0.01121038 0 0 Z " fill="#FFFFFF" transform="translate(109.80958557128906,89.85955810546875)"/>
</svg>
