<?xml version="1.0" encoding="UTF-8"?>
<svg version="1.1" xmlns="http://www.w3.org/2000/svg" width="512" height="512">
<path d="M0 0 C0.9392945 -0.00538554 1.878589 -0.01077108 2.84634697 -0.01631981 C5.96590819 -0.03052586 9.08504065 -0.02351385 12.20462036 -0.01637268 C14.45260965 -0.0220801 16.70059603 -0.0290458 18.94857788 -0.03717041 C25.03541615 -0.05507613 31.12211006 -0.05393819 37.20896673 -0.04822803 C42.29830016 -0.04513231 47.38760601 -0.05123293 52.47693551 -0.05726677 C65.17333442 -0.07210359 77.86963154 -0.06850573 90.5660242 -0.05640347 C101.56984095 -0.0464744 112.57348946 -0.05940979 123.57728027 -0.08333766 C134.90040118 -0.1077727 146.22342174 -0.11692673 157.54657662 -0.11068493 C163.89388543 -0.10732002 170.2410553 -0.10969962 176.58834457 -0.12693596 C182.55894882 -0.14244252 188.52923276 -0.13840808 194.49982452 -0.11963081 C196.68464473 -0.11595518 198.86948886 -0.11902329 201.05428696 -0.1295166 C220.17704661 -0.2143129 234.49993334 2.92088022 249.08010864 16.10643005 C251.34091406 18.60229085 252.78300357 21.12566549 254.39651489 24.07518005 C257.85040883 29.88763583 261.52561814 31.21688843 267.80667114 33.23143005 C283.06620408 38.51426251 296.08678302 52.30525998 303.45901489 66.32518005 C309.5607187 79.2415585 310.29683275 91.81230782 310.28695679 105.87780762 C310.28954346 107.35482578 310.29255747 108.83184325 310.29596019 110.30885977 C310.30399791 114.3549943 310.30581795 118.40111106 310.30655766 122.44725263 C310.30841385 126.81622437 310.31596403 131.185187 310.32269287 135.55415344 C310.33625379 145.10190177 310.34229742 154.64964589 310.34670353 164.19740224 C310.34946976 170.16358927 310.35370781 176.12977468 310.3582077 182.09596062 C310.37039747 198.62760981 310.38069734 215.15925771 310.38408279 231.69091129 C310.38430236 232.74822933 310.38452193 233.80554737 310.38474815 234.89490535 C310.38496642 235.95469499 310.3851847 237.01448463 310.38540959 238.10638911 C310.38585305 240.25378231 310.38629962 242.40117552 310.38674927 244.54856873 C310.3869707 245.61374076 310.38719213 246.67891279 310.38742027 247.77636277 C310.39136659 265.0281326 310.40881688 282.27986015 310.43210879 299.53161366 C310.45585116 317.26070559 310.46828596 334.98977633 310.46945071 352.71888441 C310.47036585 362.66625138 310.47607755 372.61356325 310.49427032 382.56091499 C310.50971029 391.03270358 310.51476885 399.50442003 310.50653222 407.97622002 C310.50263948 412.29403142 310.50348762 416.61169772 310.51758957 420.92949104 C310.53041147 424.89179652 310.52905915 428.85384911 310.51699886 432.81615465 C310.5150561 434.24013236 310.51805355 435.66412851 310.52684322 437.08808041 C310.63480725 455.7806597 306.85323652 472.43753772 295.14651489 487.38768005 C294.61284302 488.08635193 294.07917114 488.7850238 293.52932739 489.50486755 C283.45510898 501.89278206 268.56316934 509.14354993 253.14651489 512.38768005 C249.06382802 512.78343997 245.01668096 512.80220539 240.91703796 512.78208923 C239.14307873 512.79122589 239.14307873 512.79122589 237.33328193 512.80054712 C234.08210034 512.81422493 230.83124352 512.81465619 227.5800482 512.80917215 C224.06203846 512.80648579 220.54409158 512.82106291 217.02610779 512.83326721 C210.14878173 512.8542493 203.27154009 512.85886649 196.39418579 512.85707933 C190.80618058 512.85576915 185.21820161 512.8595888 179.63020134 512.86700439 C178.01771146 512.86910364 176.40522158 512.87120124 174.7927317 512.87329721 C173.99008709 512.87434074 173.18744247 512.87538427 172.36047529 512.87645942 C157.20749331 512.89532933 142.05455983 512.8943203 126.90157097 512.88749009 C113.03419755 512.88190513 99.16700832 512.90278631 85.29967798 512.93585056 C71.05209816 512.96955769 56.80460672 512.98476042 42.55698627 512.98013353 C34.56113695 512.97788736 26.56545828 512.98315497 18.56964302 513.00802612 C11.76933588 513.0289997 4.96929321 513.03266973 -1.83102464 513.01372653 C-5.30105544 513.00454778 -8.77059254 513.00349047 -12.24058533 513.02408218 C-15.99847865 513.04213262 -19.7550423 513.02962977 -23.51289368 513.00914001 C-24.6143321 513.02165786 -25.71577053 513.03417571 -26.85058588 513.04707289 C-34.18098494 512.96091401 -34.18098494 512.96091401 -37.56617832 510.07540131 C-39.32372053 506.40589253 -38.92990338 504.26278582 -37.85348511 500.38768005 C-36.24045511 498.24034481 -35.38761537 497.48197807 -32.71971619 497.01097387 C-31.88644204 497.01015941 -31.0531679 497.00934496 -30.19464302 497.00850582 C-29.23178639 497.00028268 -28.26892975 496.99205953 -27.27689564 496.98358721 C-26.21670905 496.98979902 -25.15652245 496.99601084 -24.06420898 497.00241089 C-22.93967406 496.99717519 -21.81513914 496.9919395 -20.6565274 496.98654515 C-16.8680686 496.97251673 -13.07994715 496.97990241 -9.29147339 496.98704529 C-6.58308433 496.98297981 -3.87471444 496.97437179 -1.16633606 496.96589661 C4.67766802 496.94989921 10.52160275 496.94464793 16.36562729 496.94642448 C24.82929382 496.94880723 33.29284956 496.93282146 41.75648715 496.91197193 C55.50627997 496.87841662 69.2560629 496.85677647 83.00588989 496.84397888 C84.24083052 496.84282465 84.24083052 496.84282465 85.50071944 496.8416471 C88.8357576 496.83854538 92.17079578 496.83546255 95.50583398 496.83240705 C104.66503477 496.82389275 113.82423208 496.81298788 122.98342896 496.80101013 C123.80268832 496.79994211 124.62194768 496.79887409 125.46603309 496.79777371 C139.15178641 496.77964781 152.83751637 496.75363217 166.52324688 496.72287899 C174.95854141 496.70437056 183.39378329 496.69341205 191.82909842 496.69235707 C197.61893892 496.69124909 203.40874346 496.68325426 209.19856875 496.66997343 C212.53383179 496.66259307 215.86895008 496.65953677 219.20422935 496.66309166 C222.83203418 496.66651353 226.45961915 496.65766126 230.08740234 496.64596558 C231.64422141 496.65193722 231.64422141 496.65193722 233.23249137 496.6580295 C250.15915731 496.56191598 265.30993957 492.980095 278.14651489 481.38768005 C290.99403064 466.93970586 293.45457467 451.88016116 293.4211731 433.22044373 C293.42552766 431.60461188 293.43071327 429.98878209 293.43666077 428.37295532 C293.44998302 424.00915391 293.45063695 419.64543946 293.44809747 415.28162169 C293.44702299 411.62642044 293.45192335 407.97123644 293.45670289 404.31603891 C293.46777499 395.68552774 293.46824866 387.05506011 293.46218872 378.42454529 C293.45615247 369.54951967 293.46845638 360.67465274 293.48975879 351.79965419 C293.50742848 344.15429182 293.51336765 336.50897971 293.51012105 328.86359769 C293.50831635 324.30870164 293.51086243 319.75391875 293.52483559 315.19904137 C293.5374968 310.91187317 293.53539225 306.62495055 293.5224247 302.33778572 C293.52007718 300.77421863 293.52272724 299.21063381 293.53104782 297.6470871 C293.62005525 279.60504307 290.3347662 263.91462286 277.48245239 250.5712738 C264.46114956 238.39918637 248.73514448 236.23871858 231.64651489 236.24583435 C230.28067412 236.2427984 228.91483435 236.23927575 227.54899597 236.23530579 C224.61674896 236.22744713 221.68451394 236.22228324 218.7522583 236.21901512 C214.10165755 236.21307023 209.45113194 236.19649529 204.80056763 236.17767334 C203.20332341 236.17133656 201.60607914 236.16501093 200.00883484 236.15869617 C199.20909304 236.15553036 198.40935123 236.15236455 197.58537483 236.14910281 C186.76869141 236.10717085 175.95204372 236.0740865 165.13528442 236.06175232 C157.82569477 236.05333203 150.51629253 236.03069596 143.20679665 235.99239665 C139.34816704 235.97276884 135.48981669 235.96018669 131.63113403 235.96523094 C127.9931049 235.96992904 124.35560302 235.95579603 120.71767998 235.92821884 C118.77284412 235.91817997 116.82793721 235.92747161 114.88310242 235.93771362 C95.49065546 235.73570982 79.0282376 228.57675027 64.92776489 215.48924255 C56.39966309 206.49143726 50.16586506 194.85188159 43.41311646 184.49095154 C38.74971012 177.34011457 34.07314299 170.19914241 29.25198364 163.15330505 C28.5625769 162.14429138 27.87317017 161.13527771 27.16287231 160.09568787 C18.52799088 148.49887168 6.02761995 143.05919595 -7.85348511 140.38768005 C-12.25878148 139.99616889 -16.63010675 139.97641276 -21.05075073 139.99949646 C-22.31094528 139.9942395 -23.57113983 139.98898254 -24.86952209 139.98356628 C-28.28901999 139.9700297 -31.70824271 139.97513393 -35.12774467 139.98470354 C-38.72956891 139.99237183 -42.33137172 139.98523485 -45.93319702 139.98054504 C-51.97844615 139.97510814 -58.02358483 139.9822245 -64.06881714 139.99656677 C-71.02851098 140.01288935 -77.98794104 140.00759937 -84.9476285 139.99108756 C-90.95482509 139.97741343 -96.96194291 139.9755818 -102.96915007 139.98340356 C-106.54309116 139.98804771 -110.11690883 139.98879589 -113.69084167 139.9787941 C-117.6794563 139.96840872 -121.66762598 139.98285786 -125.65621948 139.99949646 C-126.81917038 139.99342377 -127.98212128 139.98735107 -129.18031311 139.98109436 C-144.97161883 140.10238101 -159.08508288 144.85868 -170.59957886 155.91111755 C-181.58865998 167.98577514 -185.00780656 182.06076413 -184.993927 197.96826172 C-184.99689812 199.03410663 -184.99986925 200.09995154 -185.0029304 201.19809479 C-185.0116024 204.76984276 -185.0131244 208.34155715 -185.01461792 211.91331482 C-185.0192472 214.47435579 -185.02427201 217.03539607 -185.02966309 219.59643555 C-185.04277961 226.55540913 -185.04926777 233.51437169 -185.05367374 240.47335553 C-185.05644052 244.82304776 -185.06067871 249.17273778 -185.06517792 253.52242851 C-185.07736845 265.57781236 -185.08766762 277.63319445 -185.09105301 289.68858433 C-185.09127258 290.45961744 -185.09149214 291.23065056 -185.09171836 292.02504831 C-185.09193664 292.79787511 -185.09215492 293.57070191 -185.09237981 294.36694771 C-185.09282327 295.93285914 -185.09326983 297.49877058 -185.09371948 299.06468201 C-185.09394091 299.84142003 -185.09416234 300.61815806 -185.09439048 301.4184336 C-185.09833515 313.99315711 -185.11577999 326.56782255 -185.139079 339.14252365 C-185.16283536 352.06899053 -185.17525684 364.99542833 -185.17642093 377.92191738 C-185.17733538 385.17306014 -185.1830293 392.42412726 -185.20124054 399.6752491 C-185.21832152 406.50016355 -185.21986221 413.32493266 -185.21110153 420.14986229 C-185.21033272 422.64871225 -185.21465324 425.14757001 -185.22455978 427.64640045 C-185.29746506 447.18915713 -184.78337317 465.67976508 -170.56051636 480.84080505 C-155.4003777 494.5785966 -137.94478215 496.67891673 -118.34116936 496.66207504 C-115.82270312 496.66109493 -113.30464653 496.67421796 -110.78623962 496.6910553 C-103.63721643 496.73692753 -96.48824672 496.76197557 -89.33908081 496.76853943 C-84.94079101 496.77354757 -80.54294674 496.79773664 -76.14480782 496.83386612 C-74.47628005 496.84365665 -72.80769105 496.84600012 -71.13914299 496.84069443 C-68.81548818 496.83363916 -66.49317503 496.85086391 -64.16964722 496.8735199 C-62.8498436 496.87636993 -61.53003998 496.87921997 -60.17024231 496.88215637 C-56.85348511 497.38768005 -56.85348511 497.38768005 -54.42747498 499.20106506 C-52.12567537 502.39876641 -52.30497855 504.54813418 -52.85348511 508.38768005 C-54.36535645 510.57408142 -54.36535645 510.57408142 -56.85348511 512.38768005 C-59.75061355 512.7824487 -62.26741897 512.93507385 -65.1635437 512.90525818 C-66.41815903 512.91577209 -66.41815903 512.91577209 -67.69812012 512.92649841 C-70.46639147 512.94411417 -73.23364057 512.93243255 -76.00192261 512.91893005 C-77.93565058 512.92162648 -79.86937724 512.92551015 -81.80310059 512.93052673 C-85.86348329 512.93642874 -89.92351438 512.92784561 -93.9838562 512.90916443 C-99.15271687 512.88652679 -104.32073972 512.89939636 -109.48956871 512.92345428 C-113.48942172 512.93802403 -117.48908184 512.93325293 -121.48894119 512.92294312 C-123.39205655 512.9202986 -125.29519016 512.92346426 -127.19828415 512.93286133 C-149.02441856 513.0168874 -166.61411142 507.78840064 -182.85348511 492.38768005 C-195.37545415 479.35776517 -201.96420932 461.93071607 -201.98491287 443.94599152 C-201.98875402 442.68728225 -201.99259516 441.42857299 -201.99655271 440.13172102 C-201.99577261 438.74776167 -201.99489385 437.36380237 -201.993927 435.97984314 C-201.99651292 434.49956323 -201.99952671 433.01928401 -202.0029304 431.53900576 C-202.01097722 427.47921032 -202.01278868 423.41943258 -202.01352787 419.35963011 C-202.0153825 414.97768908 -202.02293195 410.59575715 -202.02966309 406.21382141 C-202.04323101 396.63502312 -202.04926888 387.05622902 -202.05367374 377.47742271 C-202.05643908 371.49231249 -202.060677 365.50720387 -202.06517792 359.52209473 C-202.07736916 342.93987377 -202.08766838 326.35765411 -202.09105301 309.77542877 C-202.09127258 308.714608 -202.09149214 307.65378723 -202.09171836 306.56082037 C-202.09193664 305.49750769 -202.09215492 304.434195 -202.09237981 303.33866072 C-202.09282327 301.18410206 -202.09326983 299.0295434 -202.09371948 296.87498474 C-202.09394091 295.80625659 -202.09416234 294.73752844 -202.09439048 293.63641459 C-202.09833623 276.32961576 -202.1157841 259.0228591 -202.139079 241.71607655 C-202.16282137 223.93277569 -202.17525619 206.14949595 -202.17642093 188.36617899 C-202.17733613 178.38749806 -202.18304926 168.40887206 -202.20124054 158.4302063 C-202.21668057 149.93094519 -202.22173907 141.43175597 -202.21350244 132.93248349 C-202.20960956 128.60050236 -202.21045845 124.26866584 -202.22455978 119.93670273 C-202.23738106 115.96140466 -202.23602988 111.98635866 -202.22396907 108.01106054 C-202.22202619 106.58234234 -202.22502434 105.15360578 -202.23381343 103.7249133 C-202.30626873 91.1376693 -201.25284213 78.25365052 -195.10348511 67.01268005 C-194.75422974 66.34695984 -194.40497437 65.68123962 -194.0451355 64.99534607 C-191.17805103 59.67205884 -187.91579704 54.8795698 -183.85348511 50.38768005 C-183.32368042 49.77795349 -182.79387573 49.16822693 -182.24801636 48.5400238 C-171.62891614 37.06332404 -155.09619531 29.31134523 -139.52148056 28.22502518 C-132.95018861 27.9703814 -126.37726708 28.04305321 -119.80270386 28.0947113 C-117.69136356 28.10031728 -115.58001932 28.10458264 -113.46867371 28.10757446 C-107.95315483 28.11894438 -102.43787879 28.14834273 -96.92245483 28.1816864 C-91.27775353 28.21255793 -85.6330124 28.22611607 -79.98825073 28.24119568 C-68.94322307 28.27322096 -57.8983744 28.32432065 -46.85348511 28.38768005 C-46.56699097 27.6210907 -46.28049683 26.85450134 -45.98532104 26.06468201 C-41.42545058 15.27974248 -30.14097845 7.95378672 -19.85348511 3.38768005 C-13.14703916 0.94365016 -7.11412448 -0.04985541 0 0 Z M-27.74020386 27.87205505 C-34.09484137 35.43654037 -38.00905231 44.78568918 -37.95114136 54.6884613 C-37.9479187 55.66492615 -37.94469604 56.64139099 -37.94137573 57.64744568 C-37.93299683 58.65484802 -37.92461792 59.66225037 -37.91598511 60.70018005 C-37.91147339 61.72691833 -37.90696167 62.75365662 -37.90231323 63.81150818 C-37.89056695 66.33695888 -37.87414075 68.8622891 -37.85348511 71.38768005 C-36.92748914 71.38914661 -36.00149317 71.39061317 -35.04743671 71.39212418 C-12.47736218 71.42877941 10.09256465 71.48830781 32.66251659 71.57158279 C43.57735109 71.61132943 54.49211395 71.64374414 65.40701294 71.65867615 C74.92454646 71.67171535 84.44192206 71.69873785 93.95936662 71.74229312 C98.99507961 71.76485691 104.03059817 71.78059379 109.0663662 71.7795639 C113.81477491 71.77881428 118.56275468 71.79688566 123.31105232 71.82884789 C125.0455212 71.83730492 126.78003842 71.83912563 128.51451874 71.83348274 C146.15642502 71.78377158 160.63145946 75.53349763 173.78713989 87.87205505 C184.26829197 99.04732317 188.25984261 112.36090317 188.35183716 127.31858826 C188.36173676 128.31418259 188.37163635 129.30977692 188.38183594 130.33554077 C188.41337332 133.61982359 188.43817772 136.90412086 188.46292114 140.1884613 C188.48349737 142.46818412 188.50449402 144.74790318 188.52589417 147.02761841 C188.58104577 153.02315728 188.63048554 159.01873019 188.67874146 165.014328 C188.73784707 172.2105557 188.80403701 179.40672128 188.86904144 186.60289764 C188.96696399 197.53112046 189.05587965 208.45938342 189.14651489 219.38768005 C218.35151489 219.88268005 218.35151489 219.88268005 248.14651489 220.38768005 C248.17229614 211.75998474 248.19807739 203.13228943 248.22463989 194.2431488 C248.25299415 188.09465802 248.28385262 181.94621997 248.31833839 175.79776478 C248.36271413 167.82635205 248.40111671 159.85505432 248.41751099 151.88352966 C248.43050701 145.57352805 248.45741866 139.26376655 248.50112796 132.95390016 C248.52378953 129.61198943 248.53942281 126.27037536 248.53839874 122.92838097 C248.54075173 119.19984397 248.56769833 115.47225572 248.60061646 111.74388123 C248.59558609 110.63257843 248.59055573 109.52127563 248.58537292 108.376297 C248.59928574 107.36247452 248.61319855 106.34865204 248.62753296 105.30410767 C248.63122013 104.42195178 248.6349073 103.53979589 248.63870621 102.63090801 C249.14651489 100.38768005 249.14651489 100.38768005 251.03149033 98.585042 C253.65056066 97.10232866 254.95779893 97.22479953 257.89651489 97.70018005 C258.69573364 97.82006287 259.49495239 97.93994568 260.31838989 98.0634613 C260.92167114 98.17045349 261.52495239 98.27744568 262.14651489 98.38768005 C263.04576364 101.47531906 263.28141541 104.25112321 263.30473328 107.46232605 C263.3194165 108.997743 263.3194165 108.997743 263.33439636 110.56417847 C263.34015182 111.68123672 263.34590729 112.79829498 263.35183716 113.94920349 C263.36173676 115.12996964 263.37163635 116.31073578 263.38183594 117.52728271 C263.40799799 120.76040113 263.42987066 123.99351445 263.44983792 127.22667599 C263.47172955 130.60729546 263.49910268 133.98787043 263.52589417 137.36845398 C263.57577814 143.7679617 263.62073287 150.16749416 263.66391653 156.56705022 C263.71332565 163.85361167 263.76823013 171.14012847 263.82359612 178.42664671 C263.93735021 193.41361619 264.04420352 208.40062776 264.14651489 223.38768005 C265.1640686 223.91587341 266.18162231 224.44406677 267.23001099 224.98826599 C268.58513062 225.69926383 269.94010331 226.41054178 271.29495239 227.12205505 C271.96325073 227.4680072 272.63154907 227.81395935 273.32009888 228.1703949 C279.17874191 231.25917184 284.14332462 235.05764629 289.14651489 239.38768005 C290.81047 240.72439579 292.47682658 242.05813258 294.14651489 243.38768005 C294.24026358 223.97610095 294.31064291 204.56456827 294.35376358 185.15280914 C294.37432402 176.13808592 294.40231878 167.12350396 294.44827271 158.10887146 C294.48834134 150.24493733 294.51399498 142.38110559 294.52286887 134.5170722 C294.52805 130.35923415 294.54008869 126.20168884 294.56943512 122.04394531 C294.5969222 118.11719666 294.60489404 114.19085666 294.59894562 110.26402092 C294.60003119 108.83554284 294.60778465 107.40704869 294.62333679 105.97865486 C294.8038208 88.52106887 291.10936363 72.54710512 278.83401489 59.51268005 C274.40296394 55.31846114 269.51606423 52.24620841 264.14651489 49.38768005 C262.80345569 52.07379846 263.05093161 54.1261808 263.08401489 57.12986755 C263.09174927 58.27842224 263.09948364 59.42697693 263.10745239 60.6103363 C263.13341051 63.03742053 263.15945164 65.46450387 263.18557739 67.8915863 C263.19331177 69.04271912 263.20104614 70.19385193 263.20901489 71.37986755 C263.22061646 72.43544861 263.23221802 73.49102966 263.24417114 74.57859802 C263.1587093 77.03690779 262.86128812 79.04707915 262.14651489 81.38768005 C260.73348252 81.63828195 259.31572015 81.86229926 257.89651489 82.07518005 C257.10760864 82.20279724 256.31870239 82.33041443 255.50588989 82.4618988 C252.37817387 82.36351039 251.35629186 81.58113497 249.14651489 79.38768005 C248.64822388 76.66722107 248.64822388 76.66722107 248.64260864 73.3915863 C248.62391724 72.19211365 248.60522583 70.99264099 248.58596802 69.75682068 C248.58532349 68.50062927 248.58467896 67.24443787 248.58401489 65.95018005 C248.5280669 50.8042605 246.96226799 38.17835173 236.48635864 26.54393005 C223.13494319 14.17098713 205.76904023 15.09082663 188.77322388 15.12889099 C186.73021317 15.12617679 184.68720345 15.12261345 182.64419556 15.11827087 C177.12572388 15.10919628 171.60732745 15.11267056 166.08885455 15.11902905 C160.29777505 15.12411396 154.50670172 15.11939075 148.71562195 15.11625671 C138.99408824 15.11262461 129.27258499 15.11739664 119.55105591 15.12693787 C108.3299921 15.13782401 97.10900097 15.13429261 85.88793892 15.12328506 C76.23239695 15.11419431 66.5768768 15.11293555 56.92133194 15.11816239 C51.16377927 15.12127187 45.4062607 15.12171955 39.64871025 15.11508942 C34.2354659 15.10929044 28.82231483 15.11335942 23.40908051 15.12487793 C21.42863431 15.12751076 19.44818019 15.1267831 17.4677372 15.1223526 C0.38815303 15.0876809 -14.54323351 15.58926205 -27.74020386 27.87205505 Z M-172.85348511 62.38768005 C-183.75374245 75.13651905 -186.02264581 88.93589103 -185.95114136 105.1025238 C-185.94972641 106.31340164 -185.94831146 107.52427948 -185.94685364 108.77185059 C-185.94127537 112.62298599 -185.9287268 116.47406235 -185.91598511 120.32518005 C-185.9109673 122.94301775 -185.90640488 125.56085637 -185.90231323 128.17869568 C-185.89131305 134.58171047 -185.87459655 140.98469104 -185.85348511 147.38768005 C-185.37871735 146.97920837 -184.90394958 146.57073669 -184.41479492 146.14988708 C-183.78886444 145.61218689 -183.16293396 145.07448669 -182.51803589 144.52049255 C-181.89889313 143.98827087 -181.27975037 143.45604919 -180.6418457 142.90769958 C-164.87811937 129.50929885 -148.32079949 124.49299126 -127.85348511 123.38768005 C-127.65045776 122.00709412 -127.65045776 122.00709412 -127.44332886 120.59861755 C-124.71935195 104.58098086 -118.1313768 90.78260269 -104.54098511 81.07518005 C-95.57469102 75.52836895 -86.52831839 72.39527403 -76.02145386 72.0712738 C-74.7291687 72.02937927 -73.43688354 71.98748474 -72.10543823 71.94432068 C-70.75062318 71.90451654 -69.39580543 71.86480414 -68.04098511 71.82518005 C-66.66662406 71.78194282 -65.29227487 71.73832693 -63.91793823 71.69432068 C-60.56323607 71.58838272 -57.20837368 71.48754057 -53.85348511 71.38768005 C-53.52348511 62.47768005 -53.19348511 53.56768005 -52.85348511 44.38768005 C-63.98962066 44.31967472 -75.12561637 44.26473204 -86.2619133 44.23224354 C-91.43395506 44.21664407 -96.60584633 44.19551118 -101.77780151 44.16136169 C-106.77692375 44.12856314 -111.775902 44.11078412 -116.7751236 44.10304832 C-118.6743318 44.09754139 -120.57353289 44.08678854 -122.47267914 44.07048988 C-142.69010846 43.90401582 -158.37509386 47.14205781 -172.85348511 62.38768005 Z M-105.31442261 103.25486755 C-108.9077232 108.23441609 -110.76143511 112.96276671 -111.39889526 119.04808044 C-111.48515167 119.86023514 -111.57140808 120.67238983 -111.66027832 121.50915527 C-111.75591568 122.43902504 -111.75591568 122.43902504 -111.85348511 123.38768005 C-110.56912567 123.3935463 -109.28476624 123.39941254 -107.96148682 123.40545654 C-95.81019128 123.46286859 -83.65907152 123.53572581 -71.50795555 123.62339497 C-65.2621428 123.66796991 -59.01639334 123.70725409 -52.77047729 123.7341156 C-46.73381122 123.76027738 -40.69739043 123.80076981 -34.66087723 123.85086632 C-32.36704198 123.86744835 -30.07316439 123.8790162 -27.7792778 123.88529396 C-5.12836089 123.95350891 16.82997651 126.3095463 33.93264771 142.96556091 C38.00033256 147.07209665 41.1955509 151.44162248 44.33401489 156.27830505 C44.88081909 157.10417114 45.42762329 157.93003723 45.99099731 158.78092957 C47.71837336 161.39412525 49.43268385 164.01558637 51.14651489 166.63768005 C52.29408137 168.37913976 53.44251288 170.12002976 54.59182739 171.8603363 C56.79599492 175.20065018 58.99646694 178.54333674 61.19265747 181.88890076 C63.69674229 185.70321999 66.20228714 189.51641612 68.72073364 193.3212738 C69.301698 194.20097839 69.88266235 195.08068298 70.48123169 195.98704529 C78.50135797 207.54867873 89.57162269 215.58497982 103.3697052 218.92599487 C106.57974675 219.45971118 109.60963563 219.50733519 112.86453247 219.50120544 C113.84586151 219.50142448 113.84586151 219.50142448 114.84701538 219.50164795 C116.99506015 219.500955 119.14301665 219.4931917 121.29104614 219.4853363 C122.78605604 219.48346993 124.28106654 219.48204706 125.77607727 219.48104858 C129.700233 219.47724069 133.62435139 219.46742524 137.54849243 219.4563446 C141.55707291 219.44609326 145.56565945 219.441543 149.57424927 219.43650818 C157.43168823 219.42580135 165.28909691 219.40874577 173.14651489 219.38768005 C173.23941681 206.40895515 173.3103824 193.43031007 173.35376358 180.45131969 C173.37459007 174.42388302 173.40281761 168.39667476 173.44827271 162.36936951 C173.49190633 156.54679447 173.5156891 150.7244384 173.52602386 144.90171242 C173.53338382 142.68627287 173.54775577 140.47084458 173.56943512 138.25549889 C173.72163034 122.05072671 173.07468532 109.63069732 161.29885864 97.48143005 C152.99860147 89.69271954 144.43880435 87.23808312 133.27357483 87.24050903 C131.91414185 87.234994 131.91414185 87.234994 130.52724558 87.22936755 C127.48358159 87.21833486 124.43995174 87.21448754 121.39627075 87.2106781 C119.21651094 87.20441307 117.0367522 87.19776623 114.85699463 87.19076538 C107.6917902 87.16972493 100.52658556 87.15936207 93.36135864 87.1493988 C90.89381969 87.14535105 88.42628086 87.14123413 85.95874214 87.13704872 C74.36431552 87.11799602 62.76989526 87.10376591 51.17545599 87.09543675 C49.84134606 87.09446824 48.50723614 87.09349399 47.17312622 87.09251404 C46.51136655 87.0920303 45.84960687 87.09154656 45.16779388 87.09104816 C35.12264853 87.08327014 25.07760188 87.0614424 15.03250122 87.0309906 C3.35937763 86.99571929 -8.31366585 86.97439176 -19.986844 86.97065574 C-26.16264565 86.96830702 -32.33827038 86.9593696 -38.51402473 86.93419456 C-44.32775333 86.91087855 -50.14118897 86.906695 -55.95495224 86.91695595 C-58.08375842 86.91745058 -60.2125792 86.91115177 -62.34134102 86.8973999 C-80.18765454 86.78860327 -93.3522247 88.88930569 -105.31442261 103.25486755 Z " fill="#FFFFFF" transform="translate(201.85348510742188,-0.3876800537109375)"/>
<path d="M0 0 C0.99402832 -0.00188513 1.98805664 -0.00377026 3.01220703 -0.00571251 C4.15625 -0.01981163 5.30029297 -0.03391075 6.47900391 -0.04843712 C8.35555664 -0.03325539 8.35555664 -0.03325539 10.27001953 -0.01776695 C11.60401605 -0.02454392 12.93800321 -0.03344752 14.27197266 -0.04431725 C17.89195702 -0.06710874 21.51122879 -0.05827561 25.13122559 -0.04242182 C28.91969725 -0.02976171 32.70810796 -0.04150321 36.49658203 -0.04935265 C42.85867263 -0.05844895 49.220473 -0.04646204 55.58251953 -0.02264977 C62.93770607 0.00456181 70.29219964 -0.00425239 77.64736938 -0.03178179 C83.96259492 -0.05447265 90.27761186 -0.05767317 96.59286499 -0.04458845 C100.36459716 -0.03679367 104.13600361 -0.03575267 107.90771484 -0.05227089 C111.45386181 -0.06671647 114.99911555 -0.05669428 118.54516602 -0.02779961 C120.46710991 -0.01803574 122.38912936 -0.03288847 124.31103516 -0.04843712 C125.45507812 -0.034338 126.59912109 -0.02023888 127.77783203 -0.00571251 C129.26887451 -0.00288482 129.26887451 -0.00288482 130.79003906 0 C134.39768367 0.87138871 135.44624244 2.55356399 137.39501953 5.6292057 C137.89501953 8.6917057 137.89501953 8.6917057 137.39501953 11.6292057 C135.52792043 13.93196127 134.03854212 15.30744441 131.39501953 16.6292057 C129.65556845 16.72664162 127.91237181 16.75989727 126.17019653 16.76291847 C125.06255951 16.76718346 123.95492249 16.77144844 122.8137207 16.77584267 C121.59289795 16.77538948 120.3720752 16.77493629 119.11425781 16.77446938 C117.83291962 16.77782799 116.55158142 16.7811866 115.23141479 16.78464699 C111.71071102 16.79349729 108.19003154 16.79582555 104.66931772 16.79646277 C101.73193379 16.79741127 98.79455555 16.80108894 95.8571738 16.80463487 C88.92724055 16.81278357 81.9973203 16.81521875 75.06738281 16.81450844 C67.91580041 16.81390773 60.76429346 16.82445718 53.61273015 16.8402521 C47.47594412 16.85332345 41.33918276 16.8586925 35.20238292 16.85805303 C31.53578535 16.85779789 27.86925478 16.86065751 24.20267105 16.87123108 C20.1132516 16.88270147 16.02400136 16.87816773 11.93457031 16.87212563 C10.71779602 16.87774513 9.50102173 16.88336464 8.24737549 16.88915443 C7.13409882 16.88495995 6.02082214 16.88076546 4.87380981 16.87644386 C3.42311694 16.87726101 3.42311694 16.87726101 1.94311714 16.87809467 C-0.76481548 16.6135936 -2.33991551 16.11849119 -4.60498047 14.6292057 C-6.94666811 11.11667425 -7.10121724 9.76451215 -6.60498047 5.6292057 C-3.60898446 0.87171233 -3.60898446 0.87171233 0 0 Z " fill="#FFFFFF" transform="translate(64.60498046875,265.37079429626465)"/>
<path d="M0 0 C1.08929306 -0.00571014 2.17858612 -0.01142029 3.30088806 -0.01730347 C4.49627197 -0.01842133 5.69165588 -0.01953918 6.92326355 -0.02069092 C8.18202805 -0.02565582 9.44079254 -0.03062073 10.73770142 -0.03573608 C14.19236139 -0.04885185 17.64700193 -0.05530349 21.1016829 -0.05974674 C23.26078124 -0.06267895 25.41987428 -0.06678405 27.57896996 -0.07125092 C34.33646552 -0.08492402 41.09394897 -0.09459144 47.85145742 -0.09845281 C55.64790354 -0.10293249 63.44417424 -0.12047686 71.24056703 -0.1494534 C77.26954977 -0.17108201 83.29848321 -0.18115772 89.32750434 -0.18249393 C92.92712282 -0.18354117 96.52657636 -0.18943147 100.12615395 -0.20731354 C104.1432672 -0.22688166 108.16001414 -0.22250059 112.1771698 -0.21600342 C113.96113663 -0.22982559 113.96113663 -0.22982559 115.78114319 -0.243927 C126.0097203 -0.19203506 126.0097203 -0.19203506 130.74430847 3.14044189 C132.17093066 5.99368627 132.05464715 7.97498738 131.74430847 11.14044189 C129.80659291 14.22917891 128.75103534 15.89727758 125.139328 16.7696476 C124.14529968 16.77153273 123.15127136 16.77341785 122.12712097 16.77536011 C120.983078 16.78945923 119.83903503 16.80355835 118.6603241 16.81808472 C116.78377136 16.80290298 116.78377136 16.80290298 114.86930847 16.78741455 C113.53531195 16.79419152 112.20132479 16.80309511 110.86735535 16.81396484 C107.24737098 16.83675634 103.62809921 16.8279232 100.00810242 16.81206942 C96.21963075 16.79940931 92.43122004 16.81115081 88.64274597 16.81900024 C82.28065538 16.82809655 75.918855 16.81610964 69.55680847 16.79229736 C62.20162193 16.76508579 54.84712836 16.77389999 47.49195862 16.80142939 C41.17673308 16.82412025 34.86171614 16.82732077 28.54646301 16.81423604 C24.77473085 16.80644126 21.00332439 16.80540026 17.23161316 16.82191849 C13.68546619 16.83636406 10.14021245 16.82634188 6.59416199 16.7974472 C4.6722181 16.78768334 2.75019864 16.80253607 0.82829285 16.81808472 C-0.31575012 16.8039856 -1.45979309 16.78988647 -2.63850403 16.77536011 C-4.12954651 16.77253242 -4.12954651 16.77253242 -5.65071106 16.7696476 C-9.27530539 15.89416486 -10.34316036 14.26426011 -12.25569153 11.14044189 C-12.19391637 7.55748279 -12.02409317 5.18826231 -9.88069153 2.26544189 C-6.67415357 0.045531 -3.76803771 0.01182213 0 0 Z " fill="#FFFFFF" transform="translate(70.25569152832031,292.85955810546875)"/>
<path d="M0 0 C1.72848944 3.15195133 1.45813413 6.45804311 1.0625 9.9375 C0.03050991 12.5533713 -0.98324045 14.75312346 -2.34765625 17.171875 C-2.70676086 17.84002228 -3.06586548 18.50816956 -3.43585205 19.19656372 C-4.60822565 21.36915009 -5.80345502 23.52814678 -7 25.6875 C-7.82008273 27.19336855 -8.63867055 28.70005212 -9.45581055 30.20751953 C-11.12443734 33.28247876 -12.80120605 36.35280712 -14.48242188 39.42089844 C-16.80479997 43.67388707 -19.06027962 47.95923981 -21.296875 52.2578125 C-22.29711385 54.16948792 -23.29821138 56.08071128 -24.29953003 57.99182129 C-25.23109721 59.77629065 -26.1538519 61.56535167 -27.07641602 63.35449219 C-27.64545654 64.43118164 -28.21449707 65.50787109 -28.80078125 66.6171875 C-29.28844971 67.55288574 -29.77611816 68.48858398 -30.27856445 69.45263672 C-32.18704403 72.31128353 -34.07549883 74.04343499 -36.9375 75.9375 C-41.09912002 75.98836424 -43.17341879 75.55621356 -46.421875 72.92578125 C-47.54335938 71.60126953 -47.54335938 71.60126953 -48.6875 70.25 C-49.53570312 69.25742188 -50.38390625 68.26484375 -51.2578125 67.2421875 C-52.15507953 66.1439115 -53.04819778 65.0422352 -53.9375 63.9375 C-54.39737305 63.36676758 -54.85724609 62.79603516 -55.33105469 62.20800781 C-57.68863126 59.26307652 -60.0131407 56.29525514 -62.3125 53.3046875 C-64.6380322 50.28865637 -67.09408955 47.40038228 -69.5625 44.5 C-72.72144841 40.53506475 -74.33956339 38.06380826 -73.9375 32.9375 C-72.03016488 29.42800337 -70.78611588 28.22639051 -67 26.9375 C-63.13573529 26.9375 -62.05816103 27.63806556 -58.9375 29.9375 C-56.4567167 32.61305094 -54.19943083 35.45125416 -51.9375 38.3125 C-48.12410247 43.08739519 -44.37069738 47.72260401 -39.9375 51.9375 C-39.53917969 50.89178833 -39.53917969 50.89178833 -39.1328125 49.82495117 C-37.84032835 46.70276774 -36.36207627 43.74126097 -34.8125 40.73828125 C-34.50923294 40.14966309 -34.20596588 39.56104492 -33.89350891 38.95458984 C-32.91132525 37.0514087 -31.92506064 35.15039616 -30.9375 33.25 C-30.60213226 32.6042099 -30.26676453 31.9584198 -29.92123413 31.2930603 C-27.60408613 26.83553756 -25.27414128 22.38483048 -22.9375 17.9375 C-22.40334473 16.91914063 -21.86918945 15.90078125 -21.31884766 14.8515625 C-19.97715532 12.30950336 -18.61875439 9.7775657 -17.25 7.25 C-16.86521484 6.52143799 -16.48042969 5.79287598 -16.08398438 5.04223633 C-14.61461438 2.37163672 -13.39172943 0.26343562 -10.890625 -1.53125 C-7.08853488 -2.56541851 -3.421906 -1.8765291 0 0 Z " fill="#FFFFFF" transform="translate(354.9375,125.0625)"/>
</svg>
